<svg xmlns="http://www.w3.org/2000/svg" viewBox="0 0 1024 442"><g fill="#fff"><path d="M282.979 51.47v-1.215c3.338-2.298 2.466 3.663 0 1.215m-32.204 47.386c.285 1.902-1.297 1.931-3.047 1.826-.023-1.826 1.797-3.088 3.047-1.826m-35.843 2.435c-1.809-.006-3.716.041-3.646-1.838 1.593-.633 3.966-.959 3.646 1.838m10.933-2.435c-.076 1.088.75 1.297.616 2.437-.867.779-3.268-.326-3.646-1.838 1.442.251 1.32-1.081 3.03-.599m13.37 1.828c-.983.983-3.821.715-3.646-1.227 1.442-.418 3.843-1.384 3.646 1.227m24.296-1.227c-.052 1.553-.872 2.361-2.419 2.443-.407-.616-1.402-.616-1.221-1.82.726-.711 2.133-.693 3.64-.623m-3.025 7.904c2.198.419 2.245 3.013 2.425 5.473-4.193-1.25-7.246 2.559-8.502-2.431 1.948.547 1.908-.942 2.437-1.826 1.826-.035 2.35 1.291 3.641 1.826 1.773-.529-.798-1.524-.001-3.042m-28.571 1.214c1.413.616 1.977 2.099 1.838 4.257-3.518-.401-4.385-.401-7.909 0-.535-1.064-1.687-1.547-1.221-3.641.877.937 7.647 3.001 7.292-.616m65.629 202.334c-16.58 6.502-28.665 17.505-49.834 19.436 8.601-6.81 18.482-12.312 26.746-19.436h23.088z"/><path d="M313.367 63.001c-2.797 1.378 1.803 3.705 1.215 6.688-1.774.151-1.855-1.384-3.67-1.227-.936-2.832.541-2.006.628-4.856-3.926-.925-7.043-2.675-6.682-7.892-4.687 1.192-4.525 7.235-7.293 10.346 4.937-3.146 12.661 1.332 14.586 6.665 6.072-.157 7.304 2.873 12.748.611-1.849 5.653-3.286 11.707-7.293 15.202-.413 3.036 1.035 4.216.616 7.275-1.25-.151-1.215-1.617-1.82-2.413-1.855.977 2.012 2.914 0 4.228-1.972-.465-1.46-3.414-2.437-4.85-1.698 1.751 1.5 3.739.616 6.682-2.402-2.251-2.629-6.705-2.431-11.532-3.297.611 1.297 6.072-2.437 5.473-.419-2.46.593-3.478.599-5.473-3.181-.57-.89 4.362-2.425 5.473-2.041-7.281-3.286-15.342-6.671-21.285-3.309-.064-5.374 1.134-4.874 4.862-8.758 6.025-13.225 16.342-19.43 24.92 5.775 1.489 9.968 10.206 4.257 14.586-17.645 1.721-29.421-.837-44.984 1.198-7.775-.006-16.627-1.995-26.118-1.198-8.386.68-14.801 1.291-15.801-5.478-.727-5.025 2.477-6.624 5.472-9.107-6.013-8.764-10.753-18.814-18.843-25.519 1.849-6.124-5.426-8.933-7.287-4.263 1.21 7.165-.047 16.354-6.671 17.627-.727 3.943-1.361 7.95-4.257 9.718.244-3.402 3.233-4.042 2.419-8.52-3.443-1-1.983 2.873-3.641 3.675-1.814-.419.576-1.314 0-2.443-1.518-.099-1.489 1.355-2.437 1.826 1.454-5.955-4.426-13.329-6.072-20.046 2.541-.651 4.117 1.268 5.455 0 1.349-.07.273-2.588.616-3.652.983-.861 3.152-.5 3.658-1.838 1.57.523-1.181 2.675.605 3.652 4.426-3.722 10.311-11.777 17.61-5.455-2.443-4.228-5.885-7.473-7.287-12.759-.896 5.787-5.112 8.235-6.671 13.358-2.076-1.518 1.652-2.332.616-4.856-1.53 2.774-3.611 1.215-3.652 5.455-.82-.18-.529-1.518-.616-2.425-.797 1.239-.657 3.391-3.641 2.425 2.792-6.589-4.391-11.666-5.478-18.22 3.379-.523 3.449 2.222 6.077 2.425 1.826-1.803 2.6-4.67 3.658-7.281 9.363-3.425 11.905 4.49 13.958 10.317 1.413-1.221.227-5.031.628-7.275-1.39-1.064-2.204-2.664-3.658-3.658-1.338-8.787-9.183-11.05-11.544-18.848 8.031-3.85 13.167 4.868 12.771 13.393a5.308 5.308 0 002.431 2.425c1.39.198.675-1.751 1.809-1.814-.349-2.274-1.431-3.862-2.437-5.484 1.791-10.288-5.339-11.649-7.281-18.226 3.501-.279 6.362.413 7.909 2.431 2.844 3.763.564 11.131 4.24 13.382 1.262-.366-.867-2.315-.616-3.652 3.862-6.513-1.727-11.294-2.419-17.017 8.723-.506 5.525 9.398 6.688 15.19 5.414-4.414 1.995-12.992-.616-17.616 6.926-2.605 6.188 8.712 6.077 13.358 6.095-2.129 1.093-9.369 3.042-14.574 5.787.896 3.402 5.984 3.036 10.928 4.699-.163 3.46-6.252 3.652-10.928 6.99-.122.727 6.729 2.425 9.724 3.972-1.093 2.047-8.095 7.287-7.903 1.559 2.954-1.855 4.094-2.425 6.676.814 2.018 4.635 1.047 4.234 4.257-3.803 2.03-6.089.971-10.317 1.82-34.998 7.147-18.052 61.995.616 75.941 2.879-8.822-4.996-16.679-7.898-23.675-3.542.407-4.85.384-7.304-1.227.547-4.402-.529-7.159-2.425-9.119-1.25-11.271 5.071-17.249 10.317-23.681 6.676-1.279 9.52-3.46 16.412-3.646 5.414 2.914 13.579 3.042 17.639 7.287 2.466-1.576 3.978-4.106 4.251-7.903-1.46-1.384-2.233 1.343-4.868.616v-8.508c2.541-.523 2.873 1.181 4.868 1.204.419-3.065-1.675-3.582-1.832-6.06h11.544c.343 2.152-.692 2.931-1.215 4.245 1.396 1.698 3.216-.82 4.85.611-.768 2.472-.297 6.159-1.198 8.508-2.541.512-2.873-1.198-4.856-1.227-1.477 3.769 2.338 6.258 3.629 9.113 7.217-4.1 15.609-7.525 26.13-6.659 6.897 1.599 10.957 6.048 16.412 9.102 2.21 9.2 3.571 17.319 0 26.118-2.03.192-2.698 1.774-5.478 1.227-3.949 7.392-11.457 14.458-9.724 25.507 14.091-13.667 31.742-51.23 12.765-71.102-5.624-5.891-15.347-6.124-24.298-9.706.477-1.954 3.117-1.727 4.257-3.042.052-2.809-3.216-5.536-.611-7.281 4.635.209.692 9.032 5.478 9.096 3.309-1.681-3.524-9.619 3.018-9.706 1.361 3.315-.116 9.456 3.047 10.933 4.757-1.623-1.966-8.235 1.21-12.16 1.721-.494 1.57.867 3.042.622-.622 5.618-2.53 11.527 1.814 14.574 1.471-4.78-.744-13.3 6.694-12.155.616 4.862-2.768 5.763-3.652 9.119 1.285 2.972 1.122 7.392 4.269 8.508 0-5.443-1.681-14.562 6.665-14.591-.407 5.042-5.798 13.108-3.629 20.669 3.501-.14 1.931-3.484 2.408-5.467 1.855-7.334 5.193-15.097 12.765-12.16-4.106 6.223-10.416 10.253-10.323 20.669-1.908.337-2.192 2.262-2.443 4.245a3.246 3.246 0 001.844 1.832c3.367-7.229 7.927-19.529 18.232-15.813-5.699 5.443-13.347 8.968-13.981 19.453-2.105.134-1.995 2.46-3.652 3.047v6.671c3.524-4.676 7.444-15.592 16.4-9.107.954 1.884 1.82 3.867 3.042 5.455 1.634-.395 3.222-2.652 4.856-1.204-2.053 4.559-2.018 13.987-7.281 13.359-.25 1.477 1.111 1.314.616 3.042-1.462-.558-1.613-2.448-1.828-4.262m-29.172-7.904c-.256 2.704.349 4.542 3.03 4.269 4.42-1.657.157-8.293-3.03-4.269m-48.607-30.98c-1.466 4.978 7.543 4.978 6.089 0-2.815-.215-3.512-.75-6.089 0m6.089 8.503c1.082.547 1.541 1.704 3.629 1.215.308-1.372 1.204-3.1 0-4.251-2.338-.116-3.489.971-3.629 3.036m-10.34 1.215h3.047v-3.018c-2.099-2.163-5.205.948-3.047 3.018m5.461 0c2.274.238 3.588-.471 3.646-2.413-.471-.14-.692-.523-.599-1.221h-3.047c-.541 1.768-.541 1.866 0 3.634m0 4.257c3.978.803 4.583-3.408.616-3.042-.506.699-.791 1.629-.616 3.042m-34.621 4.263c1.53 4.298 8.287 1.768 5.473-3.036-2.786-1.529-5.368.105-5.473 3.036m7.892 0c1.873 1.948 6.17 1.541 6.077-1.832-.756-.256-1.233-.803-1.215-1.814-3.175-.32-5.408.262-4.862 3.646m54.086 2.425c7.99-8.938-9.968-4.472 0 0m9.706-1.215c.704-4.792-2.6-5.473-5.461-3.641-1.431 4.624 3.356 6.182 5.461 3.641m-40.692-.599v2.425c4.147-.11 3.222 2.146 5.461 3.03.803-1.623 1.146-3.722 4.251-3.03 1.256-4.292-4.554-1.529-3.646-5.467h-2.437c.913 3.135-2.105 2.338-3.629 3.042m-15.807 0c1.791-1.157 3.995-.07 2.431 1.814 1.541-.081 2.344-.884 2.437-2.425-.489-.14-.715-.523-.611-1.221-1.942.07-4.641-.593-4.257 1.832m36.464 3.03c1.047-.035 1.541.465 1.809 1.21 2.861-.326 4.542-3.175 3.036-6.072-3.862-.646-5.49.965-4.845 4.862m-52.253-3.03c-1.745-.948-4.007-1.692-6.077-.611.07 1.745-.337 3.972.587 4.85 3.623.367 5.763-.726 5.49-4.239m73.503.599c-.401 2.623 1.058 3.396 1.838 4.856 1.599.715 3.571-1.169 3.641 0-.297 2.326.157 3.891 1.204 4.862h3.652c1.343-.832 1.785-4.6.616-6.077-2.152-1.099-3.792.837-4.856 0 .244-2.082-.25-3.402-.616-4.85-2.1-1.082-4.542-.536-5.479 1.209m-51.637 2.431c.948.942 3.542-1.035 4.24 1.21.704-.698.704-2.129.616-3.641-2.221-1.146-4.856-.349-4.856 2.431m24.903 2.425c1.535-2.373 2.082-.361.616 1.215 2.675.436 3.158-1.314 3.652-3.03-.454-1.564-1.954-2.111-4.269-1.826-.476.419-1.337 3.391.001 3.641m-50.422 1.215c-3.763 3.99-7.618 18.406.616 20.663.994-4.24-1.628-7.985-.616-12.137 2.803-11.451 22.03-9.73 30.375-4.263-3.908-9.846-22.023-10.096-30.375-4.263m50.422 4.263c8.491.43 23.164-10.334 28.572 0 2.192 4.176-.965 11.631 4.257 13.958 9.363-20.843-23.14-28.258-32.829-13.958m-57.72-1.837c3.513 2.105 6.944-1.338 4.874-4.856-3.653-2.245-7.096 1.215-4.874 4.856m-24.909 1.221c-1.088-.535-.994-2.245-2.425-2.425-.704 2.605-2.495 3.559-5.473 2.425-.111 6.804 8.276 8.316 12.765 4.269-.285-3.356-.547-6.764-3.024-7.915-.296 1.564-.866 2.797-1.843 3.646m67.456 15.179c1.838-1.716 4.147.25 6.676-1.204.128-1.134-.686-1.332-.611-2.425-2.152-1.564-3.327 1.227-4.85 0 .675-4.967-.407-12.265-3.652-15.196h-1.215c1.058 6.426 2.681 12.294 3.652 18.825m2.419-15.179c.739-1.698.355-3.873-2.419-3.646.512 1.494.535 3.5 2.419 3.646m4.856 0c2.547.32 2.408-2.047 3.036-3.646-2.413-.198-3.28 1.168-3.036 3.646m1.233 14.574c2.076-5.816 3.937-11.829 5.473-18.22-4.984 2.163-7.514 13.096-5.473 18.22m69.235-14.574c-.867-1.151-1.326-2.698-3.623-2.425-.285 4.019-1.309 7.45 1.21 9.712h7.903c1.82-1.215 1.541-4.513 2.443-6.671-1.495-1.547-1.309 1.268-3.646.611-.651-1.407-.395-3.675-1.233-4.874-2.513-.296-.954 3.501-3.054 3.647m-108.136 3.658c9.817-.814 14.161 3.466 25.519 1.221-5.053-5.909-20.756-9.945-25.519-1.221m44.374 1.221c11.242 2.076 18.569-1.041 27.927-1.221-5.595-10.015-20.198-1.128-27.927 1.221m-58.959 7.27h3.652c.361-4.658-.523-6.176 1.215-10.922-1.285-1.861-4.682-1.338-6.072 0-.68 2.902 1.489 2.949 1.82 4.856-.832 1.407-2.437 2.006-1.82 4.85 1.204.145 2.454-2.71 3.635-.611.193 1.623-3.401-.552-2.43 1.827m47.397-7.27c1.006-.087 3.867 1.954 3.646-.611-.342-1.285-3.931-.773-3.646.611m3.647 4.24c.279-1.902-1.297-1.948-3.047-1.832-.652 2.46 1.86 3.012 3.047 1.832m46.176 4.257c2.472-.349 4.1-1.564 4.269-4.257-2.658-3.629-8.055 1.43-4.269 4.257m-27.328-2.443c-3.001 1.279-1.402 7.136-3.652 9.119-1.867-.57-2.454-2.413-5.473-1.82-2.222 1.902-2.518 7.264.616 8.514.89-5.1 15.877-5.827 15.185 1.204 3.518-.273 3.321-4.873 2.414-7.898-2.198-1.902-4.81 1.274-6.06 0 .884-3.396 1.093-9.002-3.03-9.119m-41.936 9.736h-5.478c-1.367 2.03-1.553 5.339.616 6.688 3.286-3.646 13.742-6.362 17.011-1.221 1.838-1.908 1.588-6.671-.616-7.903-2.693-.465-4.024.419-5.449 1.21.202-10.342-10.446-8.097-6.084 1.226m-24.304-1.227c2.722.093 2.722-2.925 1.82-4.868-4.786-1.797-5.687 4.868-1.82 4.868m91.137-1.815c2.204-1.588 2.728 1.204 4.245 0 .518-1.721-.849-1.588-.599-3.053-2.716-.465-3.885.581-3.646 3.053m13.986-.611h3.03c.192-2.855-2.809-1.64-3.03 0m-61.378-.61c.529 3.321 2.099 5.589 2.437 9.101 3.856-.901 1.134-6.066 3.652-9.101-1.954-.117-4.478-1.419-6.089 0m41.925 5.461c2.245-.355 2.495-2.751 3.042-4.85-1.518.087-1.884-.954-3.042-1.227-.93 1.116-.93 4.972 0 6.077m-113.608 0c-1.076-.518-1.785-1.471-3.047-1.815-.837.785-.611 2.646-.611 4.269h-3.652c1.163 2.472 1.163 6.124 3.053 7.892 3.14-.518 6.496-.814 10.311-.622 2.088-2.175 1.908-6.601 1.838-10.922-1.925-.285-1.39 1.844-3.641 1.198.023-1.832.343-3.99-1.844-3.635-.36 1.652-1.186 2.844-2.407 3.635m34.015-2.425c-.233 2.873.052 5.217 3.036 4.879 2.256-.395 1.849-3.425 1.82-6.089-2.541-.512-2.867 1.186-4.856 1.21m71.701 7.304c2.838.215 4.152-1.111 5.455-2.425.163-3.402-1.675-4.81-4.251-5.49-.616 2.431-.884 5.182-1.204 7.915m36.453-4.879c.361 3.472.32 7.374 1.215 10.346 5.269.448 17.011-.704 13.37-9.119-1.221.797-2.134 1.931-3.652 2.413 0-1.599.227-3.443-.605-4.24-2.634-.192-1.5 3.344-4.251 3.053-1.111-1.727-.832-4.856-3.042-5.49-.692 1.338-.494 5.409-3.035 3.037m-64.397 3.053c1.419-.029 1.785 1.035 3.629.587.401-1.367 1.204-3.658 0-4.839-2.512.111-4.1 1.146-3.629 4.252m-9.741.587c5.443 1.535 5.118-4.908.616-4.24-.831.797-.598 2.641-.616 4.24m-27.938 0c-.017 2.379 3.367 3.507 4.862 2.443-.593-2.245-.82-4.873-2.431-6.083-.442 1.593-2.187 1.861-2.431 3.64m13.364 1.85c.814.814 4.24 1.146 4.257-.611-1.099-1.134-3.414-.326-4.257.611m-6.694 6.67c-2.844-1-4.804-2.861-7.275-4.263-1.518 5.263 4.577 7.892 11.538 6.694 4.461-9.602 16.702 1.89 21.256-7.293 4.042 1.53 13.457 6.589 18.848 1.21 1.431.204 2.291.96 4.24.611 3.646 10.259 16.58 4.606 17.028-4.85-4.583 1.5-3.571 8.572-11.544 6.694-2.082-.983-2.477-3.612-4.868-4.269-6.054-.454-9.695 3.518-14.586 2.425-2.972-.651-4.123-5.827-8.508-4.24-4.902 9.357-19.08-.669-26.129 7.281m33.429 4.24c-2.693.704-10.433 1.663-12.16-.611-1.029-1.96 2.914-2.902 0-3.013-3.379 1.576-6.322-.954-9.101-1.814-1.75 2.629-5.071 0-5.473 3.629 3.233.791 3.111-1.762 6.077-1.204.256 1.134 1.727 1.087 1.204 3.012-.907 2.268-4.862 2.861-7.281 1.849-.558-1.791-.558-1.896 0-3.658-2.297 2.163-6.037 2.896-10.933 2.431-.477 4.304 4.164 3.577 6.066 3.641 4.606.204 12.341-.995 18.843-1.198 6.508-.238 13.225-.419 18.837-.616 6.926-.268 17.331 3.46 20.064-1.826-5.222.547-7.328-2.001-10.346-3.635.558 1.768.558 1.855 0 3.635-2.222.96-6.356.89-7.281-1.233 0-1.588-.366-3.559 1.215-3.629 3.222-.797 3.082 1.768 6.066 1.227-2.646-6.217-9.346-.163-13.969-.611-4.542-.471-8.543-6.223-11.538-.616 3.481 2.995 9.238-3.361 9.71 4.24m-2.42 6.694c-1.425.017-1.791-1.047-3.652-.616-.047-.355-.087-.698-.611-.587-8.892 4.315-28.229-4.059-32.207 4.251 8.532 2.774 21.46 1.873 30.381.605 10.119 1.122 25.438 2.419 34.65-1.21-1.908-6.369-23.135-3.17-28.561-2.443m-20.058 7.304c-.425 9.084 9.607 11.817 16.406 8.497-1.78-3.292-3.106-7.019-6.089-9.113-4.734 1.413-7.316-1.472-10.317.616m45.554 9.096c-.384-4.257-2.908-6.374-4.85-9.096-4.589.331-8.124-.413-12.149-.616.233 9.496 9.538 10.497 16.999 9.712m-69.857-5.455c.721.297 1.378.646 1.838 1.215 1.745-1.832 7.095-1.989 6.054 2.425-2.658-3.135-3.635-.273-7.287 0 1.553 3.315 6.426 2.222 10.329 2.425-.71-3.92-2.536-6.781-4.251-9.706-3.485-.047-5.712 1.157-6.683 3.641m18.831 3.64c-.163-3.472-1.431-5.874-4.245-6.682.656 2.995 1.994 5.304 4.245 6.682m58.33 1.216c-.43-3.838-1.681-6.816-4.856-7.898.547 3.693 1.681 6.828 4.856 7.898"/><path d="M366.225 69.075c4.234-3.245 4.344-10.619 9.712-12.759 5.705 5.798 1.25 14.801.616 22.477-.25 3.123.244 6.386 0 9.747-.582 8.09-4.112 14.76-3.658 23.082.518 9.032 4.402 17.982 3.658 27.322-.326 3.92-1.617 7.339-1.21 10.945.646 5.938 4.536 13.69 6.688 21.268 2.059 7.368 4.53 15.161 6.676 21.262 2.925 8.357 8.753 15.313 9.113 27.95.39 14.068-1.181 30.771-1.221 47.392-.023 13.649-.587 36.918 5.478 44.362 11.067 13.585 41.814 4.751 57.714 11.532.995 2.646 2.629 4.653 3.036 7.903-15.946 5.374-33.399 4.507-50.427 6.072-8.066.768-16.063 2.914-24.309 3.67-13.469 1.175-27.328.134-41.303 1.198-20.529 1.541-46.682 3.524-68.06 2.431-5.792-.297-11.655.96-16.999.605-10.119-.657-19.006-2.966-28.561-1.803-19.197 2.291-43.71 3.327-64.42 2.414-14.766-.651-29.479-.122-43.129-1.215-8.566-.675-15.784-1.675-26.135-2.431-15.062-1.064-31.317-7.374-49.206-6.083-12.19.89-27.601 2.454-38.279-3.036 1.814-12.475 22.89-9.154 36.452-10.329 13.213-1.146 23.478-3.763 29.177-10.928 3.955-23.739 4.379-48.787 2.408-70.48-1.605-17.825 1.768-32.434 6.095-44.966 1.867-5.443 2.158-11.41 3.635-15.801 1.559-4.594 4.798-8.345 6.066-12.759.791-2.629.413-5.874 1.239-8.491.965-3.199 3.687-5.862 4.245-9.131.965-5.74-1.268-13.702-.616-21.256.57-6.636 2.693-12.806 2.419-18.238-.413-8.776-3.007-17.93-3.635-26.124-.204-2.704.39-5.519 0-7.898-1.006-6.229-6.351-12.509-1.204-20.041 6.793.872 8.497 6.874 10.945 12.137 5.688-1.983 5.286-10.073 9.7-13.364 5.763 3.658 3.245 14.859-1.198 18.238 2.297 1.942 6.711 1.768 8.497 4.257 1.495 1.053 1.425 3.646.605 5.455 3.024 3.332 9.282 4.996 6.682 12.155-2.262 2.198-6.49 2.425-9.718 3.641.081 10.881 6.647 15.231 11.55 21.279 4.211-8.77 14.999-12.376 25.513-17.017 6.758-2.983 15.132-8.037 21.256-4.263-2.681 5.176-10.026 8.351-17.011 12.759-8.508 5.391-20.82 9.573-14.586 22.466 8.596 1.803 12.475-6.042 17.04-10.311 5.35-1.221 10.928 1.157 13.946 5.472 39.604 0 75.865.052 114.841 0 2.065-2.181 4.589-3.926 7.304-5.472 7.485.593 13.143 2.477 15.789 9.113 2.693-.465 3.646.814 6.077.611 10.98-18.982-24.21-23.542-31.602-33.411 3.152-6.432 13.638-1.611 20.669 1.215 11.637 4.647 22.309 9.259 26.124 20.052 6.374-5.205 13.207-13.079 13.37-22.495-3.518-3.559-10.369-1.413-12.166-5.455-2.693-6.205 10.957-6.135 7.293-15.208 2.227-1.215 4.821-2.076 6.694-3.641-1.896-6.194-4.571-16.673 1.215-20.64 4.737 3.148 4.441 11.342 9.116 14.564m-7.275-7.892c-.233-1.814-.366-3.71-1.838-4.245-.139 2.152.407 3.629 1.838 4.245M98.875 68.459c2.466.047 1.105-3.763 3.646-3.629 1.53 2.129 1.076 6.217 4.257 6.682-1.343-5.129-2.303-10.648-7.293-12.143-.738 2.297-2.151 6.461-.61 9.09m15.196 1.843c2.065-2.995 3.972-6.17 4.856-10.334-.14-.465-.5-.709-1.198-.599-.639 4.216-3.565 6.164-3.658 10.933m253.969 1.21h3.042c0-1.593-.331-3.571 1.215-3.652 2.64-.867 2.792 2.076 4.257.599.407-3.559.779-6.176-.616-9.09-5.63 1.035-4.589 8.787-7.898 12.143m-6.077-2.437c.71-.75-.785-4.426-2.431-4.856.069 2.379.442 4.42 2.431 4.856m-3.013 3.647c.273-1.902-.779-2.466-1.838-3.036-.122 1.745-.069 3.326 1.838 3.036m15.784 7.304c-.384-1.268.977-4.228-1.227-3.646-1.384 1.366.436 2.675 1.227 3.646m-272.817 1.815c.704-.419 2.669-4.298 0-4.234 0 1.064-1.629 3.53 0 4.234m250.927 6.083c-.361-1.093 1.803-2.518 0-3.047-1.425 2.413-5.885 1.832-6.665 4.862 1.151 1.268 4.658.18 3.623 3.664-1.053.326-3.548-.75-3.623.599 3.832.564 7.159 4.024 10.933 1.198-.163-2.466-1.931-3.332-1.215-6.659 2.664-1.413 5.595-2.512 9.113-3.042 1.535-1.489-1.279-1.297-.622-3.658 1.175-.134 1.361.68 2.454.605-5.35-7.317-6.147 7.542-13.998 5.478m-239.372-3.048c-2.059.233-1.105-2.559-3.053-2.431-.936 2.42 2.065 3.955 3.053 2.431m12.754 4.263c-1.942-.285-2.152-2.326-4.251-2.431.174 3.867 1.239 6.862 4.251 7.903.785-2.46 3.082-3.425 3.646-6.072-.837-1.047-2.605-4.245-4.251-2.431.512.373 1.902 2.828.605 3.031m230.27 9.102c1.797 17.767-17.412 22.152-18.238 36.441-.291 5.443 1.861 10.73 2.448 17.046 3.408-.425 6.217-1.483 9.096-2.437 1.012-2.46 1.07-5.827 2.454-7.903 1.495.081 2.925.087 3.641-.599 3.798-11.893 2.524-26.322 5.455-35.243-1.646 0-2.838 2.553-3.652 0 1.146-3.292 7.828-11.079 1.832-12.143.651 3.256-2.013 3.227-3.036 4.838m-235.132-1.198h3.641c-.372-1.657-1.669-2.396-3.641-2.431v2.431zm-12.137 1.814c1.186-.832 4.327.297 3.646-2.431-2.204 1.169-2.251-.25-4.269-.611-.25 1.478 1.111 1.344.623 3.042m11.532 27.334c-1.285-2.361-1.832-5.455-4.868-6.072.337 6.572 4.083 9.7 4.868 15.789-4.722-1.372-1.902 9.235-9.131 7.304-3.251 13.039 15.813 8.846 23.716 12.771.18 1.378-1.762.657-1.832 1.809 8.473-.297 20.273 1.669 27.345 2.431-2.786-2.361 2.954-3.472 1.215-4.856-2.507-.489-3.123.919-5.478.616.14-1.977-1.064-2.576-.587-4.879-10.049 5.374-26.246.349-37.08-3.641.372-1.268-.733-4.001.616-4.251 1.332 3.106 4.129 4.78 8.502 4.862.878-1.146.041-4.024 1.221-4.862 3.35 1.902 4.897 5.624 8.502 7.281 5.205-24.868-12.108-32.422-17.627-48.595-.58 8.823 1.752 15.808.618 24.293m210.218 5.478c3.949-4.81 1-15.656-3.652-15.19 4.245 2.494 4.792 10.787 3.652 15.19m-182.879 6.67c-4.379-5.606-1.751-17.685.605-21.245-6.007 3.612-6.129 17-.605 21.245m152.51-3.658c-16.545-2.129-39.523-1.198-61.983-1.198-20.151 0-41.402-2.03-57.121 0-5.676.744-10.957 4.559-16.4 1.198-2.315 3.978-.773 11.812-1.204 17.65 1.524.5 2.815 1.221 3.658 2.431-.029 4.891-.71 7.025 0 11.538-2.047.593-2.978 2.291-4.269 3.629-2.245 28.88-1.57 61.855 10.323 80.227 5.164-3.751 11.114-6.717 18.848-7.921 3.175-13.76 9.072-26.42 13.359-39.471 4.251-12.963 11.777-25.536 10.329-40.116-6.921.355-14.394.477-20.064.616 5.438-3.042 9.183-11.16 14.586-13.975 7.281-3.809 12.754 2.262 13.975 7.892 5.193 23.577-21.413 58.976-13.975 83.233 15.028-2.28 18.5-16.807 28.566-24.304 3.053-2.256 6.548-4.106 10.939-5.455 1.349-.884 1.768-2.698 3.652-3.042 2.21.012 1.291 3.17 4.257 2.431 2.943.111 2.123-3.548 4.844-3.646 2.861 2.158 2.861 4.356 7.31 2.431 1.378 1.454 1.948 3.71 2.408 6.083 4.437-1.361 4.339 3.728 6.688 6.06 9.043-1.57 11.509 7.682 20.663 7.299 3.106 7.043-5.071 7.828-3.652 15.179 3.734 2.158 7.642 4.129 10.945 6.705 7.77-21.907 8.444-53.097 9.113-80.227-4.699-3.018-6.391-11.934-4.251-18.203 1.483.058 2.925.081 3.641-.622 2.587-12.63-5.049-20.434-15.185-16.422m58.342 13.394c-7.839 4.577-24.158 7.502-33.434 4.862.744.233 1.239.779 1.221 1.826-.43 1.198-3.408-.145-3.652 1.221 1.518-.105 2.949-.116 3.03 1.198-.378 1.791-3.914 2.46-2.419 4.257 14.452-3.891 34.19.215 48.002-3.646.744-3.111 2.28-8.636.599-12.149 1.169 9.468-9.404 10.439-17.616 8.502 11.881.314 10.887-14.655 5.467-20.663-.407 4.856-.36 10.184-1.198 14.592m-205.379-8.503c1.611 2.46 6.676-.628 6.676-3.664-2.413 1.018-5.525 1.356-6.676 3.664m165.868-1.233c1.041.087 4.984 1.989 4.874-.593-1.157-1.088-2.472-2.012-4.874-1.838v2.431zm14.568 6.089h3.053c-.093-2.355.471-5.345-1.215-6.089-.442 2.199-2.327 2.955-1.838 6.089m-193.201 3.036c2.274.244 3.565-.488 3.658-2.437-1.931-.71-1.309-3.96-3.658-4.24v6.677zm15.202-4.251c0 2.821.727 4.932 3.641 4.862.512-1.518 1.186-4.728 0-6.089-2.28-.646-1.751 1.518-3.641 1.227m164.053 6.077c1.117-2.129 2.402-4.071 2.413-7.304h-3.629c.634 2.198-1.384 7.054 1.216 7.304m9.101 2.437c3.175 1.105 5.252 1.262 8.508 0 .751-6.566-9.822-7.211-8.508 0m-186.536 0c1.838-.209 4.728.675 4.862-1.233-.465-.14-.698-.5-.605-1.204-2.355-.134-3.803.646-4.257 2.437m69.869 3.641v-2.431h-3.024c-.436 2.25.954 2.675 3.024 2.431m-104.49 2.425c7.002-.68 16.83 1.454 21.867-1.21-7.194-3.297-15.598 2.687-21.867-2.437v3.647zm20.646 60.157c4.786 17.895-3.46 33.731-4.856 52.236-1.058 13.946.768 27.328.616 38.284 4.78.686 12.37-1.431 15.179 1.198-1.64 1.419-9.538-.215-9.131 1.239 12.434.436 23.03 2.35 35.254 1.215-3.222-4.92-12.457-5.234-20.052-6.072-5.124-.576-10.544-.471-15.202-1.21-4.594-8.514-.343-21.814.616-34.655.558-7.188-.233-15.365 1.239-21.256 1.361-5.56 4.955-9.997 6.054-14.58 2.489-10.41.744-24.408-3.024-31.585-2.041-1.157-2.001 2.745-3.03.599.279-4.92.634-10.433 1.198-15.196 1.169-9.741 5.757-21.285 0-26.729-4.612 9.299-2.757 22.664-13.37 26.729-1.372 6.13 7.63 8.532 1.832 13.382-4.885.023-9.945-5.583-13.969-2.437 11.184.559 18 8.928 20.646 18.838m10.939-56.511c-.035 11.695-1.954 26.252-2.437 39.477 4.449 8.944 6.95 16.627 6.083 26.147-1.018 11.247-8.689 21.221-9.724 31.602-1.506 15.109-.756 28.223-1.82 43.129 7.781 2.152 15.598 3.303 23.699 4.257 4.362.518 9.096-.605 13.359 0 4.705.663 8.851 4.141 13.364 4.856 9.148 1.431 17.796-1.75 26.746 1.215 4.519 7.014 13.556 9.509 18.22 16.418-14.184-4.466-27.235-10.038-40.698-15.202-2.437-.151-3.705 2.617-6.688 3.047-1.57.204-3.769-1.076-5.473-1.227-15.196-1.338-38.43-.419-55.295-1.82 13.597 9.13 46.141-3.699 51.032 13.364-4.199 2.943-10.206.355-16.388 0-13.667-.779-28.572-1.402-38.889 0-16.266-4.007-31.817 2.094-48.008 3.646-17.086 1.669-34.213.535-49.817 0 4.001 5.583 14.731 4.286 23.088 3.641 6.944-.541 14.522-2.414 20.651-.611 1.954.541 1.274-1.576 2.448-1.82 4.525 3.739 12.847.058 19.442.622 1.698.134 3.1 1.564 4.844 1.809 5.926.808 12.219-.407 18.232 0 4.955.326 9.741 1.82 14.58 1.832 13.295.029 26.205-1.349 37.069 1.809 1.378-.244-.308-3.577 2.437-2.425 4.525-.07 7.363 1.547 11.538 1.832 4.077-3.466 10.835-.564 17.005-.622 11.445-.093 26.967-2.832 37.086-1.21 3.606.576 7.159 3.425 11.521 4.263 6.217 1.146 13.428-1.745 20.07-1.838 1.785-.012 2.565.849 4.245.605 4.414-.564 8.648-2.547 13.364-2.414.448 1.878-1.669 1.163-1.221 3.024 6.008.023 11.311-3.803 17.621-4.856 8.055-1.338 16.697 2.065 25.525 2.425 6.659.285 15.737-1.78 21.268-2.425 7.461-.867 14.068 1.349 20.029 0 6.135 3.547 12.213-1.431 18.854-1.204 2.384-.378.71 3.332 3.635 2.419 4.687-.785 9.468-1.489 13.987-2.419 4.408 3.28 12.562 1.134 18.226-.605 7.13 2.687 16.47.203 24.92 0 7.944-.227 16.505 1.768 21.861-2.443-14.859-.145-28.427.448-43.14 0-13.364-.419-26.45-5.42-39.488-4.856-4.926.204-10.3 1.029-15.789 1.215-14.952.552-25.728 1.349-38.901 3.047-4.722-2.617-10.381 1.471-13.364-3.047 5.926-15.836 36.016-4.356 51.032-11.544-3.076-2.716-11.381-1.605-17.005-1.215-14.237.971-32.73 5.06-44.35.622 1.361-2.053 3.949-4.402 6.682-5.49 11.817-4.67 28.729-1.431 41.931-4.856 4.106-4.815 2.315-7.531 1.814-13.992-.942-12.259-.512-27.083-3.646-37.051-1.483-4.682-4.257-8.212-5.473-12.155-3.234-10.573-4.606-21.309-.599-32.8 1.483-4.251 4.571-6.159 4.862-10.939.227-3.99-2.065-8.555-2.437-12.759-.64-7.403.651-14.94-2.425-21.268-5.833-2.809-13.51.93-18.226 3.042-2.681 49.084-3.199 85.583-26.746 118.482-6.665 9.352-14.69 16.9-24.292 26.118-4.926 4.746-22.344 20.622-29.782 20.663-7.078.041-22.338-14.568-27.938-20.047-34.202-33.411-60.523-75.743-52.253-144.606-6.182-2.14-10.538-6.077-20.058-4.862m202.937 1.21c-.134 15.324 3.071 27.31 6.077 39.506-1.274-1.07-1.791-1.378-3.646-.605-4.472 8.508-7.27 18.976-4.862 30.962 1.14 5.624 5.007 11.224 6.694 17.645 2.687 10.276 3.257 26.909 4.234 37.662.436 4.368 1.954 9.346 1.233 12.76-2.361 10.962-30.817 4.6-38.29 10.329-.773 4.978 5.124 2.565 7.898 2.431 4.833-.233 10.206-.419 13.353-1.216 3.408-3.908 13.138-1.471 18.238-3.652 3.425-15.365-1.995-35.097-1.815-49.212 1.181.244.047 2.78 2.437 1.838-8.601-20.855-8.124-48.892 7.275-61.983-.25-6.147 3.402-8.357 3.036-14.597-2.082-1.512-3.012 2.384-6.054 1.826-3.484-3.402.047-11.957.616-17.011-3.926-4.345-7.032-9.376-16.424-6.683m17.005 122.739c.954 10.398 1.169 23.524 1.233 31.602-8.619 4.321-25.106.826-35.249 3.646-.227 2.658 1.605 3.234 1.809 5.461 11.672-2.669 27.898-1.756 39.517-4.856.337-5.961-.919-13.475 1.198-17.627.547 6.798 3.274 15.347 0 20.692 4.065.779 5.06-1.46 7.304-2.472-.907-2.739-1.681-8.822-2.448-9.712.477 5.787-1.89 7.839-2.431 1.216-.704-8.904-1.128-11.509-2.425-19.453-.651-4.083-.564-8.549-1.198-12.742-1.483-9.433-8.421-13.481-5.49-21.884 3.28-.634 3.129 2.146 4.873 3.036.797-3.856 2.815-6.484 4.856-9.119-2.495-3.152-1.407-9.939-7.892-9.119-1.89 2.338 1.803 3.146 1.198 6.101-1.925.5-1.878-.971-3.036-1.227.384 2.158 3.722 6.106.611 7.904-5.874-8.107-9.956-17.982-9.706-32.213 1.134-.273 3.652.826 3.036-1.204.867-8.462 3.832-14.801 9.096-18.837-.052-.739-.18-1.442-1.198-1.215-24.228 18.224-6.514 50.35-3.658 82.022M121.975 236.17c.704 1.239 1.582-1.774 2.437.605-.512 9.631-5.321 14.935-4.269 26.13-8.398 12.666-9.805 32.318-10.916 52.253.547 2.065 3.024 5.153.593 6.676-3.757-1.524-.43-10.119-2.443-13.364-1.093 1.117-.087 4.356-1.814 4.868-.843-4.088 1.483-8.218 0-10.957-.087 7.397-5.787 17.365-1.215 21.925 13.905-3.443 31.858-.814 48.008-1.256-3.972-6.554-16.103-2.669-24.914-3.658-6.263-.698-10.573-3.734-13.969-4.234-2.733-3.774 3.379-6.095 4.257-9.107.663-2.384-.233-5.827 0-8.497.814-10.265 2.501-23.187 3.635-34.045.989-9.427 5.106-19.087 6.077-28.561 1.343-12.992-3.501-24.734-12.16-30.98 7.443 5.409 11.345 20.286 6.693 32.202m143.995-19.442c.744-1.047 3.745-2.914 1.204-3.658-1.001.785-3.699 2.949-1.204 3.658m-14.586.605c-11.713 1.977-17.371 14.539-25.519 20.669 6.897-2.169 9.299-11.55 17.017-10.939-.942-3.78 1.681-3.99 4.85-3.646-.174-1.407-1.291-2.623.611-3.047 2.658-.425 2.704 1.756 4.856 1.838-.25-3.6 2.803-3.268 5.473-2.443-.826-3.047 2.443-2.018 3.652-3.036-.541 1.948.948 1.878 1.832 2.425.116-1.954-1.088-2.559-.622-4.839-4.229 1.913-7.474 2.227-12.15 3.018m16.4 6.682c2.239.582 2.419-2.978.616-3.042-.348 1.263-1.732 1.966-.616 3.042m-4.251 1.216v-3.024h-1.803c.553 1.046-.023 3.256 1.803 3.024m-5.449 1.832c.686-1.797.343-2.262-1.215-3.047-.972.918-.902 3.46 1.215 3.047m30.363 3.634c-.07-1.024 1.977-3.856-.599-3.635.337 1.071-.738 3.566.599 3.635m-46.769 6.078c-.611-1.425-.204-3.856-2.443-3.652.041 1.989.785 3.285 2.443 3.652m20.645 2.425c-3.158.704-7.113 6.287-12.149 3.036 4.024 4.455 11.905-.349 16.999 1.215.25-4.397 9.834.512 10.34-3.641-5.576.146-10.7-1.575-15.19-.61m12.155 5.467c1.111 1.524 2.065 3.222 3.652 4.263 1.541-.081 2.332-.878 2.425-2.431-.465-2.048-3.925-3.368-6.077-1.832m-52.858 5.49c-8.497.675-16.301-3.21-26.124-2.443 15.598 9.927 37.36-.39 54.679 1.832-9.201-5.891-18.593-.198-28.555.611m77.156-1.838c-2.117-.105-5.292-2.355-7.275-.605 1.983.268 5.239 2.414 7.275.605m-34.016 3.658c6.944 3.536 19.907-1.175 26.118-4.263-9.037 1.093-15.877 4.356-26.118 4.263m-157.982 5.461c1.721-.523 2.774-1.698 3.042-3.652-4.769 1.134-3.571-3.71-8.502-2.431 1.128 2.727 3.268 4.425 5.46 6.083m280.715 54.684c8.2 17.4 34.184 16.47 57.714 17.022 4.978.093 11.032.378 13.975-3.047-19.064-3.036-45.833 1.419-57.104-6.705-12.579-9.008-9.328-28.875-10.939-46.159-.244-2.617-.331-7.322-3.646-9.102 2.594 7.752 1.646 18.505 2.437 28.543.436 5.88 2.768 11.178 1.21 15.173-4.885-17.174-.866-43.257-12.166-54.062 6.99 15.296 5.321 39.239 8.519 58.337m-11.555-55.894c-2.472 1.442-5.321 3.774-5.473 7.281-.465 12.207 3.449 35.016 4.879 46.159 2.698 1.163 6.333 1.39 10.323 1.239-4.484-16.807-.366-42.163-9.113-54.679h-.616zm-267.333 3.03c-.442 2.89 1.785 5.478 1.814 9.119.041 3.332-3.013 7.031-.599 10.323-1.169-8.718 8.101-13.771 3.652-20.035-1.762.041-3.989-.337-4.867.593m-3.042 10.334c2.78-2.902-.076-8.188-1.826-10.334h-1.82c-9.101 12.358-5.566 37.365-10.928 53.486 2.838 1.564 7.13.012 9.712-.622 2.158-12.759 8.63-29.811 4.862-42.53m-17.005 29.177c0-13.783 4.205-25.222 3.646-37.674-7.892 13.434-1.96 39.628-9.119 53.457-8.84 17.034-38.447 9.008-58.93 14.591 20.267 1.268 38.54-.186 55.882-3.641 13.132-9.049 11.846-37.418 15.196-54.696.471-2.414 2.274-6.653.599-6.676-4.215 9.737-3.616 24.293-7.274 34.639m179.843-32.817c-7.758 1.215-14.062-1.5-23.705-2.443-11.09-1.076-21.774 4.112-31.602 3.658-11.044-.529-21.71-7.194-31.591-.622.907 5.798 4.937 8.456 7.304 12.759 10.346-5.193 19.692 2.966 31.596 1.227 4.007-.605 8.183-3.169 12.765-3.652 11.48-1.215 23.239 3.745 33.399 2.425 11.195-1.442 19.209-4.856 26.147 1.227 2.582-3.681 6.17-6.38 6.665-12.155-9.763-6.606-21.656-3.884-30.978-2.424m104.495 43.716c-1.756-15.714-2.751-29.096-5.455-44.321-.14-.489-.512-.715-1.215-.611 2.721 14.476 2.721 31.713 6.67 44.932m4.257 9.724c4.594.314 8.584 1.163 13.388 1.245.017-3.076-2.105-3.984-3.047-6.083h-11.556c-.501 2.535 1.198 2.872 1.215 4.838m-290.421 2.442c4.676.029 8.311-1.012 12.754-1.198v-4.251c-5.868.175-11.876.244-12.754 5.449m72.294 3.67c-2.099.43-4.571-1.873-6.072 0 2.228.203 4.845 2.21 6.072 0m-79.788 52.221v-4.734h12.224v11.189c-1.186 1.151-2.908 2.163-5.164 3.036-2.251.867-4.542 1.314-6.845 1.314-2.943 0-5.496-.622-7.682-1.849-2.181-1.233-3.827-2.995-4.92-5.286-1.099-2.291-1.646-4.792-1.646-7.479 0-2.925.605-5.525 1.838-7.799 1.221-2.274 3.018-4.013 5.379-5.228 1.803-.93 4.042-1.402 6.717-1.402 3.489 0 6.211.739 8.171 2.198 1.96 1.459 3.222 3.484 3.786 6.06l-5.635 1.053c-.395-1.378-1.14-2.466-2.222-3.268-1.099-.791-2.46-1.192-4.1-1.192-2.472 0-4.437.791-5.903 2.355-1.466 1.57-2.198 3.896-2.198 6.985 0 3.338.739 5.845 2.227 7.502 1.483 1.669 3.42 2.501 5.821 2.501 1.186 0 2.373-.238 3.571-.692 1.192-.477 2.216-1.041 3.071-1.704v-3.559l-6.49-.001zm16.297-3.55c0-2.856.43-5.257 1.285-7.194a13.3 13.3 0 012.611-3.85c1.105-1.134 2.315-1.983 3.635-2.524 1.745-.739 3.763-1.117 6.048-1.117 4.135 0 7.444 1.285 9.933 3.856 2.483 2.565 3.722 6.13 3.722 10.695 0 4.542-1.233 8.084-3.699 10.643-2.454 2.565-5.752 3.844-9.881 3.844-4.17 0-7.491-1.279-9.951-3.821-2.464-2.541-3.703-6.06-3.703-10.532m5.845-.186c0 3.181.733 5.589 2.204 7.229 1.466 1.646 3.327 2.46 5.589 2.46s4.112-.814 5.566-2.437c1.448-1.628 2.175-4.071 2.175-7.328 0-3.216-.704-5.618-2.123-7.2-1.407-1.588-3.28-2.379-5.618-2.379s-4.216.808-5.647 2.414c-1.425 1.594-2.146 4.019-2.146 7.241m32.977 14.056l-10.032-28.072h6.141l7.107 20.773 6.874-20.773h6.013l-10.055 28.072zm18.999 0v-28.072h20.82v4.751h-15.15v6.217h14.097v4.734h-14.097v7.642h15.685v4.728zm26.181.002v-28.072h11.928c3.001 0 5.182.25 6.548.756 1.361.5 2.443 1.402 3.257 2.681.826 1.297 1.233 2.768 1.233 4.426 0 2.111-.622 3.85-1.861 5.222-1.245 1.372-3.094 2.239-5.554 2.594 1.227.721 2.239 1.506 3.036 2.355.797.861 1.873 2.373 3.228 4.559l3.425 5.478h-6.781l-4.094-6.112c-1.454-2.181-2.448-3.553-2.989-4.129-.541-.564-1.105-.96-1.704-1.157-.605-.215-1.547-.326-2.855-.326h-1.146v11.724l-5.671.001zm5.67-16.202h4.193c2.722 0 4.42-.116 5.089-.343.686-.233 1.21-.628 1.593-1.186.384-.564.576-1.262.576-2.111 0-.948-.256-1.704-.756-2.28-.506-.587-1.221-.96-2.128-1.105-.465-.07-1.849-.099-4.147-.099h-4.42v7.124zm22.694 16.2v-28.072h5.519l11.492 18.749v-18.749h5.263v28.072h-5.688l-11.317-18.302v18.302zm28.192 0v-28.072h8.479l5.1 19.151 5.042-19.151h8.497v28.072h-5.269v-22.094l-5.572 22.094h-5.455l-5.554-22.094v22.094zm32.748 0v-28.072h20.82v4.751h-15.149v6.217h14.097v4.734h-14.097v7.642h15.684v4.728zm26.217 0v-28.072h5.519l11.492 18.749v-18.749h5.268v28.072h-5.693l-11.317-18.302v18.302zm34.593 0v-23.321h-8.328v-4.751h22.309v4.751h-8.311v23.321zm27.388-13.87c0-2.856.43-5.257 1.285-7.194a13.066 13.066 0 012.611-3.85c1.105-1.134 2.315-1.983 3.629-2.524 1.751-.739 3.769-1.117 6.054-1.117 4.135 0 7.444 1.285 9.933 3.856 2.477 2.565 3.722 6.13 3.722 10.695 0 4.542-1.233 8.084-3.699 10.643-2.466 2.565-5.758 3.844-9.881 3.844-4.17 0-7.491-1.279-9.956-3.821-2.465-2.541-3.698-6.06-3.698-10.532m5.845-.186c0 3.181.733 5.589 2.204 7.229 1.466 1.646 3.327 2.46 5.589 2.46 2.256 0 4.112-.814 5.566-2.437 1.448-1.628 2.175-4.071 2.175-7.328 0-3.216-.715-5.618-2.123-7.2-1.407-1.588-3.28-2.379-5.618-2.379s-4.222.808-5.653 2.414c-1.431 1.594-2.14 4.019-2.14 7.241m25.85 14.056v-28.072h19.249v4.751h-13.579v6.641h11.718v4.758h-11.718v11.922zM28.049 435.113l-6.705-28.078h5.81l4.222 19.291 5.135-19.291h6.746l4.914 19.616 4.31-19.616h5.716l-6.827 28.078h-6.008l-5.594-20.995-5.572 20.995zm33.033 0v-28.078h20.82v4.751h-15.15v6.223h14.097v4.728H66.752v7.648h15.685v4.728zm24.724-9.139l5.519-.535c.331 1.855 1.006 3.21 2.018 4.083 1.012.861 2.384 1.303 4.106 1.303 1.832 0 3.204-.384 4.129-1.163.925-.773 1.39-1.675 1.39-2.704 0-.663-.192-1.233-.582-1.698s-1.07-.867-2.041-1.215c-.663-.227-2.175-.64-4.536-1.227-3.042-.756-5.176-1.675-6.397-2.774-1.727-1.547-2.588-3.431-2.588-5.653 0-1.431.407-2.768 1.215-4.007.814-1.25 1.977-2.198 3.507-2.85 1.524-.646 3.367-.977 5.525-.977 3.518 0 6.17.779 7.956 2.315 1.78 1.553 2.716 3.617 2.809 6.194l-5.676.244c-.238-1.442-.762-2.477-1.553-3.106-.803-.634-1.995-.954-3.594-.954-1.646 0-2.943.337-3.873 1.024-.599.43-.896 1.012-.896 1.739 0 .657.279 1.227.843 1.698.71.605 2.448 1.227 5.205 1.873 2.762.663 4.798 1.332 6.124 2.024 1.32.704 2.35 1.646 3.106 2.861.744 1.198 1.117 2.698 1.117 4.466 0 1.611-.448 3.117-1.338 4.519-.901 1.407-2.163 2.454-3.792 3.135-1.64.68-3.675 1.024-6.112 1.024-3.553 0-6.281-.82-8.177-2.46-1.908-1.648-3.042-4.038-3.414-7.179m33.917 9.139v-23.327h-8.328v-4.751h22.314v4.751h-8.316v23.327zm17.645 0v-28.078h20.814v4.751h-15.15v6.223h14.098v4.728h-14.098v7.648h15.691v4.728zm26.18.002v-28.078h11.928c3.007 0 5.182.256 6.543.756 1.361.506 2.448 1.402 3.263 2.693.82 1.285 1.227 2.762 1.227 4.42 0 2.111-.616 3.85-1.855 5.222-1.239 1.367-3.094 2.239-5.56 2.594 1.233.715 2.239 1.5 3.042 2.355.791.855 1.873 2.373 3.222 4.559l3.425 5.478h-6.775l-4.1-6.112c-1.448-2.181-2.448-3.553-2.989-4.129-.535-.564-1.099-.954-1.698-1.163-.605-.215-1.553-.32-2.855-.32h-1.151v11.724h-5.667v.001zm5.665-16.208h4.199c2.716 0 4.414-.11 5.089-.337a3.09 3.09 0 001.599-1.186c.378-.564.57-1.268.57-2.111 0-.942-.256-1.704-.762-2.286-.5-.582-1.215-.954-2.129-1.105-.465-.064-1.849-.099-4.141-.099h-4.426l.001 7.124zm22.693 16.206v-28.078h5.519l11.492 18.75v-18.75h5.269v28.078h-5.693L197.175 416.8v18.313zm63.031 0h-6.165l-2.454-6.374H235.1l-2.32 6.374h-6.013l10.933-28.078h5.996l11.241 28.078zm-10.433-11.108l-3.867-10.422-3.798 10.422h7.665zm13.405-16.968h5.67v15.202c0 2.414.07 3.978.209 4.693.238 1.151.82 2.076 1.733 2.774.907.692 2.158 1.041 3.745 1.041 1.611 0 2.821-.326 3.635-.983.82-.663 1.314-1.471 1.477-2.425.169-.96.25-2.553.25-4.769v-15.534h5.67v14.743c0 3.373-.151 5.758-.465 7.147-.302 1.39-.867 2.565-1.692 3.524-.82.954-1.925 1.727-3.303 2.291-1.378.564-3.181.849-5.397.849-2.687 0-4.716-.308-6.106-.93-1.378-.622-2.477-1.425-3.28-2.414-.808-.983-1.338-2.024-1.588-3.111-.372-1.611-.558-3.984-.558-7.13v-14.968zm26.927 18.937l5.519-.535c.331 1.855 1 3.21 2.018 4.083 1.012.861 2.384 1.303 4.106 1.303 1.832 0 3.204-.384 4.129-1.163.925-.773 1.39-1.675 1.39-2.704 0-.663-.192-1.233-.587-1.698-.384-.465-1.064-.867-2.035-1.215-.663-.227-2.175-.64-4.536-1.227-3.042-.756-5.176-1.675-6.397-2.774-1.727-1.547-2.588-3.431-2.588-5.653 0-1.431.407-2.768 1.215-4.007.803-1.25 1.977-2.198 3.507-2.85 1.524-.646 3.361-.977 5.525-.977 3.518 0 6.176.779 7.956 2.315 1.78 1.553 2.716 3.617 2.803 6.194l-5.67.244c-.238-1.442-.762-2.477-1.553-3.106-.803-.634-1.995-.954-3.594-.954-1.646 0-2.943.337-3.873 1.024-.599.43-.896 1.012-.896 1.739 0 .657.279 1.227.843 1.698.709.605 2.448 1.227 5.205 1.873 2.762.663 4.798 1.332 6.118 2.024 1.326.704 2.355 1.646 3.111 2.861.739 1.198 1.117 2.698 1.117 4.466 0 1.611-.448 3.117-1.349 4.519-.89 1.407-2.152 2.454-3.78 3.135-1.64.68-3.675 1.024-6.112 1.024-3.553 0-6.281-.82-8.177-2.46-1.909-1.648-3.043-4.038-3.415-7.179m33.917 9.139v-23.327h-8.328v-4.751h22.315v4.751h-8.317v23.327zm17.659.002v-28.078h11.934c2.995 0 5.182.256 6.543.756 1.361.506 2.448 1.402 3.263 2.693.82 1.285 1.227 2.762 1.227 4.42 0 2.111-.616 3.85-1.861 5.222-1.233 1.367-3.088 2.239-5.554 2.594 1.227.715 2.239 1.5 3.042 2.355.791.855 1.873 2.373 3.222 4.559l3.425 5.478h-6.775l-4.1-6.112c-1.454-2.181-2.454-3.553-2.989-4.129-.535-.564-1.099-.954-1.698-1.163-.605-.215-1.553-.32-2.855-.32h-1.151v11.724h-5.673v.001zm5.67-16.208h4.199c2.716 0 4.414-.11 5.089-.337a3.02 3.02 0 001.588-1.186c.384-.564.576-1.268.576-2.111 0-.942-.25-1.704-.756-2.286-.5-.582-1.215-.954-2.129-1.105-.465-.064-1.849-.099-4.141-.099h-4.426v7.124zm47.955 16.206h-6.165l-2.454-6.374H370.2l-2.32 6.374h-6.013l10.933-28.078h5.996l11.241 28.078zm-10.433-11.108l-3.867-10.422-3.798 10.422h7.665zm13.598 11.108v-27.845h5.67v23.117h14.097v4.728zm23.633-28.074h5.67v28.078h-5.67zm36.387 28.074h-6.165l-2.454-6.374h-11.218l-2.32 6.374h-6.013l10.933-28.078h5.996l11.241 28.078zm-10.433-11.108l-3.867-10.422-3.798 10.422h7.665zm47.604-307.883V56.797h20.436c4.612 0 8.13.285 10.561.849 3.396.785 6.298 2.198 8.7 4.251 3.129 2.64 5.467 6.019 7.014 10.137 1.559 4.112 2.332 8.811 2.332 14.103 0 4.501-.529 8.497-1.576 11.974-1.058 3.484-2.402 6.362-4.048 8.642s-3.449 4.071-5.403 5.379c-1.96 1.309-4.315 2.303-7.083 2.978-2.762.675-5.938 1.012-9.532 1.012h-21.401zm7.846-7.002h12.666c3.914 0 6.985-.366 9.206-1.093 2.227-.727 4.007-1.751 5.327-3.076 1.855-1.861 3.303-4.362 4.35-7.508 1.035-3.14 1.553-6.95 1.553-11.428 0-6.205-1.018-10.974-3.053-14.306-2.036-3.332-4.513-5.566-7.427-6.694-2.105-.814-5.49-1.215-10.154-1.215h-12.469v45.32h.001zm80.488-6.838l7.525.931c-1.181 4.397-3.385 7.81-6.601 10.236-3.199 2.431-7.304 3.646-12.294 3.646-6.287 0-11.277-1.937-14.952-5.81-3.681-3.873-5.531-9.299-5.531-16.29 0-7.229 1.867-12.841 5.589-16.83 3.722-3.995 8.549-5.99 14.493-5.99 5.746 0 10.433 1.954 14.08 5.868 3.641 3.908 5.461 9.416 5.461 16.511 0 .43-.012 1.076-.041 1.942h-32.05c.268 4.716 1.611 8.334 4.007 10.846 2.402 2.507 5.391 3.763 8.985 3.763 2.669 0 4.949-.704 6.833-2.105 1.897-1.402 3.386-3.641 4.496-6.718m-23.914-11.776h23.99c-.32-3.617-1.233-6.327-2.745-8.136-2.32-2.803-5.327-4.205-9.026-4.205-3.344 0-6.153 1.117-8.433 3.356-2.279 2.239-3.541 5.234-3.786 8.985m40.589 42.085V73.144h6.636v5.589c1.559-2.187 3.327-3.827 5.298-4.92 1.966-1.093 4.356-1.64 7.159-1.64 3.675 0 6.909.948 9.718 2.832 2.803 1.89 4.926 4.554 6.356 7.996 1.431 3.437 2.14 7.206 2.14 11.306 0 4.402-.785 8.357-2.367 11.881-1.576 3.518-3.867 6.217-6.88 8.09-3.007 1.878-6.17 2.815-9.491 2.815-2.425 0-4.606-.512-6.531-1.535-1.931-1.029-3.518-2.32-4.757-3.885v20.919l-7.281-.001zm6.595-37.715c0 5.531 1.117 9.619 3.356 12.259 2.239 2.646 4.955 3.966 8.136 3.966 3.239 0 6.008-1.367 8.316-4.106 2.303-2.739 3.46-6.979 3.46-12.725 0-5.478-1.128-9.578-3.379-12.306-2.256-2.722-4.943-4.088-8.072-4.088-3.1 0-5.851 1.454-8.241 4.356-2.383 2.897-3.576 7.114-3.576 12.644m67.538 15.943c-2.698 2.291-5.292 3.914-7.793 4.856-2.495.942-5.17 1.419-8.031 1.419-4.716 0-8.351-1.157-10.887-3.46-2.53-2.309-3.803-5.257-3.803-8.846 0-2.099.483-4.024 1.437-5.763.96-1.739 2.21-3.135 3.763-4.187s3.303-1.849 5.246-2.39c1.425-.378 3.582-.739 6.467-1.093 5.885-.698 10.218-1.535 12.992-2.507.029-1 .041-1.634.041-1.902 0-2.972-.68-5.06-2.065-6.275-1.855-1.646-4.629-2.466-8.293-2.466-3.425 0-5.955.599-7.589 1.803-1.628 1.198-2.838 3.321-3.617 6.368l-7.124-.971c.651-3.047 1.716-5.507 3.199-7.38 1.477-1.878 3.623-3.321 6.432-4.333s6.054-1.518 9.747-1.518c3.675 0 6.653.43 8.944 1.297 2.297.861 3.978 1.948 5.065 3.257 1.076 1.309 1.826 2.96 2.262 4.955.244 1.245.366 3.484.366 6.717v9.712c0 6.775.151 11.055.465 12.853a16.132 16.132 0 001.844 5.158h-7.613c-.75-1.513-1.245-3.28-1.455-5.304m-.61-16.267c-2.646 1.076-6.607 1.995-11.893 2.751-2.995.43-5.118.919-6.351 1.46-1.245.535-2.204 1.326-2.873 2.367-.68 1.035-1.018 2.193-1.018 3.46 0 1.942.739 3.559 2.21 4.856 1.466 1.291 3.617 1.942 6.45 1.942 2.803 0 5.304-.616 7.485-1.844 2.187-1.227 3.792-2.908 4.815-5.036.791-1.646 1.175-4.077 1.175-7.287v-2.669zm18.578 21.568V73.148h6.554v6.514c1.669-3.047 3.216-5.06 4.635-6.031a8.057 8.057 0 014.67-1.454c2.454 0 4.949.779 7.491 2.344l-2.512 6.758c-1.785-1.053-3.559-1.576-5.339-1.576a6.93 6.93 0 00-4.292 1.436c-1.268.954-2.175 2.286-2.71 3.984-.808 2.588-1.215 5.42-1.215 8.497v22.501h-7.282v-.001zm43.578-6.514l1.058 6.432c-2.053.43-3.891.651-5.507.651-2.646 0-4.693-.419-6.153-1.256-1.454-.837-2.477-1.937-3.071-3.297-.593-1.361-.89-4.228-.89-8.601V78.813h-5.35v-5.664h5.35V62.506l7.24-4.373v15.016h7.322v5.664h-7.322v25.129c0 2.076.128 3.414.384 4.007.25.593.675 1.064 1.256 1.413.576.355 1.407.529 2.483.529.809 0 1.879-.099 3.2-.285m7.127 6.514V73.148h6.513v6.025c1.343-2.105 3.14-3.798 5.379-5.077s4.786-1.919 7.647-1.919c3.181 0 5.792.657 7.828 1.983 2.041 1.32 3.478 3.17 4.309 5.542 3.396-5.019 7.828-7.525 13.277-7.525 4.257 0 7.537 1.175 9.834 3.536 2.291 2.361 3.437 5.996 3.437 10.91v29.497h-7.246V89.048c0-2.914-.233-5.013-.704-6.293-.477-1.279-1.332-2.315-2.57-3.094-1.239-.785-2.698-1.175-4.367-1.175-3.024 0-5.536 1.006-7.531 3.012-1.995 2.012-2.995 5.228-2.995 9.654v24.966h-7.281V88.197c0-3.239-.593-5.664-1.78-7.287-1.186-1.617-3.129-2.425-5.827-2.425-2.053 0-3.943.541-5.688 1.617-1.739 1.082-3.001 2.658-3.78 4.734-.785 2.082-1.175 5.071-1.175 8.985v22.297h-7.28v.002zm98.446-13.838l7.531.931c-1.186 4.397-3.385 7.81-6.595 10.236-3.21 2.431-7.31 3.646-12.3 3.646-6.287 0-11.271-1.937-14.952-5.81s-5.525-9.299-5.525-16.29c0-7.229 1.861-12.841 5.583-16.83 3.722-3.995 8.555-5.99 14.487-5.99 5.746 0 10.439 1.954 14.08 5.868 3.646 3.908 5.461 9.416 5.461 16.511 0 .43-.012 1.076-.035 1.942h-32.05c.267 4.716 1.605 8.334 4.007 10.846 2.402 2.507 5.391 3.763 8.985 3.763 2.664 0 4.949-.704 6.839-2.105 1.885-1.402 3.379-3.641 4.484-6.718M812.74 90.506h24.001c-.326-3.617-1.245-6.327-2.751-8.136-2.32-2.803-5.333-4.205-9.026-4.205-3.344 0-6.159 1.117-8.438 3.356-2.28 2.239-3.536 5.234-3.786 8.985m40.588 25.614V73.148h6.56v6.106c3.158-4.722 7.717-7.078 13.673-7.078 2.594 0 4.978.459 7.142 1.396 2.175.93 3.803 2.146 4.879 3.658 1.082 1.512 1.838 3.309 2.262 5.385.279 1.349.407 3.71.407 7.078v26.426h-7.281V89.978c0-2.966-.285-5.188-.855-6.659-.564-1.466-1.564-2.64-3.007-3.518-1.442-.878-3.135-1.314-5.083-1.314-3.106 0-5.775.983-8.031 2.954-2.256 1.972-3.379 5.705-3.379 11.207v23.472h-7.287zm61.998-6.514l1.047 6.432c-2.047.43-3.879.651-5.502.651-2.64 0-4.687-.419-6.147-1.256-1.454-.837-2.483-1.937-3.076-3.297-.599-1.361-.89-4.228-.89-8.601V78.813h-5.345v-5.664h5.345V62.506l7.24-4.373v15.016h7.328v5.664h-7.328v25.129c0 2.076.134 3.414.39 4.007.25.593.675 1.064 1.256 1.413.576.355 1.407.529 2.483.529.808 0 1.873-.099 3.199-.285m27.44-14.973c0-7.956 2.21-13.853 6.63-17.685 3.699-3.181 8.206-4.775 13.521-4.775 5.903 0 10.73 1.937 14.481 5.81 3.751 3.867 5.629 9.218 5.629 16.045 0 5.531-.832 9.881-2.495 13.05-1.657 3.169-4.071 5.629-7.235 7.38-3.175 1.756-6.636 2.635-10.381 2.635-6.025 0-10.887-1.931-14.591-5.787-3.71-3.861-5.559-9.415-5.559-16.673m7.484 0c0 5.502 1.192 9.625 3.6 12.364 2.402 2.739 5.42 4.106 9.067 4.106 3.612 0 6.624-1.378 9.02-4.129 2.402-2.751 3.606-6.944 3.606-12.585 0-5.315-1.21-9.34-3.629-12.079-2.408-2.739-5.414-4.106-8.997-4.106-3.646 0-6.665 1.361-9.067 4.088-2.407 2.722-3.6 6.84-3.6 12.341m43.053 21.487V78.813h-6.438v-5.664h6.438v-4.577c0-2.885.256-5.031.768-6.432.704-1.89 1.942-3.42 3.699-4.594 1.768-1.175 4.251-1.762 7.432-1.762 2.053 0 4.315.244 6.799.733l-1.093 6.351a24.717 24.717 0 00-4.286-.401c-2.222 0-3.78.471-4.699 1.413-.919.942-1.373 2.71-1.373 5.304v3.966h8.375v5.664h-8.375v37.307h-7.247v-.001zm-503.276 99.449v-59.325h43.983v10.038h-32.009v13.149h29.788v9.997h-29.788v16.144h33.143v9.997zm94.608.002h-10.561v-6.316c-1.75 2.454-3.827 4.286-6.211 5.484-2.384 1.204-4.798 1.803-7.223 1.803-4.937 0-9.171-1.989-12.684-5.973-3.524-3.978-5.281-9.526-5.281-16.65 0-7.281 1.71-12.818 5.135-16.609 3.425-3.792 7.758-5.688 12.992-5.688 4.798 0 8.956 1.995 12.463 5.99v-21.366h11.37v59.325zm-30.346-22.419c0 4.589.628 7.903 1.902 9.956 1.832 2.966 4.397 4.449 7.682 4.449 2.617 0 4.844-1.111 6.682-3.338 1.838-2.227 2.745-5.548 2.745-9.974 0-4.937-.884-8.491-2.664-10.666-1.785-2.169-4.059-3.257-6.839-3.257-2.698 0-4.955 1.076-6.781 3.216-1.82 2.146-2.727 5.351-2.727 9.614m69.842 22.417v-6.432c-1.57 2.291-3.617 4.1-6.176 5.42-2.547 1.32-5.24 1.983-8.072 1.983-2.885 0-5.478-.634-7.77-1.902-2.291-1.268-3.949-3.047-4.972-5.345-1.029-2.291-1.541-5.461-1.541-9.509v-27.188h11.37v19.744c0 6.042.215 9.747.628 11.108.425 1.361 1.181 2.443 2.286 3.239 1.105.797 2.512 1.192 4.216 1.192 1.937 0 3.681-.535 5.217-1.599 1.535-1.064 2.594-2.384 3.158-3.966.564-1.576.849-5.443.849-11.591v-18.127h11.37v42.972h-10.563v.001zm59.809-30.268l-11.207 2.024c-.384-2.239-1.239-3.926-2.57-5.06-1.332-1.134-3.065-1.698-5.199-1.698-2.832 0-5.095.977-6.775 2.931-1.692 1.96-2.536 5.228-2.536 9.817 0 5.1.855 8.7 2.571 10.805 1.71 2.099 4.019 3.152 6.897 3.152 2.163 0 3.931-.611 5.304-1.838 1.372-1.227 2.35-3.338 2.914-6.333l11.166 1.902c-1.157 5.124-3.379 8.997-6.676 11.614-3.286 2.617-7.7 3.926-13.231 3.926-6.287 0-11.3-1.983-15.028-5.949-3.745-3.966-5.612-9.456-5.612-16.47 0-7.095 1.878-12.62 5.624-16.569 3.751-3.955 8.828-5.932 15.22-5.932 5.228 0 9.392 1.128 12.48 3.379 3.086 2.256 5.309 5.687 6.658 10.299m17.12.402l-10.323-1.861c1.157-4.152 3.152-7.229 5.99-9.224 2.832-1.995 7.037-2.995 12.626-2.995 5.071 0 8.846.599 11.329 1.803 2.483 1.198 4.234 2.722 5.24 4.571 1.012 1.849 1.518 5.24 1.518 10.177l-.122 13.271c0 3.78.186 6.566.547 8.357.366 1.791 1.047 3.716 2.041 5.769h-11.247c-.297-.756-.657-1.878-1.093-3.361a22.925 22.925 0 00-.401-1.332c-1.948 1.884-4.019 3.303-6.234 4.245-2.21.942-4.571 1.419-7.078 1.419-4.432 0-7.915-1.204-10.468-3.606-2.547-2.402-3.815-5.432-3.815-9.101 0-2.431.57-4.594 1.733-6.496 1.157-1.902 2.792-3.361 4.879-4.373 2.088-1.006 5.106-1.89 9.043-2.646 5.315-1 8.997-1.931 11.05-2.792v-1.134c0-2.187-.541-3.745-1.623-4.676-1.076-.931-3.117-1.396-6.112-1.396-2.018 0-3.6.395-4.728 1.192-1.135.798-2.054 2.194-2.752 4.189m15.214 9.229c-1.46.483-3.763 1.064-6.921 1.739-3.158.675-5.222 1.338-6.194 1.983-1.483 1.053-2.227 2.39-2.227 4.007 0 1.593.599 2.966 1.785 4.129 1.186 1.157 2.693 1.739 4.53 1.739 2.053 0 4.007-.675 5.868-2.024 1.378-1.024 2.28-2.28 2.71-3.763.297-.971.448-2.821.448-5.542l.001-2.268zm42.08-22.337v9.067h-7.77v17.319c0 3.507.076 5.548.227 6.13.145.582.483 1.058 1.012 1.436.523.378 1.163.564 1.925.564 1.047 0 2.571-.361 4.571-1.093l.965 8.822c-2.646 1.134-5.635 1.704-8.985 1.704-2.047 0-3.891-.349-5.536-1.035-1.652-.686-2.855-1.576-3.629-2.669-.762-1.093-1.297-2.571-1.593-4.432-.238-1.32-.366-3.995-.366-8.014v-18.732h-5.222v-9.067h5.222v-8.537l11.41-6.636v15.173h7.769zm7.896-16.349h11.375v10.52H766.25v-10.52zm0 16.347h11.375v42.972H766.25v-42.972zm20.388 20.884c0-3.78.936-7.432 2.791-10.968 1.867-3.536 4.501-6.234 7.915-8.095s7.223-2.792 11.428-2.792c6.508 0 11.835 2.111 15.993 6.333 4.147 4.222 6.229 9.555 6.229 16.005 0 6.502-2.099 11.893-6.293 16.167-4.199 4.274-9.474 6.415-15.842 6.415-3.937 0-7.694-.89-11.271-2.669-3.577-1.785-6.293-4.391-8.159-7.834-1.853-3.437-2.791-7.625-2.791-12.562m11.661.605c0 4.263 1.006 7.525 3.03 9.794 2.024 2.268 4.519 3.396 7.491 3.396 2.966 0 5.455-1.128 7.461-3.396 2.012-2.268 3.018-5.56 3.018-9.875 0-4.211-1.006-7.444-3.018-9.712-2.006-2.268-4.496-3.396-7.461-3.396-2.972 0-5.467 1.128-7.491 3.396-2.024 2.267-3.03 5.53-3.03 9.793m80.685 21.487h-11.37v-21.931c0-4.641-.238-7.642-.733-9.003-.483-1.367-1.268-2.425-2.361-3.181s-2.408-1.134-3.949-1.134c-1.966 0-3.734.541-5.298 1.623-1.564 1.076-2.635 2.507-3.216 4.286-.582 1.785-.872 5.071-.872 9.875v19.465H839.81v-42.972h10.567v6.31c3.751-4.856 8.468-7.281 14.161-7.281 2.512 0 4.804.448 6.886 1.355 2.07.901 3.646 2.053 4.711 3.454a12.583 12.583 0 012.222 4.78c.419 1.78.628 4.327.628 7.648l-.001 26.706z"/></g></svg>