<svg version="1.1" id="Layer_1" xmlns="http://www.w3.org/2000/svg" x="0" y="0" viewBox="0 0 295.732 131.098" xml:space="preserve"><style>.st0{fill-rule:evenodd;clip-rule:evenodd;fill:#231f20}</style><path class="st0" d="M82.404 16.384v-.353c.968-.666.715 1.063 0 .353m-9.339 13.742c.083.552-.376.56-.884.53-.007-.53.521-.896.884-.53m-10.396.707c-.525-.002-1.078.012-1.058-.533.463-.184 1.151-.279 1.058.533m3.171-.707c-.022.315.218.376.179.707-.251.226-.948-.094-1.058-.533.419.073.383-.314.879-.174m3.878.531c-.285.285-1.108.207-1.058-.356.418-.122 1.115-.402 1.058.356m7.046-.357c-.015.45-.253.685-.702.708-.118-.179-.406-.179-.354-.528.211-.205.619-.2 1.056-.18m-.877 2.293c.638.121.651.874.703 1.587-1.216-.363-2.102.742-2.466-.705.565.159.553-.273.707-.53.53-.01.681.374 1.056.53.514-.153-.231-.442 0-.882m-8.286.352c.41.179.573.609.533 1.235-1.02-.116-1.272-.116-2.294 0-.155-.309-.489-.449-.354-1.056.254.271 2.218.87 2.115-.179m19.033 58.68c-4.809 1.886-8.313 5.077-14.453 5.637 2.495-1.975 5.36-3.571 7.757-5.637h6.696z"/><path class="st0" d="M91.217 19.728c-.811.4.523 1.074.353 1.94-.514.044-.538-.401-1.064-.356-.272-.821.157-.582.182-1.408-1.138-.268-2.043-.776-1.938-2.289-1.359.346-1.312 2.098-2.115 3.001 1.432-.912 3.672.386 4.23 1.933 1.761-.046 2.118.833 3.697.177-.536 1.639-.953 3.395-2.115 4.409-.12.88.3 1.223.179 2.11-.363-.044-.353-.469-.528-.7-.538.283.584.845 0 1.226-.572-.135-.423-.99-.707-1.407-.492.508.435 1.085.179 1.938-.697-.653-.762-1.945-.705-3.345-.956.177.376 1.761-.707 1.587-.121-.713.172-1.009.174-1.587-.923-.165-.258 1.265-.703 1.587-.592-2.112-.953-4.449-1.935-6.173-.96-.019-1.558.329-1.413 1.41-2.54 1.747-3.835 4.739-5.635 7.227 1.675.432 2.891 2.96 1.235 4.23-5.117.499-8.533-.243-13.046.347-2.255-.002-4.822-.579-7.575-.347-2.432.197-4.292.374-4.583-1.589-.211-1.457.719-1.921 1.587-2.641-1.744-2.542-3.119-5.456-5.465-7.401.536-1.776-1.574-2.591-2.113-1.236.351 2.078-.013 4.743-1.935 5.112-.211 1.144-.395 2.306-1.235 2.818.071-.987.938-1.172.702-2.471-.998-.29-.575.833-1.056 1.066-.526-.121.167-.381 0-.708-.44-.029-.432.393-.707.53.422-1.727-1.284-3.866-1.761-5.814.737-.189 1.194.368 1.582 0 .391-.02.079-.751.179-1.059.285-.25.914-.145 1.061-.533.455.152-.342.776.175 1.059 1.284-1.079 2.99-3.415 5.107-1.582-.708-1.226-1.707-2.167-2.113-3.7-.26 1.678-1.483 2.388-1.935 3.874-.602-.44.479-.676.179-1.408-.444.805-1.047.353-1.059 1.582-.238-.052-.153-.44-.179-.703-.231.359-.191.983-1.056.703.81-1.911-1.273-3.383-1.589-5.284.98-.152 1 .644 1.763.703.53-.523.754-1.354 1.061-2.112 2.715-.993 3.453 1.302 4.048 2.992.41-.354.066-1.459.182-2.11-.403-.309-.639-.772-1.061-1.061-.388-2.549-2.663-3.205-3.348-5.466 2.329-1.117 3.819 1.412 3.704 3.884.157.312.39.545.705.703.403.057.196-.508.525-.526-.101-.659-.415-1.12-.707-1.59.519-2.984-1.548-3.378-2.112-5.286 1.015-.081 1.845.12 2.294.705.825 1.091.164 3.228 1.23 3.881.366-.106-.251-.671-.179-1.059 1.12-1.889-.501-3.275-.702-4.935 2.53-.147 1.602 2.726 1.94 4.405 1.57-1.28.579-3.768-.179-5.109 2.009-.756 1.795 2.527 1.763 3.874 1.768-.617.317-2.717.882-4.227 1.678.26.987 1.736.88 3.169 1.363-.047 1.004-1.813 1.059-3.169 2.027-.035.211 1.951.703 2.82 1.152-.317.594-2.348 2.113-2.292.452.857-.538 1.187-.703 1.936.236.585 1.344.304 1.228 1.235-1.102.589-1.765.282-2.991.528-10.15 2.073-5.235 17.98.179 22.024.835-2.559-1.449-4.837-2.29-6.866-1.027.118-1.407.111-2.118-.356.159-1.277-.153-2.076-.703-2.645-.363-3.269 1.471-5.003 2.992-6.868 1.936-.371 2.761-1.004 4.76-1.058 1.57.845 3.938.882 5.116 2.113.715-.457 1.154-1.191 1.233-2.292-.423-.401-.648.39-1.412.179V9.51c.737-.152.833.342 1.412.349.121-.889-.486-1.039-.531-1.757h3.348c.1.624-.201.85-.353 1.231.405.492.933-.238 1.407.177-.223.717-.086 1.786-.347 2.468-.737.148-.833-.347-1.408-.356-.428 1.093.678 1.815 1.052 2.643 2.093-1.189 4.527-2.183 7.578-1.931 2 .464 3.178 1.754 4.76 2.64.641 2.668 1.036 5.023 0 7.575-.589.056-.783.514-1.589.356-1.145 2.144-3.323 4.193-2.82 7.398 4.087-3.964 9.206-14.858 3.702-20.621-1.631-1.709-4.451-1.776-7.047-2.815.138-.567.904-.501 1.235-.882.015-.815-.933-1.606-.177-2.112 1.344.061.201 2.619 1.589 2.638.96-.487-1.022-2.79.875-2.815.395.961-.034 2.742.884 3.171 1.38-.471-.57-2.388.351-3.527.499-.143.455.251.882.18-.18 1.629-.734 3.343.526 4.227.427-1.386-.216-3.857 1.941-3.525.179 1.41-.803 1.671-1.059 2.645.373.862.326 2.144 1.238 2.468 0-1.579-.487-4.223 1.933-4.232-.118 1.462-1.682 3.802-1.052 5.994 1.015-.04.56-1.01.698-1.585.538-2.127 1.506-4.379 3.702-3.527-1.191 1.805-3.021 2.974-2.994 5.994-.553.098-.636.656-.708 1.231a.944.944 0 00.535.531c.977-2.096 2.299-5.664 5.288-4.586-1.653 1.579-3.871 2.601-4.055 5.642-.611.039-.579.713-1.059.884v1.935c1.022-1.356 2.159-4.522 4.756-2.641.277.546.528 1.122.882 1.582.474-.115.934-.769 1.408-.349-.595 1.322-.585 4.056-2.112 3.874-.073.428.322.381.179.882-.428-.162-.471-.71-.534-1.236m-8.46-2.292c-.074.784.101 1.317.879 1.238 1.282-.481.045-2.406-.879-1.238M68.66 8.451c-.425 1.444 2.188 1.444 1.766 0-.816-.063-1.019-.218-1.766 0m1.766 2.466c.314.159.447.494 1.052.353.089-.398.349-.899 0-1.233-.677-.035-1.011.281-1.052.88m-2.999.352h.884v-.875c-.609-.628-1.509.275-.884.875m1.584 0c.659.069 1.041-.137 1.058-.7-.137-.04-.201-.152-.174-.354h-.884c-.157.513-.157.541 0 1.054m0 1.235c1.154.233 1.329-.988.179-.882-.147.202-.23.472-.179.882M58.97 13.74c.444 1.246 2.403.513 1.587-.88-.807-.444-1.556.03-1.587.88m2.289 0c.543.565 1.79.447 1.763-.531-.219-.074-.358-.233-.353-.526-.921-.093-1.568.075-1.41 1.057m15.686.703c2.317-2.592-2.891-1.297 0 0m2.815-.352c.204-1.39-.754-1.587-1.584-1.056-.415 1.341.973 1.793 1.584 1.056m-11.801-.174v.703c1.203-.032.934.622 1.584.879.233-.471.332-1.079 1.233-.879.364-1.245-1.321-.444-1.058-1.585h-.707c.265.909-.611.678-1.052.882m-4.585 0c.519-.336 1.159-.02.705.526.447-.024.68-.256.707-.703-.142-.04-.207-.152-.177-.354-.563.02-1.346-.172-1.235.531m10.575.879c.304-.01.447.135.525.351.83-.094 1.317-.921.88-1.761-1.119-.187-1.592.28-1.405 1.41m-15.154-.879c-.506-.275-1.162-.491-1.763-.177.02.506-.098 1.152.17 1.407 1.052.106 1.672-.211 1.593-1.23m21.317.174c-.116.761.307.985.533 1.408.464.207 1.036-.339 1.056 0-.086.675.046 1.128.349 1.41h1.059c.39-.241.518-1.334.179-1.763-.624-.319-1.1.243-1.408 0 .071-.604-.073-.987-.179-1.407-.609-.313-1.317-.154-1.589.352m-14.975.705c.275.273 1.027-.3 1.23.351.204-.202.204-.617.179-1.056-.645-.332-1.409-.101-1.409.705m7.222.703c.445-.688.604-.105.179.353.776.126.916-.381 1.059-.879-.132-.454-.567-.612-1.238-.53-.138.122-.388.984 0 1.056m-14.623.353c-1.091 1.157-2.209 5.338.179 5.993.288-1.23-.472-2.316-.179-3.52.813-3.321 6.389-2.822 8.809-1.236-1.133-2.856-6.387-2.929-8.809-1.237m14.623 1.236c2.462.125 6.718-2.997 8.286 0 .636 1.211-.28 3.373 1.235 4.048 2.716-6.045-6.711-8.195-9.521-4.048m-16.74-.533c1.019.611 2.014-.388 1.413-1.408-1.059-.651-2.057.352-1.413 1.408m-7.224.354c-.315-.155-.288-.651-.703-.703-.204.756-.724 1.032-1.587.703-.032 1.973 2.4 2.412 3.702 1.238-.083-.973-.159-1.962-.877-2.296-.086.454-.251.812-.535 1.058m19.564 4.402c.533-.498 1.203.073 1.936-.349.037-.329-.199-.386-.177-.703-.624-.454-.965.356-1.407 0 .196-1.44-.118-3.557-1.059-4.407h-.353c.307 1.863.778 3.565 1.06 5.459m.701-4.402c.214-.492.103-1.123-.702-1.058.149.434.156 1.016.702 1.058m1.409 0c.739.093.698-.594.88-1.058-.7-.057-.951.34-.88 1.058m.357 4.227a51.24 51.24 0 001.587-5.284c-1.445.627-2.179 3.798-1.587 5.284m20.079-4.227c-.251-.334-.385-.783-1.051-.703-.083 1.165-.379 2.161.351 2.817h2.292c.528-.353.447-1.309.708-1.935-.433-.449-.379.368-1.058.177-.189-.408-.115-1.066-.358-1.413-.727-.086-.275 1.015-.884 1.057M59.144 17.97c2.847-.236 4.107 1.005 7.401.354-1.466-1.713-6.019-2.884-7.401-.354m12.869.354c3.26.602 5.385-.302 8.099-.354-1.622-2.904-5.857-.327-8.099.354m-17.099 2.109h1.059c.105-1.351-.152-1.791.353-3.168-.373-.54-1.358-.388-1.761 0-.197.842.432.855.528 1.408-.241.408-.707.582-.528 1.407.349.042.712-.786 1.054-.177.056.471-.987-.16-.705.53m13.746-2.109c.292-.025 1.122.567 1.058-.177-.1-.372-1.14-.224-1.058.177m1.058 1.23c.081-.552-.376-.565-.884-.531-.189.713.54.873.884.531m13.392 1.235c.717-.101 1.189-.454 1.238-1.235-.771-1.053-2.336.415-1.238 1.235m-7.926-.709c-.87.371-.406 2.069-1.059 2.645-.541-.165-.712-.7-1.587-.528-.644.552-.73 2.107.179 2.469.258-1.479 4.605-1.69 4.404.349 1.02-.079.963-1.413.7-2.29-.638-.552-1.395.369-1.757 0 .255-.985.316-2.611-.88-2.645m-12.162 2.824h-1.589c-.396.589-.45 1.548.179 1.94.953-1.058 3.986-1.845 4.933-.354.533-.553.46-1.935-.179-2.292-.781-.135-1.167.121-1.58.351.059-3-3.029-2.349-1.764.355m-7.049-.356c.789.027.789-.848.528-1.412-1.388-.521-1.649 1.412-.528 1.412m26.432-.527c.639-.46.791.349 1.231 0 .15-.499-.246-.46-.174-.885-.788-.135-1.127.169-1.057.885m4.056-.177h.879c.055-.828-.815-.475-.879 0m-17.801-.177c.153.963.609 1.621.707 2.64 1.118-.261.329-1.759 1.059-2.64-.567-.033-1.299-.411-1.766 0m12.159 1.584c.651-.103.724-.798.882-1.407-.44.025-.546-.277-.882-.356-.27.324-.27 1.443 0 1.763m-32.948 0c-.312-.15-.518-.427-.884-.526-.243.228-.177.767-.177 1.238h-1.059c.337.717.337 1.776.885 2.289.911-.15 1.884-.236 2.99-.18.605-.631.553-1.914.533-3.167-.558-.083-.403.535-1.056.347.007-.531.1-1.157-.535-1.054-.104.478-.343.824-.697 1.053m9.865-.703c-.067.833.015 1.513.88 1.415.654-.115.536-.993.528-1.766-.737-.149-.831.344-1.408.351m20.794 2.118c.823.062 1.204-.322 1.582-.703.047-.987-.486-1.395-1.233-1.592-.178.705-.256 1.502-.349 2.295m10.572-1.415c.105 1.007.093 2.139.353 3.001 1.528.13 4.933-.204 3.878-2.645-.354.231-.619.56-1.059.7 0-.464.066-.998-.175-1.23-.764-.056-.435.97-1.233.885-.322-.501-.241-1.408-.882-1.592-.202.389-.145 1.569-.882.881m-18.676.886c.412-.008.518.3 1.052.17.116-.396.349-1.061 0-1.403-.728.032-1.189.332-1.052 1.233m-2.825.17c1.579.445 1.484-1.424.179-1.23-.241.231-.174.766-.179 1.23m-8.103 0c-.005.69.977 1.017 1.41.708-.172-.651-.238-1.413-.705-1.764-.128.462-.634.54-.705 1.056m3.876.536c.236.236 1.23.332 1.235-.177-.319-.329-.99-.094-1.235.177m-1.941 1.935c-.825-.29-1.393-.83-2.11-1.236-.44 1.526 1.327 2.289 3.346 1.941 1.294-2.785 4.844.548 6.165-2.115 1.172.444 3.903 1.911 5.466.351.415.059.665.278 1.23.177 1.058 2.975 4.809 1.336 4.938-1.407-1.329.435-1.036 2.486-3.348 1.941-.604-.285-.719-1.047-1.412-1.238-1.756-.132-2.812 1.02-4.23.703-.862-.189-1.196-1.69-2.468-1.23-1.421 2.715-5.533-.193-7.577 2.113m9.695 1.229c-.781.204-3.026.482-3.527-.177-.299-.568.845-.842 0-.874-.98.457-1.833-.277-2.64-.526-.508.762-1.471 0-1.587 1.052.938.229.902-.511 1.763-.349.074.329.501.315.349.874-.263.658-1.41.83-2.112.536-.162-.519-.162-.55 0-1.061-.666.627-1.751.84-3.171.705-.138 1.248 1.208 1.037 1.759 1.056 1.336.059 3.579-.288 5.465-.347 1.887-.069 3.835-.121 5.463-.179 2.009-.078 5.026 1.004 5.819-.53-1.515.159-2.125-.58-3.001-1.054.162.513.162.538 0 1.054-.644.278-1.843.258-2.112-.358 0-.46-.106-1.032.353-1.052.934-.231.894.513 1.759.356-.767-1.803-2.71-.047-4.051-.177-1.317-.137-2.478-1.805-3.346-.179 1.01.869 2.68-.974 2.817 1.23m-.702 1.942c-.413.005-.519-.304-1.059-.179-.013-.103-.025-.202-.177-.17-2.579 1.251-8.187-1.177-9.341 1.233 2.474.805 6.224.543 8.811.175 2.935.326 7.377.702 10.049-.351-.553-1.847-6.709-.919-8.283-.708m-5.817 2.118c-.123 2.635 2.786 3.427 4.758 2.464-.516-.955-.901-2.036-1.766-2.643-1.373.41-2.122-.426-2.992.179m13.211 2.638c-.111-1.235-.843-1.849-1.407-2.638-1.331.096-2.356-.12-3.523-.179.068 2.755 2.766 3.045 4.93 2.817m-20.26-1.582c.209.086.4.187.533.353.506-.531 2.058-.577 1.756.703-.771-.909-1.054-.079-2.113 0 .45.961 1.864.644 2.995.703-.206-1.137-.735-1.967-1.233-2.815-1.01-.013-1.656.336-1.938 1.056m5.462 1.056c-.047-1.007-.415-1.703-1.231-1.938.19.868.578 1.538 1.231 1.938m16.917.352c-.125-1.113-.487-1.977-1.408-2.29.158 1.071.487 1.98 1.408 2.29"/><path class="st0" d="M106.547 21.489c1.228-.941 1.26-3.08 2.817-3.7 1.655 1.682.363 4.292.179 6.519-.073.906.071 1.852 0 2.827-.169 2.346-1.192 4.281-1.061 6.694.15 2.619 1.277 5.215 1.061 7.924-.094 1.137-.469 2.129-.351 3.174.187 1.722 1.316 3.97 1.94 6.168a103.69 103.69 0 001.936 6.166c.848 2.424 2.538 4.441 2.643 8.106.113 4.08-.342 8.924-.354 13.744-.007 3.959-.17 10.707 1.589 12.866 3.21 3.94 12.127 1.378 16.738 3.345.288.767.762 1.349.88 2.292-4.625 1.558-9.686 1.307-14.625 1.761-2.339.223-4.658.845-7.05 1.064-3.906.341-7.926.039-11.978.347-5.954.447-13.539 1.022-19.739.705-1.68-.086-3.38.278-4.93.175-2.935-.191-5.512-.86-8.283-.523-5.568.665-12.677.965-18.683.7-4.282-.189-8.55-.035-12.508-.353-2.484-.196-4.578-.486-7.58-.705-4.368-.309-9.083-2.139-14.271-1.764-3.535.258-8.005.712-11.101-.88.526-3.618 6.639-2.655 10.572-2.995 3.832-.332 6.809-1.091 8.462-3.169 1.147-6.885 1.27-14.149.698-20.44-.466-5.17.513-9.406 1.768-13.041.541-1.579.626-3.309 1.054-4.583.452-1.332 1.391-2.42 1.759-3.7.229-.762.12-1.704.359-2.462.28-.928 1.069-1.7 1.231-2.648.28-1.665-.368-3.974-.179-6.165.165-1.924.781-3.714.702-5.289-.12-2.545-.872-5.2-1.054-7.576-.059-.784.113-1.601 0-2.29-.292-1.806-1.842-3.628-.349-5.812 1.97.253 2.464 1.994 3.174 3.52 1.65-.575 1.533-2.921 2.813-3.876 1.671 1.061.941 4.309-.347 5.289.666.563 1.946.513 2.464 1.235.433.305.413 1.058.175 1.582.877.966 2.692 1.449 1.938 3.525-.656.638-1.882.703-2.818 1.056.024 3.156 1.928 4.417 3.35 6.171 1.221-2.543 4.35-3.589 7.399-4.935 1.96-.865 4.389-2.331 6.165-1.236-.778 1.501-2.908 2.422-4.933 3.7-2.468 1.564-6.038 2.776-4.23 6.515 2.493.523 3.618-1.752 4.942-2.99 1.552-.354 3.169.336 4.045 1.587 11.486 0 22.002.015 33.306 0 .599-.632 1.331-1.138 2.118-1.587 2.171.172 3.812.718 4.579 2.643.781-.135 1.058.236 1.763.177 3.184-5.505-7.021-6.827-9.165-9.69.914-1.865 3.955-.467 5.994.353 3.375 1.348 6.47 2.685 7.576 5.816 1.849-1.51 3.83-3.793 3.878-6.524-1.02-1.032-3.007-.41-3.528-1.582-.781-1.8 3.178-1.779 2.115-4.411.646-.353 1.398-.602 1.941-1.056-.55-1.796-1.326-4.836.353-5.986 1.371.911 1.285 3.288 2.641 4.222m-2.11-2.288c-.067-.526-.106-1.076-.533-1.231-.04.623.118 1.052.533 1.231m-75.426 2.11c.715.013.32-1.091 1.058-1.052.444.617.312 1.803 1.235 1.938-.39-1.488-.668-3.088-2.115-3.522-.215.666-.625 1.873-.178 2.636m4.407.534c.599-.869 1.152-1.79 1.408-2.997-.04-.135-.145-.206-.347-.174-.186 1.223-1.034 1.788-1.061 3.171m73.655.351h.882c0-.462-.096-1.036.353-1.059.766-.251.81.602 1.235.174.118-1.032.226-1.791-.179-2.636-1.633.3-1.331 2.548-2.291 3.521m-1.762-.707c.206-.218-.228-1.284-.705-1.408.02.69.128 1.282.705 1.408m-.874 1.058c.079-.552-.226-.715-.533-.88-.035.505-.02.964.533.88m4.578 2.118c-.111-.368.283-1.226-.356-1.058-.402.397.126.777.356 1.058m-79.122.526c.204-.121.774-1.246 0-1.228 0 .309-.472 1.024 0 1.228m72.773 1.765c-.105-.317.523-.73 0-.884-.413.7-1.707.531-1.933 1.41.334.368 1.351.052 1.051 1.063-.305.094-1.029-.218-1.051.174 1.111.164 2.076 1.167 3.171.347-.047-.715-.56-.966-.353-1.931a8.076 8.076 0 012.643-.882c.445-.432-.371-.376-.18-1.061.341-.039.395.197.712.175-1.552-2.122-1.783 2.187-4.06 1.589m-69.422-.884c-.597.067-.32-.742-.885-.705-.272.702.599 1.147.885.705m3.699 1.236c-.563-.083-.624-.675-1.233-.705.051 1.122.359 1.99 1.233 2.292.228-.713.894-.993 1.058-1.761-.243-.304-.756-1.231-1.233-.705.148.108.551.82.175.879m66.782 2.64c.521 5.153-5.05 6.424-5.289 10.568-.084 1.579.54 3.112.71 4.944.988-.123 1.803-.43 2.638-.707.293-.713.31-1.69.712-2.292.433.024.848.025 1.056-.174 1.101-3.449.732-7.634 1.582-10.221-.477 0-.823.74-1.059 0 .332-.955 2.27-3.213.531-3.522.189.945-.584.937-.881 1.404M35.533 29.6h1.056c-.108-.481-.484-.695-1.056-.705v.705zm-3.52.527c.344-.241 1.255.086 1.058-.705-.639.339-.653-.073-1.238-.177-.073.428.322.389.18.882m3.345 7.927c-.373-.685-.531-1.582-1.412-1.761.098 1.906 1.184 2.813 1.412 4.579-1.37-.398-.552 2.678-2.648 2.118-.943 3.781 4.586 2.565 6.878 3.704.052.4-.511.191-.531.525 2.457-.086 5.88.484 7.931.705-.808-.685.857-1.007.353-1.408-.727-.142-.906.266-1.589.179.04-.573-.309-.747-.17-1.415-2.915 1.558-7.612.101-10.754-1.056.108-.368-.213-1.16.179-1.233.386.901 1.198 1.386 2.466 1.41.255-.332.012-1.167.354-1.41.972.552 1.42 1.631 2.466 2.112 1.51-7.212-3.512-9.403-5.112-14.094-.171 2.558.506 4.584.177 7.045m60.967 1.589c1.145-1.395.29-4.54-1.059-4.405 1.231.723 1.389 3.128 1.059 4.405m-53.038 1.934c-1.27-1.626-.508-5.129.175-6.161-1.742 1.047-1.778 4.93-.175 6.161m44.23-1.061c-4.798-.617-11.462-.347-17.976-.347-5.844 0-12.007-.589-16.566 0-1.646.216-3.178 1.322-4.756.347-.671 1.154-.224 3.426-.349 5.119.442.145.816.354 1.061.705-.008 1.418-.206 2.037 0 3.346-.594.172-.864.665-1.238 1.052-.651 8.376-.455 17.939 2.994 23.267 1.498-1.088 3.223-1.948 5.466-2.297.921-3.991 2.631-7.662 3.874-11.447 1.233-3.76 3.415-7.406 2.995-11.634-2.007.103-4.174.138-5.819.179 1.577-.882 2.663-3.237 4.23-4.053 2.112-1.105 3.699.656 4.053 2.289 1.506 6.838-6.21 17.104-4.053 24.139 4.358-.661 5.365-4.874 8.285-7.048a10.3 10.3 0 013.173-1.582c.391-.256.513-.783 1.059-.882.641.003.374.919 1.235.705.853.032.616-1.029 1.405-1.058.83.626.83 1.263 2.12.705.4.422.565 1.076.698 1.764 1.287-.395 1.258 1.081 1.94 1.757 2.623-.455 3.338 2.228 5.993 2.117.901 2.043-1.471 2.27-1.059 4.402 1.083.626 2.216 1.198 3.174 1.945 2.253-6.354 2.449-15.399 2.643-23.267-1.363-.875-1.854-3.461-1.233-5.279.43.017.848.024 1.056-.18.749-3.664-1.465-5.928-4.405-4.764m16.92 3.885c-2.274 1.327-7.006 2.176-9.696 1.41.216.067.359.226.354.53-.125.347-.988-.042-1.059.354.44-.03.855-.034.879.347-.11.519-1.135.713-.702 1.235 4.191-1.128 9.916.062 13.921-1.058.216-.902.661-2.505.174-3.523.339 2.746-2.727 3.028-5.109 2.466 3.446.091 3.157-4.25 1.585-5.993-.117 1.408-.104 2.953-.347 4.232m-59.563-2.466c.467.713 1.936-.182 1.936-1.063-.7.295-1.602.393-1.936 1.063m48.104-.358c.302.025 1.445.577 1.413-.172-.336-.315-.717-.584-1.413-.533v.705zm4.225 1.766h.885c-.027-.683.137-1.55-.353-1.766-.127.638-.673.857-.532 1.766m-56.031.88c.659.071 1.034-.142 1.061-.707-.56-.206-.379-1.149-1.061-1.23v1.937zm4.408-1.232c0 .818.211 1.43 1.056 1.41.148-.44.344-1.371 0-1.766-.661-.188-.507.44-1.056.356m47.579 1.762c.324-.617.697-1.181.7-2.118h-1.052c.183.637-.402 2.046.352 2.118m2.639.707c.921.32 1.523.366 2.468 0 .217-1.904-2.849-2.092-2.468 0m-54.099 0c.533-.061 1.371.196 1.41-.358-.135-.04-.202-.145-.175-.349-.683-.039-1.103.187-1.235.707m20.264 1.056v-.705h-.877c-.127.652.276.775.877.705m-30.304.703c2.031-.197 4.881.422 6.342-.351-2.086-.956-4.524.779-6.342-.707v1.058zm5.988 17.446c1.388 5.19-1.004 9.782-1.408 15.149-.307 4.045.223 7.925.179 11.103 1.386.199 3.587-.415 4.402.347-.476.412-2.766-.062-2.648.359 3.606.126 6.679.681 10.224.353-.934-1.427-3.613-1.518-5.816-1.761-1.486-.167-3.058-.137-4.409-.351-1.332-2.469-.1-6.327.179-10.051.162-2.085-.067-4.456.359-6.165.395-1.612 1.437-2.899 1.756-4.228.722-3.019.216-7.079-.877-9.16-.592-.336-.58.796-.879.174.081-1.427.184-3.026.347-4.407.339-2.825 1.67-6.173 0-7.752-1.338 2.697-.799 6.573-3.878 7.752-.398 1.778 2.213 2.474.531 3.881-1.417.007-2.884-1.619-4.051-.707 3.244.163 5.221 2.59 5.989 5.464m3.172-16.389c-.01 3.392-.567 7.613-.707 11.449 1.29 2.594 2.016 4.822 1.764 7.583-.295 3.262-2.52 6.155-2.82 9.165-.437 4.382-.219 8.185-.528 12.508 2.257.624 4.524.958 6.873 1.235 1.265.15 2.638-.175 3.874 0 1.364.192 2.567 1.201 3.876 1.408 2.653.415 5.161-.508 7.757.353 1.311 2.034 3.932 2.758 5.284 4.761-4.114-1.295-7.899-2.911-11.803-4.409-.707-.044-1.074.759-1.94.884-.455.059-1.093-.312-1.587-.356-4.407-.388-11.145-.121-16.037-.528 3.943 2.648 13.382-1.073 14.8 3.876-1.218.853-2.96.103-4.753 0-3.964-.226-8.286-.406-11.279 0-4.718-1.162-9.228.607-13.923 1.058-4.955.484-9.922.155-14.448 0 1.16 1.619 4.272 1.243 6.696 1.056 2.014-.157 4.212-.7 5.989-.177.567.157.369-.457.71-.528 1.312 1.085 3.726.017 5.638.18.492.039.899.454 1.405.525 1.719.234 3.544-.118 5.288 0 1.437.094 2.825.528 4.228.531 3.856.008 7.6-.391 10.751.525.4-.071-.089-1.037.707-.703 1.312-.02 2.135.449 3.346.531 1.182-1.005 3.142-.164 4.932-.18 3.319-.027 7.821-.821 10.756-.351 1.046.167 2.076.993 3.341 1.236 1.803.332 3.894-.506 5.821-.533.518-.003.744.246 1.231.175 1.28-.164 2.508-.739 3.876-.7.13.545-.484.337-.354.877 1.742.007 3.281-1.103 5.111-1.408 2.336-.388 4.842.599 7.403.703 1.931.083 4.564-.516 6.168-.703 2.164-.251 4.08.391 5.809 0 1.779 1.029 3.542-.415 5.468-.349.692-.11.206.966 1.054.702 1.359-.228 2.746-.432 4.056-.702 1.278.951 3.643.329 5.286-.175 2.068.779 4.777.059 7.227 0 2.304-.066 4.787.513 6.34-.708-4.309-.042-8.244.13-12.511 0-3.876-.121-7.671-1.572-11.452-1.408-1.429.059-2.987.299-4.579.353-4.336.16-7.462.391-11.282.884-1.37-.759-3.011.427-3.876-.884 1.719-4.593 10.445-1.263 14.8-3.348-.892-.788-3.301-.466-4.932-.353-4.129.282-9.492 1.467-12.862.18.395-.595 1.145-1.277 1.938-1.592 3.427-1.354 8.332-.415 12.161-1.408 1.191-1.397.671-2.184.526-4.058-.273-3.555-.148-7.855-1.058-10.746-.43-1.358-1.235-2.382-1.587-3.525-.938-3.066-1.336-6.18-.174-9.513.43-1.233 1.326-1.786 1.41-3.173.066-1.157-.599-2.481-.707-3.7-.186-2.147.189-4.333-.703-6.168-1.692-.815-3.918.27-5.286.882-.778 14.235-.928 24.821-7.757 34.362-1.933 2.712-4.26 4.901-7.045 7.575-1.429 1.376-6.48 5.981-8.637 5.993-2.053.012-6.478-4.225-8.103-5.814-9.919-9.69-17.553-21.967-15.154-41.938-1.792-.622-3.055-1.764-5.816-1.412m58.855.351c-.039 4.444.891 7.92 1.763 11.457-.369-.31-.519-.4-1.058-.175-1.297 2.468-2.108 5.503-1.41 8.98.331 1.631 1.452 3.255 1.941 5.117.779 2.98.945 7.804 1.228 10.923.126 1.267.567 2.71.358 3.7-.685 3.179-8.937 1.334-11.105 2.995-.224 1.444 1.486.744 2.29.705 1.402-.067 2.96-.121 3.873-.353.988-1.133 3.81-.427 5.289-1.059.993-4.456-.579-10.179-.526-14.272.342.071.014.806.707.533-2.495-6.048-2.356-14.18 2.11-17.976-.073-1.783.987-2.424.88-4.233-.604-.439-.874.692-1.756.53-1.01-.987.013-3.468.179-4.933-1.138-1.261-2.039-2.72-4.763-1.939m4.932 35.597c.277 3.016.339 6.822.358 9.165-2.5 1.253-7.281.24-10.223 1.058-.066.771.466.938.525 1.584 3.385-.774 8.091-.509 11.461-1.408.098-1.729-.266-3.908.347-5.112.159 1.972.95 4.451 0 6.001 1.179.226 1.467-.423 2.118-.717-.263-.794-.487-2.559-.71-2.817.138 1.678-.548 2.274-.705.353-.204-2.582-.327-3.338-.703-5.642-.189-1.184-.164-2.479-.347-3.695-.43-2.736-2.442-3.91-1.592-6.347.951-.184.907.622 1.413.88.231-1.118.816-1.881 1.408-2.645-.724-.914-.408-2.882-2.289-2.645-.548.678.523.912.347 1.769-.558.145-.545-.282-.88-.356.111.626 1.079 1.771.177 2.292-1.704-2.351-2.888-5.215-2.815-9.342.329-.079 1.059.24.88-.349.251-2.454 1.111-4.292 2.638-5.463-.015-.214-.052-.418-.347-.353-7.027 5.286-1.889 14.603-1.061 23.789M35.71 69.95c.204.359.459-.514.707.175-.148 2.793-1.543 4.331-1.238 7.578-2.436 3.673-2.844 9.373-3.166 15.154.159.599.877 1.494.172 1.936-1.09-.442-.125-2.935-.708-3.876-.317.324-.025 1.263-.526 1.412-.245-1.186.43-2.383 0-3.178-.025 2.145-1.678 5.036-.353 6.359 4.033-.998 9.239-.236 13.923-.364-1.152-1.901-4.67-.774-7.226-1.061-1.817-.202-3.066-1.083-4.051-1.228-.793-1.095.98-1.768 1.235-2.641.192-.692-.067-1.69 0-2.464.236-2.977.725-6.725 1.054-9.874.287-2.734 1.481-5.536 1.763-8.283.39-3.768-1.015-7.173-3.527-8.985 2.159 1.569 3.291 5.884 1.941 9.34m41.761-5.639c.216-.304 1.086-.845.349-1.061-.29.228-1.072.856-.349 1.061m-4.23.176c-3.397.573-5.038 4.217-7.401 5.994 2-.629 2.697-3.35 4.935-3.173-.273-1.096.487-1.157 1.407-1.058-.051-.408-.374-.761.177-.884.771-.123.784.509 1.408.533-.073-1.044.813-.948 1.587-.708-.24-.884.708-.585 1.059-.88-.157.565.275.545.531.703.034-.567-.315-.742-.18-1.403-1.226.555-2.167.646-3.523.876m4.757 1.938c.649.169.702-.864.179-.882-.102.366-.503.57-.179.882m-1.233.352V65.9h-.523c.16.304-.007.945.523.877m-1.581.531c.199-.521.1-.656-.353-.884-.281.267-.261 1.004.353.884m8.806 1.055c-.02-.297.573-1.118-.174-1.054.098.31-.214 1.033.174 1.054m-13.564 1.762c-.177-.413-.059-1.118-.708-1.059.012.577.228.953.708 1.059m5.988.703c-.916.204-2.063 1.823-3.523.88 1.167 1.292 3.453-.101 4.93.353.073-1.275 2.852.148 2.999-1.056-1.618.043-3.104-.457-4.406-.177m3.525 1.586c.322.442.599.934 1.059 1.236.447-.024.676-.255.703-.705-.135-.594-1.138-.976-1.762-.531m-15.33 1.592c-2.464.196-4.728-.931-7.576-.708 4.524 2.879 10.835-.113 15.858.531-2.669-1.709-5.393-.057-8.282.177m22.377-.533c-.614-.03-1.535-.683-2.11-.175.575.077 1.519.7 2.11.175m-9.865 1.061c2.014 1.025 5.773-.341 7.575-1.236-2.622.317-4.605 1.263-7.575 1.236m-45.818 1.584c.499-.152.805-.493.882-1.059-1.383.329-1.036-1.076-2.466-.705.328.791.948 1.283 1.584 1.764m81.412 15.859c2.378 5.046 9.914 4.777 16.738 4.937 1.444.027 3.2.11 4.053-.884-5.529-.88-13.292.412-16.561-1.945-3.648-2.613-2.705-8.374-3.173-13.387-.071-.759-.096-2.123-1.058-2.64.752 2.248.477 5.367.707 8.278.127 1.705.803 3.242.351 4.4-1.417-4.981-.251-12.545-3.528-15.679 2.028 4.437 1.544 11.381 2.471 16.92m-3.351-16.21c-.717.418-1.543 1.095-1.587 2.112-.135 3.54 1 10.155 1.415 13.387.783.337 1.837.403 2.994.359-1.3-4.874-.106-12.228-2.643-15.858h-.179zm-77.531.879c-.128.838.518 1.589.526 2.645.012.966-.874 2.039-.174 2.994-.339-2.528 2.349-3.994 1.059-5.81-.511.01-1.157-.099-1.411.171m-.882 2.997c.806-.842-.022-2.375-.53-2.997h-.528c-2.64 3.584-1.614 10.837-3.169 15.512.823.454 2.068.003 2.817-.18.625-3.701 2.503-8.647 1.41-12.335m-4.932 8.462c0-3.997 1.219-7.315 1.058-10.926-2.289 3.896-.568 11.493-2.645 15.504-2.564 4.94-11.15 2.613-17.091 4.232 5.878.368 11.177-.054 16.207-1.056 3.808-2.624 3.436-10.852 4.407-15.863.137-.7.659-1.93.174-1.936-1.223 2.822-1.049 7.044-2.11 10.045m52.157-9.518c-2.25.353-4.078-.435-6.875-.708-3.216-.312-6.315 1.192-9.165 1.061-3.203-.153-6.296-2.086-9.162-.18.263 1.682 1.432 2.452 2.118 3.7 3.001-1.506 5.711.86 9.163.356 1.162-.175 2.373-.919 3.702-1.059 3.329-.353 6.74 1.086 9.686.703 3.247-.418 5.571-1.408 7.583.356.749-1.068 1.79-1.85 1.933-3.525-2.83-1.917-6.279-1.127-8.983-.704m30.306 12.678c-.509-4.557-.798-8.438-1.582-12.854-.04-.142-.148-.207-.353-.177.79 4.198.79 9.198 1.935 13.031m1.234 2.82c1.332.091 2.489.337 3.883.361.005-.892-.611-1.155-.884-1.764h-3.351c-.145.736.347.833.352 1.403m-84.227.709c1.356.008 2.41-.293 3.699-.347v-1.233c-1.702.05-3.444.07-3.699 1.58m20.967 1.064c-.609.125-1.326-.543-1.761 0 .646.059 1.405.641 1.761 0"/><path d="M23.316 111.003v-1.373h3.545v3.245c-.344.334-.843.627-1.498.88a5.508 5.508 0 01-1.985.381c-.853 0-1.594-.18-2.228-.536a3.412 3.412 0 01-1.427-1.533 4.954 4.954 0 01-.477-2.169c0-.848.175-1.602.533-2.262a3.583 3.583 0 011.56-1.516c.523-.27 1.172-.406 1.948-.406 1.012 0 1.801.214 2.37.638.568.423.934 1.01 1.098 1.757l-1.634.305a1.747 1.747 0 00-.644-.948c-.319-.229-.713-.346-1.189-.346-.717 0-1.287.229-1.712.683-.425.455-.638 1.13-.638 2.026 0 .968.214 1.695.646 2.176.43.484.992.725 1.688.725.344 0 .688-.069 1.036-.201.346-.138.643-.302.891-.494v-1.032h-1.883zm4.726-1.029c0-.828.125-1.525.373-2.086.186-.415.439-.788.757-1.117.32-.329.671-.575 1.054-.732.506-.214 1.091-.324 1.754-.324 1.199 0 2.159.373 2.881 1.118.72.744 1.079 1.778 1.079 3.102 0 1.317-.358 2.344-1.073 3.087-.712.744-1.668 1.115-2.866 1.115-1.209 0-2.172-.371-2.886-1.108-.713-.738-1.073-1.758-1.073-3.055m1.695-.054c0 .923.213 1.621.639 2.096.425.477.965.713 1.621.713s1.192-.236 1.614-.707c.42-.472.631-1.181.631-2.125 0-.933-.204-1.629-.616-2.088-.408-.46-.951-.69-1.629-.69s-1.223.234-1.638.7c-.412.463-.622 1.166-.622 2.101m9.564 4.076l-2.909-8.141h1.781l2.061 6.024 1.994-6.024h1.744l-2.917 8.141zm5.51 0v-8.141h6.038v1.378h-4.393v1.803h4.088v1.373h-4.088v2.216h4.549v1.371zm7.593.001v-8.141h3.459c.87 0 1.503.073 1.899.219.395.145.708.406.945.778.24.376.358.803.358 1.284 0 .612-.18 1.117-.54 1.515-.361.398-.897.649-1.611.752.356.209.649.437.88.683.231.25.543.688.936 1.322l.993 1.589h-1.967l-1.187-1.773c-.422-.632-.71-1.031-.867-1.198a1.238 1.238 0 00-.494-.336c-.175-.062-.449-.094-.828-.094h-.332v3.4h-1.644zm1.645-4.699h1.216c.789 0 1.282-.034 1.476-.1a.883.883 0 00.462-.344c.111-.164.167-.366.167-.612 0-.275-.074-.494-.219-.661a.993.993 0 00-.617-.32c-.135-.02-.536-.029-1.203-.029h-1.282v2.066zm6.581 4.698v-8.141h1.601l3.333 5.437v-5.437h1.526v8.141h-1.649l-3.282-5.308v5.308zm8.176 0v-8.141h2.46l1.479 5.554 1.462-5.554h2.464v8.141h-1.528v-6.408l-1.616 6.408h-1.582l-1.61-6.408v6.408zm9.498 0v-8.141h6.038v1.378h-4.393v1.803h4.088v1.373h-4.088v2.216h4.549v1.371zm7.603 0v-8.141h1.601l3.333 5.437v-5.437h1.528v8.141h-1.651l-3.283-5.308v5.308zm10.033 0v-6.763h-2.415v-1.378h6.47v1.378h-2.411v6.763zm7.943-4.022c0-.828.125-1.525.373-2.086.184-.415.437-.788.757-1.117.32-.329.671-.575 1.052-.732.508-.214 1.093-.324 1.756-.324 1.199 0 2.159.373 2.881 1.118.719.744 1.079 1.778 1.079 3.102 0 1.317-.358 2.344-1.073 3.087-.715.744-1.67 1.115-2.866 1.115-1.209 0-2.172-.371-2.888-1.108-.713-.738-1.071-1.758-1.071-3.055m1.695-.054c0 .923.213 1.621.639 2.096.425.477.965.713 1.621.713.654 0 1.192-.236 1.614-.707.42-.472.631-1.181.631-2.125 0-.933-.207-1.629-.616-2.088-.408-.46-.951-.69-1.629-.69s-1.224.234-1.639.7c-.415.463-.621 1.166-.621 2.101m7.497 4.076v-8.141h5.583v1.378h-3.939v1.926h3.399v1.379h-3.399v3.458zM8.47 127.647l-1.944-8.143h1.685l1.224 5.594 1.489-5.594h1.957l1.425 5.689 1.25-5.689h1.658l-1.98 8.143h-1.743l-1.622-6.089-1.616 6.089zm9.58 0v-8.143h6.039v1.378h-4.394v1.804h4.088v1.371h-4.088v2.218h4.549v1.372zm7.171-2.651l1.601-.155c.096.538.292.931.585 1.184.293.25.692.378 1.191.378.531 0 .929-.111 1.198-.337.268-.224.403-.486.403-.784a.74.74 0 00-.169-.492c-.113-.135-.31-.251-.592-.353a20.188 20.188 0 00-1.316-.356c-.882-.219-1.501-.486-1.855-.805-.501-.449-.751-.995-.751-1.639 0-.415.118-.803.353-1.162a2.192 2.192 0 011.017-.826c.442-.187.977-.283 1.602-.283 1.02 0 1.79.226 2.307.671.516.45.788 1.049.815 1.796l-1.646.071c-.069-.418-.221-.719-.45-.901-.233-.184-.579-.277-1.042-.277-.477 0-.853.098-1.123.297a.589.589 0 00-.26.504c0 .191.081.356.245.493.206.175.71.356 1.51.543.801.192 1.391.386 1.776.587.383.204.681.477.901.83.216.347.324.783.324 1.295 0 .467-.13.904-.388 1.311a2.335 2.335 0 01-1.1.909c-.476.197-1.066.297-1.773.297-1.031 0-1.822-.238-2.371-.713-.555-.479-.884-1.172-.992-2.083m9.836 2.651v-6.765h-2.415v-1.378h6.472v1.378h-2.412v6.765zm5.118 0v-8.143h6.036v1.378h-4.394v1.804h4.089v1.371h-4.089v2.218h4.551v1.372zm7.592 0v-8.143h3.459c.872 0 1.503.074 1.897.219.395.147.71.406.946.781.238.373.356.801.356 1.282 0 .612-.179 1.117-.538 1.515-.359.396-.897.649-1.612.752.358.207.649.435.882.683.229.248.543.688.934 1.322l.993 1.589h-1.965l-1.189-1.773c-.42-.632-.71-1.031-.867-1.198a1.25 1.25 0 00-.492-.337c-.175-.062-.45-.093-.828-.093h-.333v3.4h-1.643zm1.643-4.701h1.218c.788 0 1.28-.032 1.476-.098a.898.898 0 00.464-.344c.11-.164.165-.368.165-.612 0-.273-.074-.494-.221-.663-.145-.169-.353-.277-.617-.32-.135-.019-.536-.029-1.201-.029H49.41v2.066zm6.582 4.701v-8.143h1.6l3.333 5.437v-5.437h1.528v8.143h-1.651l-3.282-5.312v5.312zm18.28 0h-1.788l-.712-1.849h-3.254l-.673 1.849h-1.744l3.171-8.143h1.739l3.261 8.143zm-3.026-3.222l-1.122-3.022-1.101 3.022h2.223zm3.888-4.921h1.644v4.409c0 .7.02 1.154.061 1.361.069.334.238.602.503.805.263.201.626.302 1.086.302.467 0 .818-.094 1.054-.285a1.13 1.13 0 00.428-.703c.049-.278.073-.74.073-1.383v-4.505h1.644v4.276c0 .978-.044 1.67-.135 2.073a2.276 2.276 0 01-.491 1.022 2.478 2.478 0 01-.958.665c-.4.164-.923.246-1.565.246-.779 0-1.368-.089-1.771-.27-.4-.18-.719-.413-.951-.7a2.19 2.19 0 01-.46-.902c-.108-.467-.162-1.155-.162-2.068v-4.343zm7.809 5.492l1.601-.155c.096.538.29.931.585 1.184.293.25.692.378 1.191.378.531 0 .929-.111 1.198-.337.268-.224.403-.486.403-.784a.736.736 0 00-.17-.492c-.111-.135-.309-.251-.59-.353a20.188 20.188 0 00-1.316-.356c-.882-.219-1.501-.486-1.855-.805-.501-.449-.751-.995-.751-1.639 0-.415.118-.803.353-1.162.233-.363.573-.638 1.017-.826.442-.187.975-.283 1.602-.283 1.02 0 1.791.226 2.307.671.516.45.788 1.049.813 1.796l-1.644.071c-.069-.418-.221-.719-.45-.901-.233-.184-.579-.277-1.042-.277-.477 0-.853.098-1.123.297a.589.589 0 00-.26.504c0 .191.081.356.245.493.206.175.71.356 1.51.543.801.192 1.391.386 1.774.587.385.204.683.477.902.83.214.347.324.783.324 1.295 0 .467-.13.904-.391 1.311a2.316 2.316 0 01-1.096.909c-.476.197-1.066.297-1.773.297-1.031 0-1.822-.238-2.371-.713-.556-.479-.885-1.172-.993-2.083m9.836 2.651v-6.765h-2.415v-1.378h6.472v1.378h-2.412v6.765zm5.122 0v-8.143h3.461c.869 0 1.503.074 1.897.219.395.147.71.406.946.781.238.373.356.801.356 1.282 0 .612-.179 1.117-.54 1.515-.358.396-.896.649-1.611.752.356.207.649.435.882.683.229.248.543.688.934 1.322l.993 1.589h-1.965l-1.189-1.773c-.422-.632-.712-1.031-.867-1.198a1.25 1.25 0 00-.492-.337c-.175-.062-.45-.093-.828-.093h-.334v3.4h-1.643zm1.644-4.701h1.218c.788 0 1.28-.032 1.476-.098a.873.873 0 00.46-.344c.111-.164.167-.368.167-.612 0-.273-.073-.494-.219-.663-.145-.169-.353-.277-.617-.32-.135-.019-.536-.029-1.201-.029h-1.284v2.066zm13.908 4.701h-1.788l-.712-1.849H107.7l-.673 1.849h-1.744l3.171-8.143h1.739l3.26 8.143zm-3.026-3.222l-1.122-3.022-1.101 3.022h2.223zm3.944 3.222v-8.076h1.644v6.704h4.089v1.372zm6.854-8.142h1.644v8.143h-1.644zm10.553 8.142h-1.788l-.712-1.849h-3.254l-.673 1.849h-1.744l3.171-8.143h1.739l3.261 8.143zm-3.026-3.222l-1.122-3.022-1.101 3.022h2.223zm13.806-89.291V17.929h5.927c1.337 0 2.358.083 3.063.246.985.228 1.827.638 2.523 1.233.907.766 1.585 1.746 2.034 2.94.452 1.192.676 2.555.676 4.09 0 1.305-.153 2.464-.457 3.473-.307 1.01-.697 1.845-1.174 2.506-.477.661-1 1.181-1.567 1.56-.568.379-1.251.668-2.054.864-.801.196-1.722.293-2.764.293h-6.207zm2.275-2.031h3.673c1.135 0 2.026-.106 2.67-.317.646-.211 1.162-.508 1.545-.892.538-.54.958-1.265 1.262-2.177.3-.911.45-2.016.45-3.314 0-1.8-.295-3.183-.885-4.149-.59-.966-1.309-1.614-2.154-1.941-.611-.236-1.592-.353-2.945-.353h-3.616v13.143zm23.344-1.983l2.182.27c-.342 1.275-.982 2.265-1.914 2.968-.928.705-2.118 1.058-3.566 1.058-1.823 0-3.27-.562-4.336-1.685-1.068-1.123-1.604-2.697-1.604-4.724 0-2.096.541-3.724 1.621-4.881 1.079-1.159 2.479-1.737 4.203-1.737 1.666 0 3.026.567 4.083 1.702 1.056 1.133 1.584 2.731 1.584 4.788 0 .125-.003.312-.012.563h-9.295c.078 1.368.467 2.417 1.162 3.146.697.727 1.564 1.091 2.606 1.091.774 0 1.435-.204 1.982-.611.55-.406.982-1.056 1.304-1.948m-6.936-3.415h6.957c-.093-1.049-.358-1.835-.796-2.36-.673-.813-1.545-1.219-2.618-1.219-.97 0-1.784.324-2.446.973-.66.649-1.026 1.518-1.097 2.606m11.772 12.205V22.669h1.924v1.621c.452-.634.965-1.11 1.537-1.427.57-.317 1.263-.476 2.076-.476 1.066 0 2.004.275 2.818.821.813.548 1.429 1.321 1.843 2.319.415.997.621 2.09.621 3.279 0 1.277-.228 2.424-.686 3.446-.457 1.02-1.122 1.803-1.995 2.346-.872.545-1.79.816-2.753.816-.703 0-1.336-.148-1.894-.445a4.336 4.336 0 01-1.38-1.127v6.067h-2.111zm1.912-10.938c0 1.604.324 2.79.973 3.555.649.767 1.437 1.15 2.36 1.15.939 0 1.742-.396 2.412-1.191.668-.794 1.004-2.024 1.004-3.69 0-1.589-.327-2.778-.98-3.569-.654-.789-1.434-1.186-2.341-1.186-.899 0-1.697.422-2.39 1.263-.692.841-1.038 2.064-1.038 3.668m19.588 4.624c-.783.665-1.535 1.135-2.26 1.408a6.542 6.542 0 01-2.329.412c-1.368 0-2.422-.336-3.157-1.004-.734-.67-1.103-1.525-1.103-2.565 0-.609.14-1.167.417-1.671a3.451 3.451 0 011.091-1.214c.45-.305.958-.536 1.521-.693.413-.11 1.039-.214 1.876-.317 1.707-.202 2.963-.445 3.768-.727.008-.29.012-.474.012-.552 0-.862-.197-1.467-.599-1.82-.538-.477-1.343-.715-2.405-.715-.993 0-1.727.174-2.201.523-.472.347-.823.963-1.049 1.847l-2.066-.282c.189-.884.498-1.597.928-2.14.428-.545 1.051-.963 1.865-1.257.815-.293 1.756-.44 2.827-.44 1.066 0 1.93.125 2.594.376.666.25 1.154.565 1.469.945.312.379.53.858.656 1.437.071.361.106 1.01.106 1.948v2.817c0 1.965.044 3.206.135 3.727.089.519.268 1.019.535 1.496h-2.208a4.443 4.443 0 01-.423-1.539m-.177-4.718c-.767.312-1.916.579-3.449.798-.869.125-1.484.266-1.842.423a1.813 1.813 0 00-1.128 1.69c0 .563.214 1.032.641 1.408.425.374 1.049.563 1.87.563.813 0 1.538-.179 2.171-.535.634-.356 1.1-.843 1.397-1.461.229-.477.341-1.182.341-2.113v-.773zm5.387 6.255V22.671h1.901v1.889c.484-.884.933-1.467 1.344-1.749.41-.282.86-.422 1.354-.422.712 0 1.435.226 2.172.68l-.729 1.96c-.518-.305-1.032-.457-1.548-.457-.462 0-.877.138-1.245.417-.368.277-.631.663-.786 1.155a8.247 8.247 0 00-.353 2.464v6.526h-2.11zm12.639-1.889l.307 1.865a7.872 7.872 0 01-1.597.189c-.767 0-1.361-.121-1.784-.364-.422-.243-.719-.562-.891-.956-.172-.395-.258-1.226-.258-2.495v-7.17h-1.552V22.67h1.552v-3.087l2.1-1.268v4.355h2.123v1.643h-2.123v7.288c0 .602.037.99.111 1.162a.87.87 0 00.364.41c.167.103.408.153.72.153.235 0 .545-.028.928-.082m2.067 1.889V22.671h1.889v1.747a4.418 4.418 0 011.56-1.472c.649-.371 1.388-.557 2.218-.557.923 0 1.68.191 2.27.575a3.062 3.062 0 011.25 1.607c.985-1.456 2.27-2.183 3.851-2.183 1.235 0 2.186.341 2.852 1.025.665.685.997 1.739.997 3.164v8.555h-2.102v-7.851c0-.845-.067-1.454-.204-1.825a1.774 1.774 0 00-.745-.897c-.359-.228-.783-.341-1.267-.341-.877 0-1.606.292-2.184.874-.579.584-.869 1.516-.869 2.8v7.241h-2.112v-8.098c0-.939-.172-1.643-.516-2.113-.344-.469-.907-.703-1.69-.703-.595 0-1.144.157-1.65.469-.504.314-.87.771-1.096 1.373-.228.604-.341 1.471-.341 2.606v6.467h-2.111zm28.551-4.013l2.184.27c-.344 1.275-.982 2.265-1.913 2.968-.931.705-2.12 1.058-3.567 1.058-1.823 0-3.269-.562-4.336-1.685s-1.602-2.697-1.602-4.724c0-2.096.54-3.724 1.619-4.881 1.079-1.159 2.481-1.737 4.201-1.737 1.666 0 3.027.567 4.083 1.702 1.058 1.133 1.584 2.731 1.584 4.788 0 .125-.003.312-.01.563h-9.295c.078 1.368.465 2.417 1.162 3.146.697.727 1.564 1.091 2.606 1.091.772 0 1.435-.204 1.983-.611.547-.406.98-1.056 1.301-1.948m-6.935-3.415h6.961c-.094-1.049-.361-1.835-.798-2.36-.673-.813-1.547-1.219-2.618-1.219-.97 0-1.786.324-2.447.973-.662.649-1.026 1.518-1.098 2.606m11.771 7.428V22.671h1.903v1.771c.916-1.37 2.238-2.053 3.965-2.053.752 0 1.444.133 2.071.405.631.27 1.103.622 1.415 1.061.314.439.533.96.656 1.562.081.391.118 1.076.118 2.053v7.664h-2.112v-7.581c0-.86-.083-1.504-.248-1.931a2.03 2.03 0 00-.872-1.02c-.418-.255-.909-.381-1.474-.381-.901 0-1.675.285-2.329.857-.654.572-.98 1.655-.98 3.25v6.807h-2.113zm17.98-1.889l.304 1.865a7.84 7.84 0 01-1.596.189c-.766 0-1.359-.121-1.783-.364-.422-.243-.72-.562-.892-.956-.174-.395-.258-1.226-.258-2.495v-7.17h-1.55V22.67h1.55v-3.087l2.1-1.268v4.355h2.125v1.643h-2.125v7.288c0 .602.039.99.113 1.162a.87.87 0 00.364.41c.167.103.408.153.72.153.235 0 .543-.028.928-.082m7.958-4.342c0-2.307.641-4.018 1.923-5.129 1.073-.923 2.38-1.385 3.921-1.385 1.712 0 3.112.562 4.2 1.685 1.088 1.122 1.633 2.673 1.633 4.653 0 1.604-.241 2.866-.724 3.785a5.104 5.104 0 01-2.098 2.14 6.121 6.121 0 01-3.011.764c-1.747 0-3.157-.56-4.232-1.678-1.076-1.12-1.612-2.73-1.612-4.835m2.171 0c0 1.596.346 2.791 1.044 3.586.697.794 1.572 1.191 2.629 1.191 1.047 0 1.921-.4 2.616-1.198.697-.798 1.046-2.014 1.046-3.65 0-1.542-.351-2.709-1.052-3.503-.698-.794-1.57-1.191-2.609-1.191-1.058 0-1.933.395-2.629 1.186-.7.789-1.045 1.983-1.045 3.579m12.486 6.231v-10.82h-1.867V22.67h1.867v-1.327c0-.837.074-1.459.223-1.865a2.713 2.713 0 011.073-1.332c.513-.341 1.233-.511 2.156-.511.595 0 1.251.071 1.972.213l-.317 1.842a7.111 7.111 0 00-1.243-.116c-.644 0-1.096.137-1.363.41-.266.273-.398.786-.398 1.538v1.15h2.429v1.643h-2.429v10.82h-2.103zM142.452 63.975V46.77h12.756v2.911h-9.283v3.813h8.639v2.9h-8.639v4.682h9.612v2.899zm27.438.001h-3.063v-1.832c-.508.712-1.11 1.243-1.801 1.59-.692.349-1.391.523-2.095.523-1.432 0-2.66-.577-3.679-1.732-1.022-1.154-1.531-2.763-1.531-4.829 0-2.112.496-3.717 1.489-4.817.993-1.1 2.25-1.65 3.768-1.65 1.391 0 2.597.579 3.614 1.737V46.77h3.297v17.206zm-8.801-6.502c0 1.331.182 2.292.552 2.888.531.86 1.275 1.29 2.228 1.29.759 0 1.405-.322 1.938-.968.533-.646.796-1.609.796-2.893 0-1.432-.256-2.462-.772-3.093-.518-.629-1.177-.945-1.983-.945-.783 0-1.437.312-1.967.933-.529.622-.792 1.551-.792 2.788m20.256 6.501V62.11a4.792 4.792 0 01-1.791 1.572 5.02 5.02 0 01-2.341.575c-.837 0-1.589-.184-2.253-.552a3.25 3.25 0 01-1.442-1.55c-.299-.665-.447-1.584-.447-2.758v-7.885h3.297v5.726c0 1.752.062 2.827.182 3.221.123.395.342.708.663.939.32.231.729.346 1.223.346.562 0 1.068-.155 1.513-.464.445-.309.752-.692.916-1.15.164-.457.246-1.579.246-3.361v-5.257h3.297v12.463h-3.063zm17.345-8.778l-3.25.587c-.111-.649-.359-1.138-.745-1.467s-.889-.492-1.508-.492c-.821 0-1.477.283-1.965.85-.491.568-.735 1.516-.735 2.847 0 1.479.248 2.523.745 3.134.496.609 1.165.914 2 .914.627 0 1.14-.177 1.538-.533.398-.356.681-.968.845-1.837l3.238.552c-.336 1.486-.98 2.609-1.936 3.368-.953.759-2.233 1.138-3.837 1.138-1.823 0-3.277-.575-4.358-1.725-1.086-1.15-1.628-2.742-1.628-4.777 0-2.058.545-3.66 1.631-4.805 1.088-1.147 2.56-1.72 4.414-1.72 1.516 0 2.724.327 3.62.98.895.653 1.54 1.648 1.931 2.986m4.965.116l-2.994-.54c.336-1.204.914-2.096 1.737-2.675.821-.579 2.041-.869 3.662-.869 1.471 0 2.565.174 3.286.523.72.347 1.228.789 1.52 1.326.293.536.44 1.52.44 2.952l-.035 3.849c0 1.096.054 1.904.159 2.424.106.519.304 1.078.592 1.673h-3.262a12.574 12.574 0 01-.317-.975 6.391 6.391 0 00-.116-.386c-.565.546-1.165.958-1.808 1.231a5.188 5.188 0 01-2.053.412c-1.285 0-2.296-.349-3.036-1.046-.739-.697-1.106-1.575-1.106-2.64 0-.705.165-1.332.503-1.884a3.3 3.3 0 011.415-1.268c.605-.292 1.481-.548 2.623-.767 1.542-.29 2.609-.56 3.205-.81v-.329c0-.634-.157-1.086-.471-1.356-.312-.27-.904-.405-1.773-.405-.585 0-1.044.115-1.371.346-.331.231-.597.636-.8 1.214m4.413 2.677c-.423.14-1.091.309-2.007.504-.916.196-1.515.388-1.796.575-.43.305-.646.693-.646 1.162 0 .462.174.86.518 1.198.344.336.781.504 1.314.504.595 0 1.162-.196 1.702-.587.4-.297.661-.661.786-1.091.086-.282.13-.818.13-1.607v-.658zm12.203-6.478v2.629h-2.253v5.023c0 1.017.022 1.609.066 1.778.042.169.14.307.293.417.152.11.337.164.558.164.304 0 .745-.105 1.326-.317l.28 2.559c-.767.329-1.634.494-2.606.494a4.137 4.137 0 01-1.606-.3c-.479-.199-.828-.457-1.052-.774-.221-.317-.376-.745-.462-1.285-.069-.383-.106-1.159-.106-2.324v-5.433h-1.515v-2.629h1.515v-2.476l3.309-1.924v4.4h2.253zm2.29-4.742h3.299v3.051h-3.299V46.77zm0 4.741h3.299v12.463h-3.299V51.511zm5.914 6.057c0-1.096.272-2.156.81-3.181.541-1.025 1.305-1.808 2.296-2.348.99-.54 2.095-.81 3.314-.81 1.887 0 3.432.612 4.638 1.837 1.203 1.224 1.806 2.771 1.806 4.642 0 1.886-.609 3.449-1.825 4.689-1.218 1.24-2.748 1.86-4.594 1.86a7.25 7.25 0 01-3.269-.774 5.324 5.324 0 01-2.366-2.272c-.539-.997-.81-2.211-.81-3.643m3.381.175c0 1.236.292 2.183.879 2.84.587.658 1.311.985 2.172.985.86 0 1.582-.327 2.164-.985.584-.658.875-1.612.875-2.864 0-1.221-.292-2.159-.875-2.817-.582-.658-1.304-.985-2.164-.985-.862 0-1.585.327-2.172.985-.587.659-.879 1.605-.879 2.841m23.4 6.232h-3.297v-6.36c0-1.346-.069-2.216-.213-2.611a1.828 1.828 0 00-.685-.923c-.317-.219-.698-.329-1.145-.329a2.64 2.64 0 00-1.537.471 2.364 2.364 0 00-.933 1.243c-.169.518-.253 1.471-.253 2.864v5.645h-3.299V51.513h3.065v1.83c1.088-1.408 2.456-2.112 4.107-2.112.729 0 1.393.13 1.997.393.6.261 1.058.595 1.366 1.002.307.408.525.869.644 1.386.121.516.182 1.255.182 2.218v7.745z" fill="#231f20"/></svg>