<svg id="Logo" xmlns="http://www.w3.org/2000/svg" width="360.8" height="360.8"><defs><style>.cls-3{fill:#fff}</style></defs><circle cx="180.4" cy="180.4" r="180.4" fill="#231f20"/><path class="cls-3" d="M136.4 143.9c4 0 4.3-7.7 4.3-10.1s-.3-10.2-4.3-10.2-4.3 7.5-4.3 10.2.3 10.1 4.3 10.1zm-9.2 59.9c0 2.4.3 10.1 4.3 10.1s4.3-7.7 4.3-10.1-.3-10.2-4.3-10.2-4.3 7.4-4.3 10.2zm20 24.8c-4 0-4.3 7.4-4.3 10.2s.3 10.1 4.3 10.1 4.3-7.7 4.3-10.1-.3-10.2-4.3-10.2zm-10.6-70c-4 0-4.3 7.5-4.3 10.2s.3 10.1 4.3 10.1 4.3-7.7 4.3-10.1-.3-10.2-4.3-10.2z"/><path class="cls-3" d="M93.7 93.7v173.4h173.4V93.7zm55.5 59.8h6V184h-6zm-12.6 31c-5.4 0-10.7-4.3-10.7-15.7s5.3-15.7 10.7-15.7 10.7 4.2 10.7 15.7-5.3 15.7-10.7 15.7zm5.6 19.3c0 11.4-5.3 15.7-10.7 15.7s-10.7-4.3-10.7-15.7 5.4-15.7 10.7-15.7 10.7 4.2 10.7 15.7zm-5.8-85.7c5.4 0 10.7 4.2 10.7 15.7s-5.3 15.7-10.7 15.7-10.7-4.3-10.7-15.7 5.3-15.7 10.7-15.7zm-31.2.4h5.8l7.5 18.4h.1a17.1 17.1 0 01-.5-4.6v-13.8h6V149h-5.7l-7.4-18.4h-.1l.3 3.1V149h-6zm6.4 35l3.6 14.6c.5 1.8.7 3.5 1.1 5.3h.1a45.1 45.1 0 01.9-5.3l3.7-14.6h6.3l-8.4 30.5h-5l-8.8-30.5zm-6.4 40.7v-5.7h15.5v5.7h-4.8V219h-6v-24.8zm13.7 59.8h-5l-8.8-30.5h6.5l3.6 14.6c.5 1.8.7 3.5 1.1 5.3h.1a45.1 45.1 0 01.9-5.3l3.7-14.6h6.3zm15.7 0h-6v-30.5h6zm12.6.5c-5.4 0-10.7-4.3-10.7-15.7s5.3-15.7 10.7-15.7 10.7 4.2 10.7 15.7-5.3 15.7-10.7 15.7zm24.8-.5h-12.3v-30.5h6.1v24.8h6.2zm1.3-94.7a9.3 9.3 0 00-2.3-.4c-5.2 0-7.5 4.8-7.5 9.5s2.3 10.1 7.5 10.1a9.3 9.3 0 002.3-.4v5.7a8.7 8.7 0 01-2.8.5c-8.7 0-13.5-7.8-13.5-15.8s5-15.3 13.2-15.3a10.6 10.6 0 013.1.5zm12.8 94.7h-12.2v-30.5H186v5.7h-6.1v6.6h5.3v5.7h-5.3v6.8h6.2zm1.1-70H175v-30.5h12.1v5.7H181v6.6h5.4v5.7H181v6.8h6.2zm19.6 70h-5.7l-7.4-18.4h-.1l.3 3.1V254h-6v-30.5h5.7l7.5 18.4h.1a17.1 17.1 0 01-.5-4.6v-13.8h6zm17.7-24.7a8.5 8.5 0 00-2.2-.4c-5.3 0-7.6 4.9-7.6 9.5s2.3 10.1 7.5 10.1a8.5 8.5 0 002.3-.4v5.7a8.7 8.7 0 01-2.8.5c-8.6 0-13.4-7.8-13.4-15.8s5-15.3 13.2-15.3a10.5 10.5 0 013 .5zm13.9 24.7h-12.1v-30.5h12.1v5.7h-6.1v6.6h5.3v5.7h-5.3v6.8h6.1z"/></svg>