<svg version="1.1" xmlns="http://www.w3.org/2000/svg" xmlns:xlink="http://www.w3.org/1999/xlink" x="0px" y="0px"
	 viewBox="0 0 1024 442" style="enable-background:new 0 0 1024 442;" xml:space="preserve">
<style>
	.eds-c-logo__foreground { fill: #fff }
</style>

<g class="eds-c-logo__foreground">
	<path d="M282.979,51.47v-1.215C286.317,47.957,285.445,53.918,282.979,51.47"/>
	<path d="M250.775,98.856c0.285,1.902-1.297,1.931-3.047,1.826C247.705,98.856,249.525,97.594,250.775,98.856"/>
	<path d="M214.932,101.291c-1.809-0.006-3.716,0.041-3.646-1.838C212.879,98.82,215.252,98.494,214.932,101.291"/>
	<path d="M225.865,98.856c-0.076,1.088,0.75,1.297,0.616,2.437c-0.867,0.779-3.268-0.326-3.646-1.838
		C224.277,99.706,224.155,98.374,225.865,98.856"/>
	<path d="M239.235,100.684c-0.983,0.983-3.821,0.715-3.646-1.227C237.031,99.039,239.432,98.073,239.235,100.684"/>
	<path d="M263.531,99.457c-0.052,1.553-0.872,2.361-2.419,2.443c-0.407-0.616-1.402-0.616-1.221-1.82
		C260.617,99.369,262.024,99.387,263.531,99.457"/>
	<path d="M260.506,107.361c2.198,0.419,2.245,3.013,2.425,5.473c-4.193-1.25-7.246,2.559-8.502-2.431
		c1.948,0.547,1.908-0.942,2.437-1.826c1.826-0.035,2.35,1.291,3.641,1.826C262.28,109.874,259.709,108.879,260.506,107.361"/>
	<path d="M231.935,108.575c1.413,0.616,1.977,2.099,1.838,4.257c-3.518-0.401-4.385-0.401-7.909,0
		c-0.535-1.064-1.687-1.547-1.221-3.641C225.52,110.128,232.29,112.192,231.935,108.575"/>
	<path d="M297.564,310.909c-16.58,6.502-28.665,17.505-49.834,19.436c8.601-6.81,18.482-12.312,26.746-19.436H297.564z"/>
	<path d="M313.367,63.001c-2.797,1.378,1.803,3.705,1.215,6.688c-1.774,0.151-1.855-1.384-3.67-1.227
		c-0.936-2.832,0.541-2.006,0.628-4.856c-3.926-0.925-7.043-2.675-6.682-7.892c-4.687,1.192-4.525,7.235-7.293,10.346
		c4.937-3.146,12.661,1.332,14.586,6.665c6.072-0.157,7.304,2.873,12.748,0.611c-1.849,5.653-3.286,11.707-7.293,15.202
		c-0.413,3.036,1.035,4.216,0.616,7.275c-1.25-0.151-1.215-1.617-1.82-2.413c-1.855,0.977,2.012,2.914,0,4.228
		c-1.972-0.465-1.46-3.414-2.437-4.85c-1.698,1.751,1.5,3.739,0.616,6.682c-2.402-2.251-2.629-6.705-2.431-11.532
		c-3.297,0.611,1.297,6.072-2.437,5.473c-0.419-2.46,0.593-3.478,0.599-5.473c-3.181-0.57-0.89,4.362-2.425,5.473
		c-2.041-7.281-3.286-15.342-6.671-21.285c-3.309-0.064-5.374,1.134-4.874,4.862c-8.758,6.025-13.225,16.342-19.43,24.92
		c5.775,1.489,9.968,10.206,4.257,14.586c-17.645,1.721-29.421-0.837-44.984,1.198c-7.775-0.006-16.627-1.995-26.118-1.198
		c-8.386,0.68-14.801,1.291-15.801-5.478c-0.727-5.025,2.477-6.624,5.472-9.107c-6.013-8.764-10.753-18.814-18.843-25.519
		c1.849-6.124-5.426-8.933-7.287-4.263c1.21,7.165-0.047,16.354-6.671,17.627c-0.727,3.943-1.361,7.95-4.257,9.718
		c0.244-3.402,3.233-4.042,2.419-8.52c-3.443-1-1.983,2.873-3.641,3.675c-1.814-0.419,0.576-1.314,0-2.443
		c-1.518-0.099-1.489,1.355-2.437,1.826c1.454-5.955-4.426-13.329-6.072-20.046c2.541-0.651,4.117,1.268,5.455,0
		c1.349-0.07,0.273-2.588,0.616-3.652c0.983-0.861,3.152-0.5,3.658-1.838c1.57,0.523-1.181,2.675,0.605,3.652
		c4.426-3.722,10.311-11.777,17.61-5.455c-2.443-4.228-5.885-7.473-7.287-12.759c-0.896,5.787-5.112,8.235-6.671,13.358
		c-2.076-1.518,1.652-2.332,0.616-4.856c-1.53,2.774-3.611,1.215-3.652,5.455c-0.82-0.18-0.529-1.518-0.616-2.425
		c-0.797,1.239-0.657,3.391-3.641,2.425c2.792-6.589-4.391-11.666-5.478-18.22c3.379-0.523,3.449,2.222,6.077,2.425
		c1.826-1.803,2.6-4.67,3.658-7.281c9.363-3.425,11.905,4.49,13.958,10.317c1.413-1.221,0.227-5.031,0.628-7.275
		c-1.39-1.064-2.204-2.664-3.658-3.658c-1.338-8.787-9.183-11.05-11.544-18.848c8.031-3.85,13.167,4.868,12.771,13.393
		c0.541,1.076,1.343,1.878,2.431,2.425c1.39,0.198,0.675-1.751,1.809-1.814c-0.349-2.274-1.431-3.862-2.437-5.484
		c1.791-10.288-5.339-11.649-7.281-18.226c3.501-0.279,6.362,0.413,7.909,2.431c2.844,3.763,0.564,11.131,4.24,13.382
		c1.262-0.366-0.867-2.315-0.616-3.652c3.862-6.513-1.727-11.294-2.419-17.017c8.723-0.506,5.525,9.398,6.688,15.19
		c5.414-4.414,1.995-12.992-0.616-17.616c6.926-2.605,6.188,8.712,6.077,13.358c6.095-2.129,1.093-9.369,3.042-14.574
		c5.787,0.896,3.402,5.984,3.036,10.928c4.699-0.163,3.46-6.252,3.652-10.928c6.99-0.122,0.727,6.729,2.425,9.724
		c3.972-1.093,2.047-8.095,7.287-7.903c1.559,2.954-1.855,4.094-2.425,6.676c0.814,2.018,4.635,1.047,4.234,4.257
		c-3.803,2.03-6.089,0.971-10.317,1.82c-34.998,7.147-18.052,61.995,0.616,75.941c2.879-8.822-4.996-16.679-7.898-23.675
		c-3.542,0.407-4.85,0.384-7.304-1.227c0.547-4.402-0.529-7.159-2.425-9.119c-1.25-11.271,5.071-17.249,10.317-23.681
		c6.676-1.279,9.52-3.46,16.412-3.646c5.414,2.914,13.579,3.042,17.639,7.287c2.466-1.576,3.978-4.106,4.251-7.903
		c-1.46-1.384-2.233,1.343-4.868,0.616v-8.508c2.541-0.523,2.873,1.181,4.868,1.204c0.419-3.065-1.675-3.582-1.832-6.06h11.544
		c0.343,2.152-0.692,2.931-1.215,4.245c1.396,1.698,3.216-0.82,4.85,0.611c-0.768,2.472-0.297,6.159-1.198,8.508
		c-2.541,0.512-2.873-1.198-4.856-1.227c-1.477,3.769,2.338,6.258,3.629,9.113c7.217-4.1,15.609-7.525,26.13-6.659
		c6.897,1.599,10.957,6.048,16.412,9.102c2.21,9.2,3.571,17.319,0,26.118c-2.03,0.192-2.698,1.774-5.478,1.227
		c-3.949,7.392-11.457,14.458-9.724,25.507c14.091-13.667,31.742-51.23,12.765-71.102c-5.624-5.891-15.347-6.124-24.298-9.706
		c0.477-1.954,3.117-1.727,4.257-3.042c0.052-2.809-3.216-5.536-0.611-7.281c4.635,0.209,0.692,9.032,5.478,9.096
		c3.309-1.681-3.524-9.619,3.018-9.706c1.361,3.315-0.116,9.456,3.047,10.933c4.757-1.623-1.966-8.235,1.21-12.16
		c1.721-0.494,1.57,0.867,3.042,0.622c-0.622,5.618-2.53,11.527,1.814,14.574c1.471-4.78-0.744-13.3,6.694-12.155
		c0.616,4.862-2.768,5.763-3.652,9.119c1.285,2.972,1.122,7.392,4.269,8.508c0-5.443-1.681-14.562,6.665-14.591
		c-0.407,5.042-5.798,13.108-3.629,20.669c3.501-0.14,1.931-3.484,2.408-5.467c1.855-7.334,5.193-15.097,12.765-12.16
		c-4.106,6.223-10.416,10.253-10.323,20.669c-1.908,0.337-2.192,2.262-2.443,4.245c0.361,0.867,0.971,1.477,1.844,1.832
		c3.367-7.229,7.927-19.529,18.232-15.813c-5.699,5.443-13.347,8.968-13.981,19.453c-2.105,0.134-1.995,2.46-3.652,3.047v6.671
		c3.524-4.676,7.444-15.592,16.4-9.107c0.954,1.884,1.82,3.867,3.042,5.455c1.634-0.395,3.222-2.652,4.856-1.204
		c-2.053,4.559-2.018,13.987-7.281,13.359c-0.25,1.477,1.111,1.314,0.616,3.042C313.733,66.705,313.582,64.815,313.367,63.001
		 M284.195,55.097c-0.256,2.704,0.349,4.542,3.03,4.269C291.645,57.709,287.382,51.073,284.195,55.097 M235.588,24.117
		c-1.466,4.978,7.543,4.978,6.089,0C238.862,23.902,238.165,23.367,235.588,24.117 M241.677,32.62
		c1.082,0.547,1.541,1.704,3.629,1.215c0.308-1.372,1.204-3.1,0-4.251C242.968,29.468,241.817,30.555,241.677,32.62 M231.337,33.835
		h3.047v-3.018C232.285,28.654,229.179,31.765,231.337,33.835 M236.798,33.835c2.274,0.238,3.588-0.471,3.646-2.413
		c-0.471-0.14-0.692-0.523-0.599-1.221h-3.047C236.257,31.969,236.257,32.067,236.798,33.835 M236.798,38.092
		c3.978,0.803,4.583-3.408,0.616-3.042C236.908,35.749,236.623,36.679,236.798,38.092 M202.177,42.355
		c1.53,4.298,8.287,1.768,5.473-3.036C204.864,37.79,202.282,39.424,202.177,42.355 M210.069,42.355
		c1.873,1.948,6.17,1.541,6.077-1.832c-0.756-0.256-1.233-0.803-1.215-1.814C211.756,38.389,209.523,38.971,210.069,42.355
		 M264.155,44.78C272.145,35.842,254.187,40.308,264.155,44.78 M273.861,43.565c0.704-4.792-2.6-5.473-5.461-3.641
		C266.969,44.548,271.756,46.106,273.861,43.565 M233.169,42.966v2.425c4.147-0.11,3.222,2.146,5.461,3.03
		c0.803-1.623,1.146-3.722,4.251-3.03c1.256-4.292-4.554-1.529-3.646-5.467h-2.437C237.711,43.059,234.693,42.262,233.169,42.966
		 M217.362,42.966c1.791-1.157,3.995-0.07,2.431,1.814c1.541-0.081,2.344-0.884,2.437-2.425c-0.489-0.14-0.715-0.523-0.611-1.221
		C219.677,41.204,216.978,40.541,217.362,42.966 M253.826,45.996c1.047-0.035,1.541,0.465,1.809,1.21
		c2.861-0.326,4.542-3.175,3.036-6.072C254.809,40.488,253.181,42.099,253.826,45.996 M201.573,42.966
		c-1.745-0.948-4.007-1.692-6.077-0.611c0.07,1.745-0.337,3.972,0.587,4.85C199.706,47.572,201.846,46.479,201.573,42.966
		 M275.076,43.565c-0.401,2.623,1.058,3.396,1.838,4.856c1.599,0.715,3.571-1.169,3.641,0c-0.297,2.326,0.157,3.891,1.204,4.862
		h3.652c1.343-0.832,1.785-4.6,0.616-6.077c-2.152-1.099-3.792,0.837-4.856,0c0.244-2.082-0.25-3.402-0.616-4.85
		C278.455,41.274,276.013,41.82,275.076,43.565 M223.439,45.996c0.948,0.942,3.542-1.035,4.24,1.21
		c0.704-0.698,0.704-2.129,0.616-3.641C226.074,42.419,223.439,43.216,223.439,45.996 M248.342,48.421
		c1.535-2.373,2.082-0.361,0.616,1.215c2.675,0.436,3.158-1.314,3.652-3.03c-0.454-1.564-1.954-2.111-4.269-1.826
		C247.865,45.199,247.004,48.171,248.342,48.421 M197.92,49.636c-3.763,3.99-7.618,18.406,0.616,20.663
		c0.994-4.24-1.628-7.985-0.616-12.137c2.803-11.451,22.03-9.73,30.375-4.263C224.387,44.053,206.272,43.803,197.92,49.636
		 M248.342,53.899c8.491,0.43,23.164-10.334,28.572,0c2.192,4.176-0.965,11.631,4.257,13.958
		C290.534,47.014,258.031,39.599,248.342,53.899 M190.622,52.062c3.513,2.105,6.944-1.338,4.874-4.856
		C191.843,44.961,188.4,48.421,190.622,52.062 M165.713,53.283c-1.088-0.535-0.994-2.245-2.425-2.425
		c-0.704,2.605-2.495,3.559-5.473,2.425c-0.111,6.804,8.276,8.316,12.765,4.269c-0.285-3.356-0.547-6.764-3.024-7.915
		C167.26,51.201,166.69,52.434,165.713,53.283 M233.169,68.462c1.838-1.716,4.147,0.25,6.676-1.204
		c0.128-1.134-0.686-1.332-0.611-2.425c-2.152-1.564-3.327,1.227-4.85,0c0.675-4.967-0.407-12.265-3.652-15.196h-1.215
		C230.575,56.063,232.198,61.931,233.169,68.462 M235.588,53.283c0.739-1.698,0.355-3.873-2.419-3.646
		C233.681,51.131,233.704,53.137,235.588,53.283 M240.444,53.283c2.547,0.32,2.408-2.047,3.036-3.646
		C241.067,49.439,240.2,50.805,240.444,53.283 M241.677,67.857c2.076-5.816,3.937-11.829,5.473-18.22
		C242.166,51.8,239.636,62.733,241.677,67.857 M310.912,53.283c-0.867-1.151-1.326-2.698-3.623-2.425
		c-0.285,4.019-1.309,7.45,1.21,9.712h7.903c1.82-1.215,1.541-4.513,2.443-6.671c-1.495-1.547-1.309,1.268-3.646,0.611
		c-0.651-1.407-0.395-3.675-1.233-4.874C311.453,49.34,313.012,53.137,310.912,53.283 M202.776,56.941
		c9.817-0.814,14.161,3.466,25.519,1.221C223.242,52.253,207.539,48.217,202.776,56.941 M247.15,58.162
		c11.242,2.076,18.569-1.041,27.927-1.221C269.482,46.926,254.879,55.813,247.15,58.162 M188.191,65.432h3.652
		c0.361-4.658-0.523-6.176,1.215-10.922c-1.285-1.861-4.682-1.338-6.072,0c-0.68,2.902,1.489,2.949,1.82,4.856
		c-0.832,1.407-2.437,2.006-1.82,4.85c1.204,0.145,2.454-2.71,3.635-0.611C190.814,65.228,187.22,63.053,188.191,65.432
		 M235.588,58.162c1.006-0.087,3.867,1.954,3.646-0.611C238.892,56.266,235.303,56.778,235.588,58.162 M239.235,62.402
		c0.279-1.902-1.297-1.948-3.047-1.832C235.536,63.03,238.048,63.582,239.235,62.402 M285.411,66.659
		c2.472-0.349,4.1-1.564,4.269-4.257C287.022,58.773,281.625,63.832,285.411,66.659 M258.083,64.216
		c-3.001,1.279-1.402,7.136-3.652,9.119c-1.867-0.57-2.454-2.413-5.473-1.82c-2.222,1.902-2.518,7.264,0.616,8.514
		c0.89-5.1,15.877-5.827,15.185,1.204c3.518-0.273,3.321-4.873,2.414-7.898c-2.198-1.902-4.81,1.274-6.06,0
		C261.997,69.939,262.206,64.333,258.083,64.216 M216.147,73.952h-5.478c-1.367,2.03-1.553,5.339,0.616,6.688
		c3.286-3.646,13.742-6.362,17.011-1.221c1.838-1.908,1.588-6.671-0.616-7.903c-2.693-0.465-4.024,0.419-5.449,1.21
		C222.433,62.384,211.785,64.629,216.147,73.952 M191.843,72.725c2.722,0.093,2.722-2.925,1.82-4.868
		C188.877,66.06,187.976,72.725,191.843,72.725 M282.98,70.91c2.204-1.588,2.728,1.204,4.245,0c0.518-1.721-0.849-1.588-0.599-3.053
		C283.91,67.392,282.741,68.438,282.98,70.91 M296.966,70.299h3.03C300.188,67.444,297.187,68.659,296.966,70.299 M235.588,69.689
		c0.529,3.321,2.099,5.589,2.437,9.101c3.856-0.901,1.134-6.066,3.652-9.101C239.723,69.572,237.199,68.27,235.588,69.689
		 M277.513,75.15c2.245-0.355,2.495-2.751,3.042-4.85c-1.518,0.087-1.884-0.954-3.042-1.227
		C276.583,70.189,276.583,74.045,277.513,75.15 M163.905,75.15c-1.076-0.518-1.785-1.471-3.047-1.815
		c-0.837,0.785-0.611,2.646-0.611,4.269h-3.652c1.163,2.472,1.163,6.124,3.053,7.892c3.14-0.518,6.496-0.814,10.311-0.622
		c2.088-2.175,1.908-6.601,1.838-10.922c-1.925-0.285-1.39,1.844-3.641,1.198c0.023-1.832,0.343-3.99-1.844-3.635
		C165.952,73.167,165.126,74.359,163.905,75.15 M197.92,72.725c-0.233,2.873,0.052,5.217,3.036,4.879
		c2.256-0.395,1.849-3.425,1.82-6.089C200.235,71.003,199.909,72.701,197.92,72.725 M269.621,80.029
		c2.838,0.215,4.152-1.111,5.455-2.425c0.163-3.402-1.675-4.81-4.251-5.49C270.209,74.545,269.941,77.296,269.621,80.029
		 M306.074,75.15c0.361,3.472,0.32,7.374,1.215,10.346c5.269,0.448,17.011-0.704,13.37-9.119c-1.221,0.797-2.134,1.931-3.652,2.413
		c0-1.599,0.227-3.443-0.605-4.24c-2.634-0.192-1.5,3.344-4.251,3.053c-1.111-1.727-0.832-4.856-3.042-5.49
		C308.417,73.451,308.615,77.522,306.074,75.15 M241.677,78.203c1.419-0.029,1.785,1.035,3.629,0.587
		c0.401-1.367,1.204-3.658,0-4.839C242.794,74.062,241.206,75.097,241.677,78.203 M231.936,78.79
		c5.443,1.535,5.118-4.908,0.616-4.24C231.721,75.347,231.954,77.191,231.936,78.79 M203.998,78.79
		c-0.017,2.379,3.367,3.507,4.862,2.443c-0.593-2.245-0.82-4.873-2.431-6.083C205.987,76.743,204.242,77.011,203.998,78.79
		 M217.362,80.64c0.814,0.814,4.24,1.146,4.257-0.611C220.52,78.895,218.205,79.703,217.362,80.64 M210.668,87.31
		c-2.844-1-4.804-2.861-7.275-4.263c-1.518,5.263,4.577,7.892,11.538,6.694c4.461-9.602,16.702,1.89,21.256-7.293
		c4.042,1.53,13.457,6.589,18.848,1.21c1.431,0.204,2.291,0.96,4.24,0.611c3.646,10.259,16.58,4.606,17.028-4.85
		c-4.583,1.5-3.571,8.572-11.544,6.694c-2.082-0.983-2.477-3.612-4.868-4.269c-6.054-0.454-9.695,3.518-14.586,2.425
		c-2.972-0.651-4.123-5.827-8.508-4.24C231.895,89.386,217.717,79.36,210.668,87.31 M244.097,91.55
		c-2.693,0.704-10.433,1.663-12.16-0.611c-1.029-1.96,2.914-2.902,0-3.013c-3.379,1.576-6.322-0.954-9.101-1.814
		c-1.75,2.629-5.071,0-5.473,3.629c3.233,0.791,3.111-1.762,6.077-1.204c0.256,1.134,1.727,1.087,1.204,3.012
		c-0.907,2.268-4.862,2.861-7.281,1.849c-0.558-1.791-0.558-1.896,0-3.658c-2.297,2.163-6.037,2.896-10.933,2.431
		c-0.477,4.304,4.164,3.577,6.066,3.641c4.606,0.204,12.341-0.995,18.843-1.198c6.508-0.238,13.225-0.419,18.837-0.616
		c6.926-0.268,17.331,3.46,20.064-1.826c-5.222,0.547-7.328-2.001-10.346-3.635c0.558,1.768,0.558,1.855,0,3.635
		c-2.222,0.96-6.356,0.89-7.281-1.233c0-1.588-0.366-3.559,1.215-3.629c3.222-0.797,3.082,1.768,6.066,1.227
		c-2.646-6.217-9.346-0.163-13.969-0.611c-4.542-0.471-8.543-6.223-11.538-0.616C237.868,90.305,243.625,83.949,244.097,91.55
		 M241.677,98.244c-1.425,0.017-1.791-1.047-3.652-0.616c-0.047-0.355-0.087-0.698-0.611-0.587
		c-8.892,4.315-28.229-4.059-32.207,4.251c8.532,2.774,21.46,1.873,30.381,0.605c10.119,1.122,25.438,2.419,34.65-1.21
		C268.33,94.318,247.103,97.517,241.677,98.244 M221.619,105.548c-0.425,9.084,9.607,11.817,16.406,8.497
		c-1.78-3.292-3.106-7.019-6.089-9.113C227.202,106.345,224.62,103.46,221.619,105.548 M267.173,114.644
		c-0.384-4.257-2.908-6.374-4.85-9.096c-4.589,0.331-8.124-0.413-12.149-0.616C250.407,114.428,259.712,115.429,267.173,114.644
		 M197.316,109.189c0.721,0.297,1.378,0.646,1.838,1.215c1.745-1.832,7.095-1.989,6.054,2.425c-2.658-3.135-3.635-0.273-7.287,0
		c1.553,3.315,6.426,2.222,10.329,2.425c-0.71-3.92-2.536-6.781-4.251-9.706C200.514,105.501,198.287,106.705,197.316,109.189
		 M216.147,112.829c-0.163-3.472-1.431-5.874-4.245-6.682C212.558,109.142,213.896,111.451,216.147,112.829 M274.477,114.045
		c-0.43-3.838-1.681-6.816-4.856-7.898C270.168,109.84,271.302,112.975,274.477,114.045"/>
	<path d="M366.225,69.075c4.234-3.245,4.344-10.619,9.712-12.759c5.705,5.798,1.25,14.801,0.616,22.477
		c-0.25,3.123,0.244,6.386,0,9.747c-0.582,8.09-4.112,14.76-3.658,23.082c0.518,9.032,4.402,17.982,3.658,27.322
		c-0.326,3.92-1.617,7.339-1.21,10.945c0.646,5.938,4.536,13.69,6.688,21.268c2.059,7.368,4.53,15.161,6.676,21.262
		c2.925,8.357,8.753,15.313,9.113,27.95c0.39,14.068-1.181,30.771-1.221,47.392c-0.023,13.649-0.587,36.918,5.478,44.362
		c11.067,13.585,41.814,4.751,57.714,11.532c0.995,2.646,2.629,4.653,3.036,7.903c-15.946,5.374-33.399,4.507-50.427,6.072
		c-8.066,0.768-16.063,2.914-24.309,3.67c-13.469,1.175-27.328,0.134-41.303,1.198c-20.529,1.541-46.682,3.524-68.06,2.431
		c-5.792-0.297-11.655,0.96-16.999,0.605c-10.119-0.657-19.006-2.966-28.561-1.803c-19.197,2.291-43.71,3.327-64.42,2.414
		c-14.766-0.651-29.479-0.122-43.129-1.215c-8.566-0.675-15.784-1.675-26.135-2.431c-15.062-1.064-31.317-7.374-49.206-6.083
		c-12.19,0.89-27.601,2.454-38.279-3.036c1.814-12.475,22.89-9.154,36.452-10.329c13.213-1.146,23.478-3.763,29.177-10.928
		c3.955-23.739,4.379-48.787,2.408-70.48c-1.605-17.825,1.768-32.434,6.095-44.966c1.867-5.443,2.158-11.41,3.635-15.801
		c1.559-4.594,4.798-8.345,6.066-12.759c0.791-2.629,0.413-5.874,1.239-8.491c0.965-3.199,3.687-5.862,4.245-9.131
		c0.965-5.74-1.268-13.702-0.616-21.256c0.57-6.636,2.693-12.806,2.419-18.238c-0.413-8.776-3.007-17.93-3.635-26.124
		c-0.204-2.704,0.39-5.519,0-7.898c-1.006-6.229-6.351-12.509-1.204-20.041c6.793,0.872,8.497,6.874,10.945,12.137
		c5.688-1.983,5.286-10.073,9.7-13.364c5.763,3.658,3.245,14.859-1.198,18.238c2.297,1.942,6.711,1.768,8.497,4.257
		c1.495,1.053,1.425,3.646,0.605,5.455c3.024,3.332,9.282,4.996,6.682,12.155c-2.262,2.198-6.49,2.425-9.718,3.641
		c0.081,10.881,6.647,15.231,11.55,21.279c4.211-8.77,14.999-12.376,25.513-17.017c6.758-2.983,15.132-8.037,21.256-4.263
		c-2.681,5.176-10.026,8.351-17.011,12.759c-8.508,5.391-20.82,9.573-14.586,22.466c8.596,1.803,12.475-6.042,17.04-10.311
		c5.35-1.221,10.928,1.157,13.946,5.472c39.604,0,75.865,0.052,114.841,0c2.065-2.181,4.589-3.926,7.304-5.472
		c7.485,0.593,13.143,2.477,15.789,9.113c2.693-0.465,3.646,0.814,6.077,0.611c10.98-18.982-24.21-23.542-31.602-33.411
		c3.152-6.432,13.638-1.611,20.669,1.215c11.637,4.647,22.309,9.259,26.124,20.052c6.374-5.205,13.207-13.079,13.37-22.495
		c-3.518-3.559-10.369-1.413-12.166-5.455c-2.693-6.205,10.957-6.135,7.293-15.208c2.227-1.215,4.821-2.076,6.694-3.641
		c-1.896-6.194-4.571-16.673,1.215-20.64C361.846,57.659,361.55,65.853,366.225,69.075 M358.95,61.183
		c-0.233-1.814-0.366-3.71-1.838-4.245C356.973,59.09,357.519,60.567,358.95,61.183 M98.875,68.459
		c2.466,0.047,1.105-3.763,3.646-3.629c1.53,2.129,1.076,6.217,4.257,6.682c-1.343-5.129-2.303-10.648-7.293-12.143
		C98.747,61.666,97.334,65.83,98.875,68.459 M114.071,70.302c2.065-2.995,3.972-6.17,4.856-10.334
		c-0.14-0.465-0.5-0.709-1.198-0.599C117.09,63.585,114.164,65.533,114.071,70.302 M368.04,71.512h3.042
		c0-1.593-0.331-3.571,1.215-3.652c2.64-0.867,2.792,2.076,4.257,0.599c0.407-3.559,0.779-6.176-0.616-9.09
		C370.308,60.404,371.349,68.156,368.04,71.512 M361.963,69.075c0.71-0.75-0.785-4.426-2.431-4.856
		C359.601,66.598,359.974,68.639,361.963,69.075 M358.95,72.722c0.273-1.902-0.779-2.466-1.838-3.036
		C356.99,71.431,357.043,73.012,358.95,72.722 M374.734,80.026c-0.384-1.268,0.977-4.228-1.227-3.646
		C372.123,77.746,373.943,79.055,374.734,80.026 M101.917,81.841c0.704-0.419,2.669-4.298,0-4.234
		C101.917,78.671,100.288,81.137,101.917,81.841 M352.844,87.924c-0.361-1.093,1.803-2.518,0-3.047
		c-1.425,2.413-5.885,1.832-6.665,4.862c1.151,1.268,4.658,0.18,3.623,3.664c-1.053,0.326-3.548-0.75-3.623,0.599
		c3.832,0.564,7.159,4.024,10.933,1.198c-0.163-2.466-1.931-3.332-1.215-6.659c2.664-1.413,5.595-2.512,9.113-3.042
		c1.535-1.489-1.279-1.297-0.622-3.658c1.175-0.134,1.361,0.68,2.454,0.605C361.492,75.129,360.695,89.988,352.844,87.924
		 M113.472,84.876c-2.059,0.233-1.105-2.559-3.053-2.431C109.483,84.865,112.484,86.4,113.472,84.876 M126.226,89.139
		c-1.942-0.285-2.152-2.326-4.251-2.431c0.174,3.867,1.239,6.862,4.251,7.903c0.785-2.46,3.082-3.425,3.646-6.072
		c-0.837-1.047-2.605-4.245-4.251-2.431C126.133,86.481,127.523,88.936,126.226,89.139 M356.496,98.241
		c1.797,17.767-17.412,22.152-18.238,36.441c-0.291,5.443,1.861,10.73,2.448,17.046c3.408-0.425,6.217-1.483,9.096-2.437
		c1.012-2.46,1.07-5.827,2.454-7.903c1.495,0.081,2.925,0.087,3.641-0.599c3.798-11.893,2.524-26.322,5.455-35.243
		c-1.646,0-2.838,2.553-3.652,0c1.146-3.292,7.828-11.079,1.832-12.143C360.183,96.659,357.519,96.63,356.496,98.241
		 M121.364,97.043h3.641c-0.372-1.657-1.669-2.396-3.641-2.431V97.043z M109.227,98.857c1.186-0.832,4.327,0.297,3.646-2.431
		c-2.204,1.169-2.251-0.25-4.269-0.611C108.354,97.293,109.715,97.159,109.227,98.857 M120.759,126.191
		c-1.285-2.361-1.832-5.455-4.868-6.072c0.337,6.572,4.083,9.7,4.868,15.789c-4.722-1.372-1.902,9.235-9.131,7.304
		c-3.251,13.039,15.813,8.846,23.716,12.771c0.18,1.378-1.762,0.657-1.832,1.809c8.473-0.297,20.273,1.669,27.345,2.431
		c-2.786-2.361,2.954-3.472,1.215-4.856c-2.507-0.489-3.123,0.919-5.478,0.616c0.14-1.977-1.064-2.576-0.587-4.879
		c-10.049,5.374-26.246,0.349-37.08-3.641c0.372-1.268-0.733-4.001,0.616-4.251c1.332,3.106,4.129,4.78,8.502,4.862
		c0.878-1.146,0.041-4.024,1.221-4.862c3.35,1.902,4.897,5.624,8.502,7.281c5.205-24.868-12.108-32.422-17.627-48.595
		C119.561,110.721,121.893,117.706,120.759,126.191 M330.977,131.669c3.949-4.81,1-15.656-3.652-15.19
		C331.57,118.973,332.117,127.266,330.977,131.669 M148.098,138.339c-4.379-5.606-1.751-17.685,0.605-21.245
		C142.696,120.706,142.574,134.094,148.098,138.339 M300.608,134.681c-16.545-2.129-39.523-1.198-61.983-1.198
		c-20.151,0-41.402-2.03-57.121,0c-5.676,0.744-10.957,4.559-16.4,1.198c-2.315,3.978-0.773,11.812-1.204,17.65
		c1.524,0.5,2.815,1.221,3.658,2.431c-0.029,4.891-0.71,7.025,0,11.538c-2.047,0.593-2.978,2.291-4.269,3.629
		c-2.245,28.88-1.57,61.855,10.323,80.227c5.164-3.751,11.114-6.717,18.848-7.921c3.175-13.76,9.072-26.42,13.359-39.471
		c4.251-12.963,11.777-25.536,10.329-40.116c-6.921,0.355-14.394,0.477-20.064,0.616c5.438-3.042,9.183-11.16,14.586-13.975
		c7.281-3.809,12.754,2.262,13.975,7.892c5.193,23.577-21.413,58.976-13.975,83.233c15.028-2.28,18.5-16.807,28.566-24.304
		c3.053-2.256,6.548-4.106,10.939-5.455c1.349-0.884,1.768-2.698,3.652-3.042c2.21,0.012,1.291,3.17,4.257,2.431
		c2.943,0.111,2.123-3.548,4.844-3.646c2.861,2.158,2.861,4.356,7.31,2.431c1.378,1.454,1.948,3.71,2.408,6.083
		c4.437-1.361,4.339,3.728,6.688,6.06c9.043-1.57,11.509,7.682,20.663,7.299c3.106,7.043-5.071,7.828-3.652,15.179
		c3.734,2.158,7.642,4.129,10.945,6.705c7.77-21.907,8.444-53.097,9.113-80.227c-4.699-3.018-6.391-11.934-4.251-18.203
		c1.483,0.058,2.925,0.081,3.641-0.622C318.38,138.473,310.744,130.669,300.608,134.681 M358.95,148.075
		c-7.839,4.577-24.158,7.502-33.434,4.862c0.744,0.233,1.239,0.779,1.221,1.826c-0.43,1.198-3.408-0.145-3.652,1.221
		c1.518-0.105,2.949-0.116,3.03,1.198c-0.378,1.791-3.914,2.46-2.419,4.257c14.452-3.891,34.19,0.215,48.002-3.646
		c0.744-3.111,2.28-8.636,0.599-12.149c1.169,9.468-9.404,10.439-17.616,8.502c11.881,0.314,10.887-14.655,5.467-20.663
		C359.741,138.339,359.788,143.667,358.95,148.075 M153.571,139.572c1.611,2.46,6.676-0.628,6.676-3.664
		C157.834,136.926,154.722,137.264,153.571,139.572 M319.439,138.339c1.041,0.087,4.984,1.989,4.874-0.593
		c-1.157-1.088-2.472-2.012-4.874-1.838V138.339z M334.007,144.428h3.053c-0.093-2.355,0.471-5.345-1.215-6.089
		C335.403,140.538,333.518,141.294,334.007,144.428 M140.806,147.464c2.274,0.244,3.565-0.488,3.658-2.437
		c-1.931-0.71-1.309-3.96-3.658-4.24V147.464z M156.008,143.213c0,2.821,0.727,4.932,3.641,4.862c0.512-1.518,1.186-4.728,0-6.089
		C157.369,141.34,157.898,143.504,156.008,143.213 M320.061,149.29c1.117-2.129,2.402-4.071,2.413-7.304h-3.629
		C319.479,144.184,317.461,149.04,320.061,149.29 M329.162,151.727c3.175,1.105,5.252,1.262,8.508,0
		C338.421,145.161,327.848,144.516,329.162,151.727 M142.626,151.727c1.838-0.209,4.728,0.675,4.862-1.233
		c-0.465-0.14-0.698-0.5-0.605-1.204C144.528,149.156,143.08,149.936,142.626,151.727 M212.495,155.368v-2.431h-3.024
		C209.035,155.187,210.425,155.612,212.495,155.368 M108.005,157.793c7.002-0.68,16.83,1.454,21.867-1.21
		c-7.194-3.297-15.598,2.687-21.867-2.437V157.793z M128.651,217.95c4.786,17.895-3.46,33.731-4.856,52.236
		c-1.058,13.946,0.768,27.328,0.616,38.284c4.78,0.686,12.37-1.431,15.179,1.198c-1.64,1.419-9.538-0.215-9.131,1.239
		c12.434,0.436,23.03,2.35,35.254,1.215c-3.222-4.92-12.457-5.234-20.052-6.072c-5.124-0.576-10.544-0.471-15.202-1.21
		c-4.594-8.514-0.343-21.814,0.616-34.655c0.558-7.188-0.233-15.365,1.239-21.256c1.361-5.56,4.955-9.997,6.054-14.58
		c2.489-10.41,0.744-24.408-3.024-31.585c-2.041-1.157-2.001,2.745-3.03,0.599c0.279-4.92,0.634-10.433,1.198-15.196
		c1.169-9.741,5.757-21.285,0-26.729c-4.612,9.299-2.757,22.664-13.37,26.729c-1.372,6.13,7.63,8.532,1.832,13.382
		c-4.885,0.023-9.945-5.583-13.969-2.437C119.189,199.671,126.005,208.04,128.651,217.95 M139.59,161.439
		c-0.035,11.695-1.954,26.252-2.437,39.477c4.449,8.944,6.95,16.627,6.083,26.147c-1.018,11.247-8.689,21.221-9.724,31.602
		c-1.506,15.109-0.756,28.223-1.82,43.129c7.781,2.152,15.598,3.303,23.699,4.257c4.362,0.518,9.096-0.605,13.359,0
		c4.705,0.663,8.851,4.141,13.364,4.856c9.148,1.431,17.796-1.75,26.746,1.215c4.519,7.014,13.556,9.509,18.22,16.418
		c-14.184-4.466-27.235-10.038-40.698-15.202c-2.437-0.151-3.705,2.617-6.688,3.047c-1.57,0.204-3.769-1.076-5.473-1.227
		c-15.196-1.338-38.43-0.419-55.295-1.82c13.597,9.13,46.141-3.699,51.032,13.364c-4.199,2.943-10.206,0.355-16.388,0
		c-13.667-0.779-28.572-1.402-38.889,0c-16.266-4.007-31.817,2.094-48.008,3.646c-17.086,1.669-34.213,0.535-49.817,0
		c4.001,5.583,14.731,4.286,23.088,3.641c6.944-0.541,14.522-2.414,20.651-0.611c1.954,0.541,1.274-1.576,2.448-1.82
		c4.525,3.739,12.847,0.058,19.442,0.622c1.698,0.134,3.1,1.564,4.844,1.809c5.926,0.808,12.219-0.407,18.232,0
		c4.955,0.326,9.741,1.82,14.58,1.832c13.295,0.029,26.205-1.349,37.069,1.809c1.378-0.244-0.308-3.577,2.437-2.425
		c4.525-0.07,7.363,1.547,11.538,1.832c4.077-3.466,10.835-0.564,17.005-0.622c11.445-0.093,26.967-2.832,37.086-1.21
		c3.606,0.576,7.159,3.425,11.521,4.263c6.217,1.146,13.428-1.745,20.07-1.838c1.785-0.012,2.565,0.849,4.245,0.605
		c4.414-0.564,8.648-2.547,13.364-2.414c0.448,1.878-1.669,1.163-1.221,3.024c6.008,0.023,11.311-3.803,17.621-4.856
		c8.055-1.338,16.697,2.065,25.525,2.425c6.659,0.285,15.737-1.78,21.268-2.425c7.461-0.867,14.068,1.349,20.029,0
		c6.135,3.547,12.213-1.431,18.854-1.204c2.384-0.378,0.71,3.332,3.635,2.419c4.687-0.785,9.468-1.489,13.987-2.419
		c4.408,3.28,12.562,1.134,18.226-0.605c7.13,2.687,16.47,0.203,24.92,0c7.944-0.227,16.505,1.768,21.861-2.443
		c-14.859-0.145-28.427,0.448-43.14,0c-13.364-0.419-26.45-5.42-39.488-4.856c-4.926,0.204-10.3,1.029-15.789,1.215
		c-14.952,0.552-25.728,1.349-38.901,3.047c-4.722-2.617-10.381,1.471-13.364-3.047c5.926-15.836,36.016-4.356,51.032-11.544
		c-3.076-2.716-11.381-1.605-17.005-1.215c-14.237,0.971-32.73,5.06-44.35,0.622c1.361-2.053,3.949-4.402,6.682-5.49
		c11.817-4.67,28.729-1.431,41.931-4.856c4.106-4.815,2.315-7.531,1.814-13.992c-0.942-12.259-0.512-27.083-3.646-37.051
		c-1.483-4.682-4.257-8.212-5.473-12.155c-3.234-10.573-4.606-21.309-0.599-32.8c1.483-4.251,4.571-6.159,4.862-10.939
		c0.227-3.99-2.065-8.555-2.437-12.759c-0.64-7.403,0.651-14.94-2.425-21.268c-5.833-2.809-13.51,0.93-18.226,3.042
		c-2.681,49.084-3.199,85.583-26.746,118.482c-6.665,9.352-14.69,16.9-24.292,26.118c-4.926,4.746-22.344,20.622-29.782,20.663
		c-7.078,0.041-22.338-14.568-27.938-20.047c-34.202-33.411-60.523-75.743-52.253-144.606
		C153.466,164.161,149.11,160.224,139.59,161.439 M342.527,162.649c-0.134,15.324,3.071,27.31,6.077,39.506
		c-1.274-1.07-1.791-1.378-3.646-0.605c-4.472,8.508-7.27,18.976-4.862,30.962c1.14,5.624,5.007,11.224,6.694,17.645
		c2.687,10.276,3.257,26.909,4.234,37.662c0.436,4.368,1.954,9.346,1.233,12.76c-2.361,10.962-30.817,4.6-38.29,10.329
		c-0.773,4.978,5.124,2.565,7.898,2.431c4.833-0.233,10.206-0.419,13.353-1.216c3.408-3.908,13.138-1.471,18.238-3.652
		c3.425-15.365-1.995-35.097-1.815-49.212c1.181,0.244,0.047,2.78,2.437,1.838c-8.601-20.855-8.124-48.892,7.275-61.983
		c-0.25-6.147,3.402-8.357,3.036-14.597c-2.082-1.512-3.012,2.384-6.054,1.826c-3.484-3.402,0.047-11.957,0.616-17.011
		C355.025,164.987,351.919,159.956,342.527,162.649 M359.532,285.388c0.954,10.398,1.169,23.524,1.233,31.602
		c-8.619,4.321-25.106,0.826-35.249,3.646c-0.227,2.658,1.605,3.234,1.809,5.461c11.672-2.669,27.898-1.756,39.517-4.856
		c0.337-5.961-0.919-13.475,1.198-17.627c0.547,6.798,3.274,15.347,0,20.692c4.065,0.779,5.06-1.46,7.304-2.472
		c-0.907-2.739-1.681-8.822-2.448-9.712c0.477,5.787-1.89,7.839-2.431,1.216c-0.704-8.904-1.128-11.509-2.425-19.453
		c-0.651-4.083-0.564-8.549-1.198-12.742c-1.483-9.433-8.421-13.481-5.49-21.884c3.28-0.634,3.129,2.146,4.873,3.036
		c0.797-3.856,2.815-6.484,4.856-9.119c-2.495-3.152-1.407-9.939-7.892-9.119c-1.89,2.338,1.803,3.146,1.198,6.101
		c-1.925,0.5-1.878-0.971-3.036-1.227c0.384,2.158,3.722,6.106,0.611,7.904c-5.874-8.107-9.956-17.982-9.706-32.213
		c1.134-0.273,3.652,0.826,3.036-1.204c0.867-8.462,3.832-14.801,9.096-18.837c-0.052-0.739-0.18-1.442-1.198-1.215
		C338.962,221.59,356.676,253.716,359.532,285.388 M121.975,236.17c0.704,1.239,1.582-1.774,2.437,0.605
		c-0.512,9.631-5.321,14.935-4.269,26.13c-8.398,12.666-9.805,32.318-10.916,52.253c0.547,2.065,3.024,5.153,0.593,6.676
		c-3.757-1.524-0.43-10.119-2.443-13.364c-1.093,1.117-0.087,4.356-1.814,4.868c-0.843-4.088,1.483-8.218,0-10.957
		c-0.087,7.397-5.787,17.365-1.215,21.925c13.905-3.443,31.858-0.814,48.008-1.256c-3.972-6.554-16.103-2.669-24.914-3.658
		c-6.263-0.698-10.573-3.734-13.969-4.234c-2.733-3.774,3.379-6.095,4.257-9.107c0.663-2.384-0.233-5.827,0-8.497
		c0.814-10.265,2.501-23.187,3.635-34.045c0.989-9.427,5.106-19.087,6.077-28.561c1.343-12.992-3.501-24.734-12.16-30.98
		C122.725,209.377,126.627,224.254,121.975,236.17 M265.97,216.728c0.744-1.047,3.745-2.914,1.204-3.658
		C266.173,213.855,263.475,216.019,265.97,216.728 M251.384,217.333c-11.713,1.977-17.371,14.539-25.519,20.669
		c6.897-2.169,9.299-11.55,17.017-10.939c-0.942-3.78,1.681-3.99,4.85-3.646c-0.174-1.407-1.291-2.623,0.611-3.047
		c2.658-0.425,2.704,1.756,4.856,1.838c-0.25-3.6,2.803-3.268,5.473-2.443c-0.826-3.047,2.443-2.018,3.652-3.036
		c-0.541,1.948,0.948,1.878,1.832,2.425c0.116-1.954-1.088-2.559-0.622-4.839C259.305,216.228,256.06,216.542,251.384,217.333
		 M267.784,224.015c2.239,0.582,2.419-2.978,0.616-3.042C268.052,222.236,266.668,222.939,267.784,224.015 M263.533,225.231v-3.024
		h-1.803C262.283,223.253,261.707,225.463,263.533,225.231 M258.084,227.063c0.686-1.797,0.343-2.262-1.215-3.047
		C255.897,224.934,255.967,227.476,258.084,227.063 M288.447,230.697c-0.07-1.024,1.977-3.856-0.599-3.635
		C288.185,228.133,287.11,230.628,288.447,230.697 M241.678,236.775c-0.611-1.425-0.204-3.856-2.443-3.652
		C239.276,235.112,240.02,236.408,241.678,236.775 M262.323,239.2c-3.158,0.704-7.113,6.287-12.149,3.036
		c4.024,4.455,11.905-0.349,16.999,1.215c0.25-4.397,9.834,0.512,10.34-3.641C271.937,239.956,266.813,238.235,262.323,239.2
		 M274.478,244.667c1.111,1.524,2.065,3.222,3.652,4.263c1.541-0.081,2.332-0.878,2.425-2.431
		C280.09,244.451,276.63,243.131,274.478,244.667 M221.62,250.157c-8.497,0.675-16.301-3.21-26.124-2.443
		c15.598,9.927,37.36-0.39,54.679,1.832C240.974,243.655,231.582,249.348,221.62,250.157 M298.776,248.319
		c-2.117-0.105-5.292-2.355-7.275-0.605C293.484,247.982,296.74,250.128,298.776,248.319 M264.76,251.977
		c6.944,3.536,19.907-1.175,26.118-4.263C281.841,248.807,275.001,252.07,264.76,251.977 M106.778,257.438
		c1.721-0.523,2.774-1.698,3.042-3.652c-4.769,1.134-3.571-3.71-8.502-2.431C102.446,254.082,104.586,255.78,106.778,257.438
		 M387.493,312.122c8.2,17.4,34.184,16.47,57.714,17.022c4.978,0.093,11.032,0.378,13.975-3.047
		c-19.064-3.036-45.833,1.419-57.104-6.705c-12.579-9.008-9.328-28.875-10.939-46.159c-0.244-2.617-0.331-7.322-3.646-9.102
		c2.594,7.752,1.646,18.505,2.437,28.543c0.436,5.88,2.768,11.178,1.21,15.173c-4.885-17.174-0.866-43.257-12.166-54.062
		C385.964,269.081,384.295,293.024,387.493,312.122 M375.938,256.228c-2.472,1.442-5.321,3.774-5.473,7.281
		c-0.465,12.207,3.449,35.016,4.879,46.159c2.698,1.163,6.333,1.39,10.323,1.239c-4.484-16.807-0.366-42.163-9.113-54.679H375.938z
		 M108.605,259.258c-0.442,2.89,1.785,5.478,1.814,9.119c0.041,3.332-3.013,7.031-0.599,10.323
		c-1.169-8.718,8.101-13.771,3.652-20.035C111.71,258.706,109.483,258.328,108.605,259.258 M105.563,269.592
		c2.78-2.902-0.076-8.188-1.826-10.334h-1.82c-9.101,12.358-5.566,37.365-10.928,53.486c2.838,1.564,7.13,0.012,9.712-0.622
		C102.859,299.363,109.331,282.311,105.563,269.592 M88.558,298.769c0-13.783,4.205-25.222,3.646-37.674
		c-7.892,13.434-1.96,39.628-9.119,53.457c-8.84,17.034-38.447,9.008-58.93,14.591c20.267,1.268,38.54-0.186,55.882-3.641
		c13.132-9.049,11.846-37.418,15.196-54.696c0.471-2.414,2.274-6.653,0.599-6.676C91.617,273.867,92.216,288.423,88.558,298.769
		 M268.401,265.952c-7.758,1.215-14.062-1.5-23.705-2.443c-11.09-1.076-21.774,4.112-31.602,3.658
		c-11.044-0.529-21.71-7.194-31.591-0.622c0.907,5.798,4.937,8.456,7.304,12.759c10.346-5.193,19.692,2.966,31.596,1.227
		c4.007-0.605,8.183-3.169,12.765-3.652c11.48-1.215,23.239,3.745,33.399,2.425c11.195-1.442,19.209-4.856,26.147,1.227
		c2.582-3.681,6.17-6.38,6.665-12.155C289.616,261.77,277.723,264.492,268.401,265.952 M372.896,309.668
		c-1.756-15.714-2.751-29.096-5.455-44.321c-0.14-0.489-0.512-0.715-1.215-0.611C368.947,279.212,368.947,296.449,372.896,309.668
		 M377.153,319.392c4.594,0.314,8.584,1.163,13.388,1.245c0.017-3.076-2.105-3.984-3.047-6.083h-11.556
		C375.437,317.089,377.136,317.426,377.153,319.392 M86.732,321.834c4.676,0.029,8.311-1.012,12.754-1.198v-4.251
		C93.618,316.56,87.61,316.629,86.732,321.834 M159.026,325.504c-2.099,0.43-4.571-1.873-6.072,0
		C155.182,325.707,157.799,327.714,159.026,325.504"/>
	<path d="M79.238,377.725v-4.734h12.224v11.189c-1.186,1.151-2.908,2.163-5.164,3.036c-2.251,0.867-4.542,1.314-6.845,1.314
		c-2.943,0-5.496-0.622-7.682-1.849c-2.181-1.233-3.827-2.995-4.92-5.286c-1.099-2.291-1.646-4.792-1.646-7.479
		c0-2.925,0.605-5.525,1.838-7.799c1.221-2.274,3.018-4.013,5.379-5.228c1.803-0.93,4.042-1.402,6.717-1.402
		c3.489,0,6.211,0.739,8.171,2.198c1.96,1.459,3.222,3.484,3.786,6.06l-5.635,1.053c-0.395-1.378-1.14-2.466-2.222-3.268
		c-1.099-0.791-2.46-1.192-4.1-1.192c-2.472,0-4.437,0.791-5.903,2.355c-1.466,1.57-2.198,3.896-2.198,6.985
		c0,3.338,0.739,5.845,2.227,7.502c1.483,1.669,3.42,2.501,5.821,2.501c1.186,0,2.373-0.238,3.571-0.692
		c1.192-0.477,2.216-1.041,3.071-1.704v-3.559L79.238,377.725L79.238,377.725z"/>
	<path d="M95.535,374.175c0-2.856,0.43-5.257,1.285-7.194c0.64-1.431,1.512-2.716,2.611-3.85c1.105-1.134,2.315-1.983,3.635-2.524
		c1.745-0.739,3.763-1.117,6.048-1.117c4.135,0,7.444,1.285,9.933,3.856c2.483,2.565,3.722,6.13,3.722,10.695
		c0,4.542-1.233,8.084-3.699,10.643c-2.454,2.565-5.752,3.844-9.881,3.844c-4.17,0-7.491-1.279-9.951-3.821
		C96.774,382.166,95.535,378.647,95.535,374.175 M101.38,373.989c0,3.181,0.733,5.589,2.204,7.229
		c1.466,1.646,3.327,2.46,5.589,2.46s4.112-0.814,5.566-2.437c1.448-1.628,2.175-4.071,2.175-7.328c0-3.216-0.704-5.618-2.123-7.2
		c-1.407-1.588-3.28-2.379-5.618-2.379s-4.216,0.808-5.647,2.414C102.101,368.342,101.38,370.767,101.38,373.989"/>
	<polygon points="134.357,388.045 124.325,359.973 130.466,359.973 137.573,380.746 144.447,359.973 150.46,359.973
		140.405,388.045 	"/>
	<polygon points="153.356,388.045 153.356,359.973 174.176,359.973 174.176,364.724 159.026,364.724 159.026,370.941
		173.123,370.941 173.123,375.675 159.026,375.675 159.026,383.317 174.711,383.317 174.711,388.045 	"/>
	<path d="M179.537,388.047v-28.072h11.928c3.001,0,5.182,0.25,6.548,0.756c1.361,0.5,2.443,1.402,3.257,2.681
		c0.826,1.297,1.233,2.768,1.233,4.426c0,2.111-0.622,3.85-1.861,5.222c-1.245,1.372-3.094,2.239-5.554,2.594
		c1.227,0.721,2.239,1.506,3.036,2.355c0.797,0.861,1.873,2.373,3.228,4.559l3.425,5.478h-6.781l-4.094-6.112
		c-1.454-2.181-2.448-3.553-2.989-4.129c-0.541-0.564-1.105-0.96-1.704-1.157c-0.605-0.215-1.547-0.326-2.855-0.326h-1.146v11.724
		L179.537,388.047L179.537,388.047z M185.207,371.845h4.193c2.722,0,4.42-0.116,5.089-0.343c0.686-0.233,1.21-0.628,1.593-1.186
		c0.384-0.564,0.576-1.262,0.576-2.111c0-0.948-0.256-1.704-0.756-2.28c-0.506-0.587-1.221-0.96-2.128-1.105
		c-0.465-0.07-1.849-0.099-4.147-0.099h-4.42V371.845z"/>
	<polygon points="207.901,388.045 207.901,359.973 213.42,359.973 224.912,378.722 224.912,359.973 230.175,359.973
		230.175,388.045 224.487,388.045 213.17,369.743 213.17,388.045 	"/>
	<polygon points="236.093,388.045 236.093,359.973 244.572,359.973 249.672,379.124 254.714,359.973 263.211,359.973
		263.211,388.045 257.942,388.045 257.942,365.951 252.37,388.045 246.915,388.045 241.361,365.951 241.361,388.045 	"/>
	<polygon points="268.841,388.045 268.841,359.973 289.661,359.973 289.661,364.724 274.512,364.724 274.512,370.941
		288.609,370.941 288.609,375.675 274.512,375.675 274.512,383.317 290.196,383.317 290.196,388.045 	"/>
	<polygon points="295.058,388.045 295.058,359.973 300.577,359.973 312.069,378.722 312.069,359.973 317.337,359.973
		317.337,388.045 311.644,388.045 300.327,369.743 300.327,388.045 	"/>
	<polygon points="329.651,388.045 329.651,364.724 321.323,364.724 321.323,359.973 343.632,359.973 343.632,364.724
		335.321,364.724 335.321,388.045 	"/>
	<path d="M357.039,374.175c0-2.856,0.43-5.257,1.285-7.194c0.634-1.431,1.506-2.716,2.611-3.85c1.105-1.134,2.315-1.983,3.629-2.524
		c1.751-0.739,3.769-1.117,6.054-1.117c4.135,0,7.444,1.285,9.933,3.856c2.477,2.565,3.722,6.13,3.722,10.695
		c0,4.542-1.233,8.084-3.699,10.643c-2.466,2.565-5.758,3.844-9.881,3.844c-4.17,0-7.491-1.279-9.956-3.821
		C358.272,382.166,357.039,378.647,357.039,374.175 M362.884,373.989c0,3.181,0.733,5.589,2.204,7.229
		c1.466,1.646,3.327,2.46,5.589,2.46c2.256,0,4.112-0.814,5.566-2.437c1.448-1.628,2.175-4.071,2.175-7.328
		c0-3.216-0.715-5.618-2.123-7.2c-1.407-1.588-3.28-2.379-5.618-2.379s-4.222,0.808-5.653,2.414
		C363.593,368.342,362.884,370.767,362.884,373.989"/>
	<polygon points="388.734,388.045 388.734,359.973 407.983,359.973 407.983,364.724 394.404,364.724 394.404,371.365
		406.122,371.365 406.122,376.123 394.404,376.123 394.404,388.045 	"/>
	<polygon points="28.049,435.113 21.344,407.035 27.154,407.035 31.376,426.326 36.511,407.035 43.257,407.035 48.171,426.651
		52.481,407.035 58.197,407.035 51.37,435.113 45.362,435.113 39.768,414.118 34.196,435.113 	"/>
	<polygon points="61.082,435.113 61.082,407.035 81.902,407.035 81.902,411.786 66.752,411.786 66.752,418.009 80.849,418.009
		80.849,422.737 66.752,422.737 66.752,430.385 82.437,430.385 82.437,435.113 	"/>
	<path d="M85.806,425.974l5.519-0.535c0.331,1.855,1.006,3.21,2.018,4.083c1.012,0.861,2.384,1.303,4.106,1.303
		c1.832,0,3.204-0.384,4.129-1.163c0.925-0.773,1.39-1.675,1.39-2.704c0-0.663-0.192-1.233-0.582-1.698s-1.07-0.867-2.041-1.215
		c-0.663-0.227-2.175-0.64-4.536-1.227c-3.042-0.756-5.176-1.675-6.397-2.774c-1.727-1.547-2.588-3.431-2.588-5.653
		c0-1.431,0.407-2.768,1.215-4.007c0.814-1.25,1.977-2.198,3.507-2.85c1.524-0.646,3.367-0.977,5.525-0.977
		c3.518,0,6.17,0.779,7.956,2.315c1.78,1.553,2.716,3.617,2.809,6.194l-5.676,0.244c-0.238-1.442-0.762-2.477-1.553-3.106
		c-0.803-0.634-1.995-0.954-3.594-0.954c-1.646,0-2.943,0.337-3.873,1.024c-0.599,0.43-0.896,1.012-0.896,1.739
		c0,0.657,0.279,1.227,0.843,1.698c0.71,0.605,2.448,1.227,5.205,1.873c2.762,0.663,4.798,1.332,6.124,2.024
		c1.32,0.704,2.35,1.646,3.106,2.861c0.744,1.198,1.117,2.698,1.117,4.466c0,1.611-0.448,3.117-1.338,4.519
		c-0.901,1.407-2.163,2.454-3.792,3.135c-1.64,0.68-3.675,1.024-6.112,1.024c-3.553,0-6.281-0.82-8.177-2.46
		C87.312,431.505,86.178,429.115,85.806,425.974"/>
	<polygon points="119.723,435.113 119.723,411.786 111.395,411.786 111.395,407.035 133.709,407.035 133.709,411.786
		125.393,411.786 125.393,435.113 	"/>
	<polygon points="137.368,435.113 137.368,407.035 158.182,407.035 158.182,411.786 143.032,411.786 143.032,418.009
		157.13,418.009 157.13,422.737 143.032,422.737 143.032,430.385 158.723,430.385 158.723,435.113 	"/>
	<path d="M163.548,435.115v-28.078h11.928c3.007,0,5.182,0.256,6.543,0.756c1.361,0.506,2.448,1.402,3.263,2.693
		c0.82,1.285,1.227,2.762,1.227,4.42c0,2.111-0.616,3.85-1.855,5.222c-1.239,1.367-3.094,2.239-5.56,2.594
		c1.233,0.715,2.239,1.5,3.042,2.355c0.791,0.855,1.873,2.373,3.222,4.559l3.425,5.478h-6.775l-4.1-6.112
		c-1.448-2.181-2.448-3.553-2.989-4.129c-0.535-0.564-1.099-0.954-1.698-1.163c-0.605-0.215-1.553-0.32-2.855-0.32h-1.151v11.724
		h-5.667V435.115z M169.213,418.907h4.199c2.716,0,4.414-0.11,5.089-0.337c0.68-0.227,1.21-0.628,1.599-1.186
		c0.378-0.564,0.57-1.268,0.57-2.111c0-0.942-0.256-1.704-0.762-2.286c-0.5-0.582-1.215-0.954-2.129-1.105
		c-0.465-0.064-1.849-0.099-4.141-0.099h-4.426L169.213,418.907L169.213,418.907z"/>
	<polygon points="191.906,435.113 191.906,407.035 197.425,407.035 208.917,425.785 208.917,407.035 214.186,407.035
		214.186,435.113 208.493,435.113 197.175,416.8 197.175,435.113 	"/>
	<path d="M254.937,435.113h-6.165l-2.454-6.374H235.1l-2.32,6.374h-6.013l10.933-28.078h5.996L254.937,435.113z M244.504,424.005
		l-3.867-10.422l-3.798,10.422H244.504z"/>
	<path d="M257.909,407.037h5.67v15.202c0,2.414,0.07,3.978,0.209,4.693c0.238,1.151,0.82,2.076,1.733,2.774
		c0.907,0.692,2.158,1.041,3.745,1.041c1.611,0,2.821-0.326,3.635-0.983c0.82-0.663,1.314-1.471,1.477-2.425
		c0.169-0.96,0.25-2.553,0.25-4.769v-15.534h5.67v14.743c0,3.373-0.151,5.758-0.465,7.147c-0.302,1.39-0.867,2.565-1.692,3.524
		c-0.82,0.954-1.925,1.727-3.303,2.291c-1.378,0.564-3.181,0.849-5.397,0.849c-2.687,0-4.716-0.308-6.106-0.93
		c-1.378-0.622-2.477-1.425-3.28-2.414c-0.808-0.983-1.338-2.024-1.588-3.111c-0.372-1.611-0.558-3.984-0.558-7.13L257.909,407.037
		L257.909,407.037z"/>
	<path d="M284.836,425.974l5.519-0.535c0.331,1.855,1,3.21,2.018,4.083c1.012,0.861,2.384,1.303,4.106,1.303
		c1.832,0,3.204-0.384,4.129-1.163c0.925-0.773,1.39-1.675,1.39-2.704c0-0.663-0.192-1.233-0.587-1.698
		c-0.384-0.465-1.064-0.867-2.035-1.215c-0.663-0.227-2.175-0.64-4.536-1.227c-3.042-0.756-5.176-1.675-6.397-2.774
		c-1.727-1.547-2.588-3.431-2.588-5.653c0-1.431,0.407-2.768,1.215-4.007c0.803-1.25,1.977-2.198,3.507-2.85
		c1.524-0.646,3.361-0.977,5.525-0.977c3.518,0,6.176,0.779,7.956,2.315c1.78,1.553,2.716,3.617,2.803,6.194l-5.67,0.244
		c-0.238-1.442-0.762-2.477-1.553-3.106c-0.803-0.634-1.995-0.954-3.594-0.954c-1.646,0-2.943,0.337-3.873,1.024
		c-0.599,0.43-0.896,1.012-0.896,1.739c0,0.657,0.279,1.227,0.843,1.698c0.709,0.605,2.448,1.227,5.205,1.873
		c2.762,0.663,4.798,1.332,6.118,2.024c1.326,0.704,2.355,1.646,3.111,2.861c0.739,1.198,1.117,2.698,1.117,4.466
		c0,1.611-0.448,3.117-1.349,4.519c-0.89,1.407-2.152,2.454-3.78,3.135c-1.64,0.68-3.675,1.024-6.112,1.024
		c-3.553,0-6.281-0.82-8.177-2.46C286.342,431.505,285.208,429.115,284.836,425.974"/>
	<polygon points="318.753,435.113 318.753,411.786 310.425,411.786 310.425,407.035 332.74,407.035 332.74,411.786 324.423,411.786
		324.423,435.113 	"/>
	<path d="M336.412,435.115v-28.078h11.934c2.995,0,5.182,0.256,6.543,0.756c1.361,0.506,2.448,1.402,3.263,2.693
		c0.82,1.285,1.227,2.762,1.227,4.42c0,2.111-0.616,3.85-1.861,5.222c-1.233,1.367-3.088,2.239-5.554,2.594
		c1.227,0.715,2.239,1.5,3.042,2.355c0.791,0.855,1.873,2.373,3.222,4.559l3.425,5.478h-6.775l-4.1-6.112
		c-1.454-2.181-2.454-3.553-2.989-4.129c-0.535-0.564-1.099-0.954-1.698-1.163c-0.605-0.215-1.553-0.32-2.855-0.32h-1.151v11.724
		h-5.673V435.115z M342.082,418.907h4.199c2.716,0,4.414-0.11,5.089-0.337c0.68-0.227,1.21-0.628,1.588-1.186
		c0.384-0.564,0.576-1.268,0.576-2.111c0-0.942-0.25-1.704-0.756-2.286c-0.5-0.582-1.215-0.954-2.129-1.105
		c-0.465-0.064-1.849-0.099-4.141-0.099h-4.426V418.907z"/>
	<path d="M390.037,435.113h-6.165l-2.454-6.374H370.2l-2.32,6.374h-6.013l10.933-28.078h5.996L390.037,435.113z M379.604,424.005
		l-3.867-10.422l-3.798,10.422H379.604z"/>
	<polygon points="393.202,435.113 393.202,407.268 398.872,407.268 398.872,430.385 412.969,430.385 412.969,435.113 	"/>
	<rect x="416.835" y="407.039" width="5.67" height="28.078"/>
	<path d="M453.222,435.113h-6.165l-2.454-6.374h-11.218l-2.32,6.374h-6.013l10.933-28.078h5.996L453.222,435.113z M442.789,424.005
		l-3.867-10.422l-3.798,10.422H442.789z"/>
	<path d="M490.393,116.122V56.797h20.436c4.612,0,8.13,0.285,10.561,0.849c3.396,0.785,6.298,2.198,8.7,4.251
		c3.129,2.64,5.467,6.019,7.014,10.137c1.559,4.112,2.332,8.811,2.332,14.103c0,4.501-0.529,8.497-1.576,11.974
		c-1.058,3.484-2.402,6.362-4.048,8.642s-3.449,4.071-5.403,5.379c-1.96,1.309-4.315,2.303-7.083,2.978
		c-2.762,0.675-5.938,1.012-9.532,1.012L490.393,116.122L490.393,116.122z M498.239,109.12h12.666c3.914,0,6.985-0.366,9.206-1.093
		c2.227-0.727,4.007-1.751,5.327-3.076c1.855-1.861,3.303-4.362,4.35-7.508c1.035-3.14,1.553-6.95,1.553-11.428
		c0-6.205-1.018-10.974-3.053-14.306c-2.036-3.332-4.513-5.566-7.427-6.694c-2.105-0.814-5.49-1.215-10.154-1.215h-12.469v45.32
		H498.239z"/>
	<path d="M578.727,102.282l7.525,0.931c-1.181,4.397-3.385,7.81-6.601,10.236c-3.199,2.431-7.304,3.646-12.294,3.646
		c-6.287,0-11.277-1.937-14.952-5.81c-3.681-3.873-5.531-9.299-5.531-16.29c0-7.229,1.867-12.841,5.589-16.83
		c3.722-3.995,8.549-5.99,14.493-5.99c5.746,0,10.433,1.954,14.08,5.868c3.641,3.908,5.461,9.416,5.461,16.511
		c0,0.43-0.012,1.076-0.041,1.942h-32.05c0.268,4.716,1.611,8.334,4.007,10.846c2.402,2.507,5.391,3.763,8.985,3.763
		c2.669,0,4.949-0.704,6.833-2.105C576.128,107.598,577.617,105.359,578.727,102.282 M554.813,90.506h23.99
		c-0.32-3.617-1.233-6.327-2.745-8.136c-2.32-2.803-5.327-4.205-9.026-4.205c-3.344,0-6.153,1.117-8.433,3.356
		C556.32,83.76,555.058,86.755,554.813,90.506"/>
	<path d="M595.402,132.591V73.144h6.636v5.589c1.559-2.187,3.327-3.827,5.298-4.92c1.966-1.093,4.356-1.64,7.159-1.64
		c3.675,0,6.909,0.948,9.718,2.832c2.803,1.89,4.926,4.554,6.356,7.996c1.431,3.437,2.14,7.206,2.14,11.306
		c0,4.402-0.785,8.357-2.367,11.881c-1.576,3.518-3.867,6.217-6.88,8.09c-3.007,1.878-6.17,2.815-9.491,2.815
		c-2.425,0-4.606-0.512-6.531-1.535c-1.931-1.029-3.518-2.32-4.757-3.885v20.919L595.402,132.591L595.402,132.591z M601.997,94.876
		c0,5.531,1.117,9.619,3.356,12.259c2.239,2.646,4.955,3.966,8.136,3.966c3.239,0,6.008-1.367,8.316-4.106
		c2.303-2.739,3.46-6.979,3.46-12.725c0-5.478-1.128-9.578-3.379-12.306c-2.256-2.722-4.943-4.088-8.072-4.088
		c-3.1,0-5.851,1.454-8.241,4.356C603.19,85.129,601.997,89.346,601.997,94.876"/>
	<path d="M669.535,110.819c-2.698,2.291-5.292,3.914-7.793,4.856c-2.495,0.942-5.17,1.419-8.031,1.419
		c-4.716,0-8.351-1.157-10.887-3.46c-2.53-2.309-3.803-5.257-3.803-8.846c0-2.099,0.483-4.024,1.437-5.763
		c0.96-1.739,2.21-3.135,3.763-4.187s3.303-1.849,5.246-2.39c1.425-0.378,3.582-0.739,6.467-1.093
		c5.885-0.698,10.218-1.535,12.992-2.507c0.029-1,0.041-1.634,0.041-1.902c0-2.972-0.68-5.06-2.065-6.275
		c-1.855-1.646-4.629-2.466-8.293-2.466c-3.425,0-5.955,0.599-7.589,1.803c-1.628,1.198-2.838,3.321-3.617,6.368l-7.124-0.971
		c0.651-3.047,1.716-5.507,3.199-7.38c1.477-1.878,3.623-3.321,6.432-4.333s6.054-1.518,9.747-1.518c3.675,0,6.653,0.43,8.944,1.297
		c2.297,0.861,3.978,1.948,5.065,3.257c1.076,1.309,1.826,2.96,2.262,4.955c0.244,1.245,0.366,3.484,0.366,6.717v9.712
		c0,6.775,0.151,11.055,0.465,12.853c0.308,1.791,0.925,3.513,1.844,5.158h-7.613C670.24,114.61,669.745,112.843,669.535,110.819
		 M668.925,94.552c-2.646,1.076-6.607,1.995-11.893,2.751c-2.995,0.43-5.118,0.919-6.351,1.46c-1.245,0.535-2.204,1.326-2.873,2.367
		c-0.68,1.035-1.018,2.193-1.018,3.46c0,1.942,0.739,3.559,2.21,4.856c1.466,1.291,3.617,1.942,6.45,1.942
		c2.803,0,5.304-0.616,7.485-1.844c2.187-1.227,3.792-2.908,4.815-5.036c0.791-1.646,1.175-4.077,1.175-7.287V94.552z"/>
	<path d="M687.503,116.12V73.148h6.554v6.514c1.669-3.047,3.216-5.06,4.635-6.031c1.413-0.971,2.966-1.454,4.67-1.454
		c2.454,0,4.949,0.779,7.491,2.344l-2.512,6.758c-1.785-1.053-3.559-1.576-5.339-1.576c-1.594,0-3.024,0.477-4.292,1.436
		c-1.268,0.954-2.175,2.286-2.71,3.984c-0.808,2.588-1.215,5.42-1.215,8.497v22.501h-7.282V116.12z"/>
	<path d="M731.081,109.606l1.058,6.432c-2.053,0.43-3.891,0.651-5.507,0.651c-2.646,0-4.693-0.419-6.153-1.256
		c-1.454-0.837-2.477-1.937-3.071-3.297c-0.593-1.361-0.89-4.228-0.89-8.601V78.813h-5.35v-5.664h5.35V62.506l7.24-4.373v15.016
		h7.322v5.664h-7.322v25.129c0,2.076,0.128,3.414,0.384,4.007c0.25,0.593,0.675,1.064,1.256,1.413
		c0.576,0.355,1.407,0.529,2.483,0.529C728.69,109.891,729.76,109.792,731.081,109.606"/>
	<path d="M738.208,116.12V73.148h6.513v6.025c1.343-2.105,3.14-3.798,5.379-5.077s4.786-1.919,7.647-1.919
		c3.181,0,5.792,0.657,7.828,1.983c2.041,1.32,3.478,3.17,4.309,5.542c3.396-5.019,7.828-7.525,13.277-7.525
		c4.257,0,7.537,1.175,9.834,3.536c2.291,2.361,3.437,5.996,3.437,10.91v29.497h-7.246V89.048c0-2.914-0.233-5.013-0.704-6.293
		c-0.477-1.279-1.332-2.315-2.57-3.094c-1.239-0.785-2.698-1.175-4.367-1.175c-3.024,0-5.536,1.006-7.531,3.012
		c-1.995,2.012-2.995,5.228-2.995,9.654v24.966h-7.281V88.197c0-3.239-0.593-5.664-1.78-7.287c-1.186-1.617-3.129-2.425-5.827-2.425
		c-2.053,0-3.943,0.541-5.688,1.617c-1.739,1.082-3.001,2.658-3.78,4.734c-0.785,2.082-1.175,5.071-1.175,8.985v22.297h-7.28V116.12
		z"/>
	<path d="M836.654,102.282l7.531,0.931c-1.186,4.397-3.385,7.81-6.595,10.236c-3.21,2.431-7.31,3.646-12.3,3.646
		c-6.287,0-11.271-1.937-14.952-5.81s-5.525-9.299-5.525-16.29c0-7.229,1.861-12.841,5.583-16.83
		c3.722-3.995,8.555-5.99,14.487-5.99c5.746,0,10.439,1.954,14.08,5.868c3.646,3.908,5.461,9.416,5.461,16.511
		c0,0.43-0.012,1.076-0.035,1.942h-32.05c0.267,4.716,1.605,8.334,4.007,10.846c2.402,2.507,5.391,3.763,8.985,3.763
		c2.664,0,4.949-0.704,6.839-2.105C834.055,107.598,835.549,105.359,836.654,102.282 M812.74,90.506h24.001
		c-0.326-3.617-1.245-6.327-2.751-8.136c-2.32-2.803-5.333-4.205-9.026-4.205c-3.344,0-6.159,1.117-8.438,3.356
		C814.246,83.76,812.99,86.755,812.74,90.506"/>
	<path d="M853.328,116.12V73.148h6.56v6.106c3.158-4.722,7.717-7.078,13.673-7.078c2.594,0,4.978,0.459,7.142,1.396
		c2.175,0.93,3.803,2.146,4.879,3.658c1.082,1.512,1.838,3.309,2.262,5.385c0.279,1.349,0.407,3.71,0.407,7.078v26.426h-7.281
		V89.978c0-2.966-0.285-5.188-0.855-6.659c-0.564-1.466-1.564-2.64-3.007-3.518c-1.442-0.878-3.135-1.314-5.083-1.314
		c-3.106,0-5.775,0.983-8.031,2.954c-2.256,1.972-3.379,5.705-3.379,11.207v23.472L853.328,116.12L853.328,116.12z"/>
	<path d="M915.326,109.606l1.047,6.432c-2.047,0.43-3.879,0.651-5.502,0.651c-2.64,0-4.687-0.419-6.147-1.256
		c-1.454-0.837-2.483-1.937-3.076-3.297c-0.599-1.361-0.89-4.228-0.89-8.601V78.813h-5.345v-5.664h5.345V62.506l7.24-4.373v15.016
		h7.328v5.664h-7.328v25.129c0,2.076,0.134,3.414,0.39,4.007c0.25,0.593,0.675,1.064,1.256,1.413
		c0.576,0.355,1.407,0.529,2.483,0.529C912.935,109.891,914,109.792,915.326,109.606"/>
	<path d="M942.766,94.633c0-7.956,2.21-13.853,6.63-17.685c3.699-3.181,8.206-4.775,13.521-4.775c5.903,0,10.73,1.937,14.481,5.81
		c3.751,3.867,5.629,9.218,5.629,16.045c0,5.531-0.832,9.881-2.495,13.05c-1.657,3.169-4.071,5.629-7.235,7.38
		c-3.175,1.756-6.636,2.635-10.381,2.635c-6.025,0-10.887-1.931-14.591-5.787C944.615,107.445,942.766,101.891,942.766,94.633
		 M950.25,94.633c0,5.502,1.192,9.625,3.6,12.364c2.402,2.739,5.42,4.106,9.067,4.106c3.612,0,6.624-1.378,9.02-4.129
		c2.402-2.751,3.606-6.944,3.606-12.585c0-5.315-1.21-9.34-3.629-12.079c-2.408-2.739-5.414-4.106-8.997-4.106
		c-3.646,0-6.665,1.361-9.067,4.088C951.443,85.014,950.25,89.132,950.25,94.633"/>
	<path d="M993.303,116.12V78.813h-6.438v-5.664h6.438v-4.577c0-2.885,0.256-5.031,0.768-6.432c0.704-1.89,1.942-3.42,3.699-4.594
		c1.768-1.175,4.251-1.762,7.432-1.762c2.053,0,4.315,0.244,6.799,0.733l-1.093,6.351c-1.512-0.267-2.943-0.401-4.286-0.401
		c-2.222,0-3.78,0.471-4.699,1.413c-0.919,0.942-1.373,2.71-1.373,5.304v3.966h8.375v5.664h-8.375v37.307h-7.247V116.12z"/>
	<polygon points="490.027,215.569 490.027,156.244 534.01,156.244 534.01,166.282 502.001,166.282 502.001,179.431 531.789,179.431
		531.789,189.428 502.001,189.428 502.001,205.572 535.144,205.572 535.144,215.569 	"/>
	<path d="M584.635,215.571h-10.561v-6.316c-1.75,2.454-3.827,4.286-6.211,5.484c-2.384,1.204-4.798,1.803-7.223,1.803
		c-4.937,0-9.171-1.989-12.684-5.973c-3.524-3.978-5.281-9.526-5.281-16.65c0-7.281,1.71-12.818,5.135-16.609
		c3.425-3.792,7.758-5.688,12.992-5.688c4.798,0,8.956,1.995,12.463,5.99v-21.366h11.37V215.571z M554.289,193.152
		c0,4.589,0.628,7.903,1.902,9.956c1.832,2.966,4.397,4.449,7.682,4.449c2.617,0,4.844-1.111,6.682-3.338
		c1.838-2.227,2.745-5.548,2.745-9.974c0-4.937-0.884-8.491-2.664-10.666c-1.785-2.169-4.059-3.257-6.839-3.257
		c-2.698,0-4.955,1.076-6.781,3.216C555.196,185.684,554.289,188.889,554.289,193.152"/>
	<path d="M624.131,215.569v-6.432c-1.57,2.291-3.617,4.1-6.176,5.42c-2.547,1.32-5.24,1.983-8.072,1.983
		c-2.885,0-5.478-0.634-7.77-1.902c-2.291-1.268-3.949-3.047-4.972-5.345c-1.029-2.291-1.541-5.461-1.541-9.509v-27.188h11.37
		v19.744c0,6.042,0.215,9.747,0.628,11.108c0.425,1.361,1.181,2.443,2.286,3.239c1.105,0.797,2.512,1.192,4.216,1.192
		c1.937,0,3.681-0.535,5.217-1.599c1.535-1.064,2.594-2.384,3.158-3.966c0.564-1.576,0.849-5.443,0.849-11.591v-18.127h11.37v42.972
		h-10.563V215.569z"/>
	<path d="M683.94,185.301l-11.207,2.024c-0.384-2.239-1.239-3.926-2.57-5.06c-1.332-1.134-3.065-1.698-5.199-1.698
		c-2.832,0-5.095,0.977-6.775,2.931c-1.692,1.96-2.536,5.228-2.536,9.817c0,5.1,0.855,8.7,2.571,10.805
		c1.71,2.099,4.019,3.152,6.897,3.152c2.163,0,3.931-0.611,5.304-1.838c1.372-1.227,2.35-3.338,2.914-6.333l11.166,1.902
		c-1.157,5.124-3.379,8.997-6.676,11.614c-3.286,2.617-7.7,3.926-13.231,3.926c-6.287,0-11.3-1.983-15.028-5.949
		c-3.745-3.966-5.612-9.456-5.612-16.47c0-7.095,1.878-12.62,5.624-16.569c3.751-3.955,8.828-5.932,15.22-5.932
		c5.228,0,9.392,1.128,12.48,3.379C680.368,177.258,682.591,180.689,683.94,185.301"/>
	<path d="M701.06,185.703l-10.323-1.861c1.157-4.152,3.152-7.229,5.99-9.224c2.832-1.995,7.037-2.995,12.626-2.995
		c5.071,0,8.846,0.599,11.329,1.803c2.483,1.198,4.234,2.722,5.24,4.571c1.012,1.849,1.518,5.24,1.518,10.177l-0.122,13.271
		c0,3.78,0.186,6.566,0.547,8.357c0.366,1.791,1.047,3.716,2.041,5.769h-11.247c-0.297-0.756-0.657-1.878-1.093-3.361
		c-0.186-0.675-0.326-1.117-0.401-1.332c-1.948,1.884-4.019,3.303-6.234,4.245c-2.21,0.942-4.571,1.419-7.078,1.419
		c-4.432,0-7.915-1.204-10.468-3.606c-2.547-2.402-3.815-5.432-3.815-9.101c0-2.431,0.57-4.594,1.733-6.496
		c1.157-1.902,2.792-3.361,4.879-4.373c2.088-1.006,5.106-1.89,9.043-2.646c5.315-1,8.997-1.931,11.05-2.792v-1.134
		c0-2.187-0.541-3.745-1.623-4.676c-1.076-0.931-3.117-1.396-6.112-1.396c-2.018,0-3.6,0.395-4.728,1.192
		C702.677,182.312,701.758,183.708,701.06,185.703 M716.274,194.932c-1.46,0.483-3.763,1.064-6.921,1.739
		c-3.158,0.675-5.222,1.338-6.194,1.983c-1.483,1.053-2.227,2.39-2.227,4.007c0,1.593,0.599,2.966,1.785,4.129
		c1.186,1.157,2.693,1.739,4.53,1.739c2.053,0,4.007-0.675,5.868-2.024c1.378-1.024,2.28-2.28,2.71-3.763
		c0.297-0.971,0.448-2.821,0.448-5.542L716.274,194.932L716.274,194.932z"/>
	<path d="M758.354,172.595v9.067h-7.77v17.319c0,3.507,0.076,5.548,0.227,6.13c0.145,0.582,0.483,1.058,1.012,1.436
		c0.523,0.378,1.163,0.564,1.925,0.564c1.047,0,2.571-0.361,4.571-1.093l0.965,8.822c-2.646,1.134-5.635,1.704-8.985,1.704
		c-2.047,0-3.891-0.349-5.536-1.035c-1.652-0.686-2.855-1.576-3.629-2.669c-0.762-1.093-1.297-2.571-1.593-4.432
		c-0.238-1.32-0.366-3.995-0.366-8.014v-18.732h-5.222v-9.067h5.222v-8.537l11.41-6.636v15.173L758.354,172.595L758.354,172.595z"/>
	<path d="M766.25,156.246h11.375v10.52H766.25V156.246z M766.25,172.593h11.375v42.972H766.25V172.593z"/>
	<path d="M786.638,193.477c0-3.78,0.936-7.432,2.791-10.968c1.867-3.536,4.501-6.234,7.915-8.095s7.223-2.792,11.428-2.792
		c6.508,0,11.835,2.111,15.993,6.333c4.147,4.222,6.229,9.555,6.229,16.005c0,6.502-2.099,11.893-6.293,16.167
		c-4.199,4.274-9.474,6.415-15.842,6.415c-3.937,0-7.694-0.89-11.271-2.669c-3.577-1.785-6.293-4.391-8.159-7.834
		C787.576,202.602,786.638,198.414,786.638,193.477 M798.299,194.082c0,4.263,1.006,7.525,3.03,9.794
		c2.024,2.268,4.519,3.396,7.491,3.396c2.966,0,5.455-1.128,7.461-3.396c2.012-2.268,3.018-5.56,3.018-9.875
		c0-4.211-1.006-7.444-3.018-9.712c-2.006-2.268-4.496-3.396-7.461-3.396c-2.972,0-5.467,1.128-7.491,3.396
		C799.305,186.556,798.299,189.819,798.299,194.082"/>
	<path d="M878.984,215.569h-11.37v-21.931c0-4.641-0.238-7.642-0.733-9.003c-0.483-1.367-1.268-2.425-2.361-3.181
		s-2.408-1.134-3.949-1.134c-1.966,0-3.734,0.541-5.298,1.623c-1.564,1.076-2.635,2.507-3.216,4.286
		c-0.582,1.785-0.872,5.071-0.872,9.875v19.465H839.81v-42.972h10.567v6.31c3.751-4.856,8.468-7.281,14.161-7.281
		c2.512,0,4.804,0.448,6.886,1.355c2.07,0.901,3.646,2.053,4.711,3.454c1.058,1.407,1.809,2.995,2.222,4.78
		c0.419,1.78,0.628,4.327,0.628,7.648L878.984,215.569L878.984,215.569z"/>
</g>
</svg>
