<svg width="480" height="480" viewBox="0 0 480 480" fill="none" xmlns="http://www.w3.org/2000/svg">
<circle cx="240" cy="240" r="240" fill="#1D1E23"/>
<rect x="120" y="120" width="240" height="240" fill="white"/>
<path d="M165.839 160.627V192H159.787L145.458 174.066V192H137.848V160.627H143.811L158.185 178.561V160.627H165.839ZM184.21 192.401C181.006 192.401 178.217 191.748 175.844 190.442C173.5 189.107 171.69 187.238 170.415 184.835C169.139 182.403 168.501 179.555 168.501 176.291C168.501 173.028 169.139 170.195 170.415 167.792C171.69 165.359 173.5 163.49 175.844 162.185C178.217 160.88 181.006 160.227 184.21 160.227C187.414 160.227 190.188 160.88 192.531 162.185C194.905 163.49 196.714 165.359 197.96 167.792C199.236 170.195 199.874 173.028 199.874 176.291C199.874 179.555 199.236 182.403 197.96 184.835C196.685 187.238 194.86 189.107 192.487 190.442C190.143 191.748 187.384 192.401 184.21 192.401ZM184.21 186.126C186.583 186.126 188.437 185.295 189.772 183.634C191.107 181.943 191.775 179.495 191.775 176.291C191.775 173.087 191.092 170.655 189.728 168.993C188.393 167.332 186.553 166.501 184.21 166.501C181.836 166.501 179.982 167.332 178.647 168.993C177.312 170.625 176.645 173.058 176.645 176.291C176.645 179.525 177.312 181.973 178.647 183.634C179.982 185.295 181.836 186.126 184.21 186.126ZM169.043 202.627L154.758 234H148.261L133.976 202.627H142.476L151.599 223.809L160.766 202.627H169.043ZM182.645 234.401C179.441 234.401 176.653 233.748 174.279 232.442C171.936 231.107 170.126 229.238 168.85 226.835C167.575 224.403 166.937 221.555 166.937 218.291C166.937 215.028 167.575 212.195 168.85 209.792C170.126 207.359 171.936 205.49 174.279 204.185C176.653 202.88 179.441 202.227 182.645 202.227C185.849 202.227 188.623 202.88 190.967 204.185C193.34 205.49 195.15 207.359 196.396 209.792C197.671 212.195 198.309 215.028 198.309 218.291C198.309 221.555 197.671 224.403 196.396 226.835C195.12 229.238 193.296 231.107 190.922 232.442C188.579 233.748 185.82 234.401 182.645 234.401ZM182.645 228.126C185.019 228.126 186.873 227.295 188.208 225.634C189.543 223.943 190.21 221.495 190.21 218.291C190.21 215.087 189.528 212.655 188.163 210.993C186.828 209.332 184.989 208.501 182.645 208.501C180.272 208.501 178.418 209.332 177.083 210.993C175.748 212.625 175.08 215.058 175.08 218.291C175.08 221.525 175.748 223.973 177.083 225.634C178.418 227.295 180.272 228.126 182.645 228.126ZM200.93 202.627H209.118V234H200.93V202.627ZM227.787 234.401C224.524 234.401 221.676 233.733 219.243 232.398C216.84 231.063 214.986 229.179 213.681 226.746C212.405 224.314 211.767 221.495 211.767 218.291C211.767 215.087 212.405 212.284 213.681 209.881C214.986 207.448 216.84 205.564 219.243 204.229C221.676 202.894 224.524 202.227 227.787 202.227C229.834 202.227 231.807 202.538 233.706 203.161C235.634 203.784 237.206 204.615 238.423 205.653L235.886 211.438C233.305 209.629 230.665 208.724 227.965 208.724C225.414 208.724 223.456 209.525 222.091 211.127C220.756 212.729 220.089 215.117 220.089 218.291C220.089 221.466 220.756 223.869 222.091 225.5C223.456 227.102 225.414 227.903 227.965 227.903C230.665 227.903 233.305 226.999 235.886 225.189L238.423 230.974C237.206 232.012 235.634 232.843 233.706 233.466C231.807 234.089 229.834 234.401 227.787 234.401ZM240.502 202.627H262.797V208.946H248.468V214.909H261.907V221.184H248.468V227.681H262.797V234H240.502V202.627ZM144.924 251.258H135.534V244.627H162.59V251.258H153.201V276H144.924V251.258ZM176.909 276.401C173.705 276.401 170.916 275.748 168.543 274.442C166.199 273.107 164.39 271.238 163.114 268.835C161.838 266.403 161.2 263.555 161.2 260.291C161.2 257.028 161.838 254.195 163.114 251.792C164.39 249.359 166.199 247.49 168.543 246.185C170.916 244.88 173.705 244.227 176.909 244.227C180.113 244.227 182.887 244.88 185.23 246.185C187.604 247.49 189.413 249.359 190.659 251.792C191.935 254.195 192.573 257.028 192.573 260.291C192.573 263.555 191.935 266.403 190.659 268.835C189.384 271.238 187.559 273.107 185.186 274.442C182.842 275.748 180.083 276.401 176.909 276.401ZM176.909 270.126C179.282 270.126 181.136 269.295 182.471 267.634C183.806 265.943 184.474 263.495 184.474 260.291C184.474 257.087 183.792 254.655 182.427 252.993C181.092 251.332 179.253 250.501 176.909 250.501C174.536 250.501 172.681 251.332 171.346 252.993C170.011 254.625 169.344 257.058 169.344 260.291C169.344 263.525 170.011 265.973 171.346 267.634C172.681 269.295 174.536 270.126 176.909 270.126ZM169.043 286.627L154.758 318H148.261L133.976 286.627H142.476L151.599 307.809L160.766 286.627H169.043ZM168.694 286.627H176.882V318H168.694V286.627ZM195.239 318.401C192.035 318.401 189.246 317.748 186.873 316.442C184.529 315.107 182.72 313.238 181.444 310.835C180.168 308.403 179.531 305.555 179.531 302.291C179.531 299.028 180.168 296.195 181.444 293.792C182.72 291.359 184.529 289.49 186.873 288.185C189.246 286.88 192.035 286.227 195.239 286.227C198.443 286.227 201.217 286.88 203.561 288.185C205.934 289.49 207.744 291.359 208.99 293.792C210.265 296.195 210.903 299.028 210.903 302.291C210.903 305.555 210.265 308.403 208.99 310.835C207.714 313.238 205.889 315.107 203.516 316.442C201.172 317.748 198.413 318.401 195.239 318.401ZM195.239 312.126C197.612 312.126 199.467 311.295 200.802 309.634C202.137 307.943 202.804 305.495 202.804 302.291C202.804 299.087 202.122 296.655 200.757 294.993C199.422 293.332 197.583 292.501 195.239 292.501C192.866 292.501 191.012 293.332 189.677 294.993C188.342 296.625 187.674 299.058 187.674 302.291C187.674 305.525 188.342 307.973 189.677 309.634C191.012 311.295 192.866 312.126 195.239 312.126ZM213.524 286.627H221.712V311.369H235.062V318H213.524V286.627ZM236.765 286.627H259.059V292.946H244.73V298.909H258.169V305.184H244.73V311.681H259.059V318H236.765V286.627ZM289.083 286.627V318H283.031L268.702 300.066V318H261.092V286.627H267.055L281.429 304.561V286.627H289.083ZM307.765 318.401C304.502 318.401 301.654 317.733 299.221 316.398C296.818 315.063 294.964 313.179 293.659 310.746C292.383 308.314 291.745 305.495 291.745 302.291C291.745 299.087 292.383 296.284 293.659 293.881C294.964 291.448 296.818 289.564 299.221 288.229C301.654 286.894 304.502 286.227 307.765 286.227C309.812 286.227 311.785 286.538 313.684 287.161C315.612 287.784 317.185 288.615 318.401 289.653L315.864 295.438C313.283 293.629 310.643 292.724 307.943 292.724C305.392 292.724 303.434 293.525 302.069 295.127C300.734 296.729 300.067 299.117 300.067 302.291C300.067 305.466 300.734 307.869 302.069 309.5C303.434 311.102 305.392 311.903 307.943 311.903C310.643 311.903 313.283 310.999 315.864 309.189L318.401 314.974C317.185 316.012 315.612 316.843 313.684 317.466C311.785 318.089 309.812 318.401 307.765 318.401ZM320.481 286.627H342.775V292.946H328.446V298.909H341.885V305.184H328.446V311.681H342.775V318H320.481V286.627Z" fill="black"/>
</svg>
