<svg id="Logo" xmlns="http://www.w3.org/2000/svg" width="360.8" height="360.8" viewBox="0 0 360.8 360.8"><defs><style>.cls-1,.cls-2{fill:#231f20;}.cls-2{font-size:39.99px;font-family:FuturaLT-CondensedBold, Futura LT Condensed;font-weight:700;}.cls-3{fill:#fff;}</style></defs><title>logo</title><circle class="cls-1" cx="180.4" cy="180.4" r="180.4"/><text class="cls-2" transform="translate(188.2 177.3)"> </text><path class="cls-3" d="M136.4,143.9c4,0,4.3-7.7,4.3-10.1s-.3-10.2-4.3-10.2-4.3,7.5-4.3,10.2S132.4,143.9,136.4,143.9Z" transform="translate(0 0)"/><path class="cls-3" d="M127.2,203.8c0,2.4.3,10.1,4.3,10.1s4.3-7.7,4.3-10.1-.3-10.2-4.3-10.2S127.2,201,127.2,203.8Z" transform="translate(0 0)"/><path class="cls-3" d="M147.2,228.6c-4,0-4.3,7.4-4.3,10.2s.3,10.1,4.3,10.1,4.3-7.7,4.3-10.1S151.2,228.6,147.2,228.6Z" transform="translate(0 0)"/><path class="cls-3" d="M136.6,158.6c-4,0-4.3,7.5-4.3,10.2s.3,10.1,4.3,10.1,4.3-7.7,4.3-10.1S140.6,158.6,136.6,158.6Z" transform="translate(0 0)"/><path class="cls-3" d="M93.7,93.7V267.1H267.1V93.7Zm55.5,59.8h6V184h-6Zm-12.6,31c-5.4,0-10.7-4.3-10.7-15.7s5.3-15.7,10.7-15.7,10.7,4.2,10.7,15.7S142,184.5,136.6,184.5Zm5.6,19.3c0,11.4-5.3,15.7-10.7,15.7s-10.7-4.3-10.7-15.7,5.4-15.7,10.7-15.7S142.2,192.3,142.2,203.8Zm-5.8-85.7c5.4,0,10.7,4.2,10.7,15.7s-5.3,15.7-10.7,15.7-10.7-4.3-10.7-15.7S131,118.1,136.4,118.1Zm-31.2.4H111l7.5,18.4h.1a17.1,17.1,0,0,1-.5-4.6V118.5h6V149h-5.7L111,130.6h-.1l.3,3.1V149h-6Zm6.4,35,3.6,14.6c.5,1.8.7,3.5,1.1,5.3h.1a45.1,45.1,0,0,1,.9-5.3l3.7-14.6h6.3L118.9,184h-5l-8.8-30.5Zm-6.4,40.7v-5.7h15.5v5.7h-4.8V219h-6V194.2ZM118.9,254h-5l-8.8-30.5h6.5l3.6,14.6c.5,1.8.7,3.5,1.1,5.3h.1a45.1,45.1,0,0,1,.9-5.3l3.7-14.6h6.3Zm15.7,0h-6V223.5h6Zm12.6.5c-5.4,0-10.7-4.3-10.7-15.7s5.3-15.7,10.7-15.7,10.7,4.2,10.7,15.7S152.6,254.5,147.2,254.5ZM172,254H159.7V223.5h6.1v24.8H172Zm1.3-94.7a9.3,9.3,0,0,0-2.3-.4c-5.2,0-7.5,4.8-7.5,9.5s2.3,10.1,7.5,10.1a9.3,9.3,0,0,0,2.3-.4v5.7a8.7,8.7,0,0,1-2.8.5c-8.7,0-13.5-7.8-13.5-15.8s5-15.3,13.2-15.3a10.6,10.6,0,0,1,3.1.5ZM186.1,254H173.9V223.5H186v5.7h-6.1v6.6h5.3v5.7h-5.3v6.8h6.2Zm1.1-70H175V153.5h12.1v5.7H181v6.6h5.4v5.7H181v6.8h6.2Zm19.6,70h-5.7l-7.4-18.4h-.1l.3,3.1V254h-6V223.5h5.7l7.5,18.4h.1a17.1,17.1,0,0,1-.5-4.6V223.5h6Zm17.7-24.7a8.5,8.5,0,0,0-2.2-.4c-5.3,0-7.6,4.9-7.6,9.5s2.3,10.1,7.5,10.1a8.5,8.5,0,0,0,2.3-.4v5.7a8.7,8.7,0,0,1-2.8.5c-8.6,0-13.4-7.8-13.4-15.8s5-15.3,13.2-15.3a10.5,10.5,0,0,1,3,.5ZM238.4,254H226.3V223.5h12.1v5.7h-6.1v6.6h5.3v5.7h-5.3v6.8h6.1Z" transform="translate(0 0)"/></svg>